<svg xmlns="http://www.w3.org/2000/svg"><defs><font id="Fondamento-Regular" horiz-adv-x="1102"><font-face font-family="Fondamento" font-weight="400" units-per-em="2048" panose-1="3 2 5 5 0 0 0 2 0 4" ascent="1638" descent="-410" x-height="969" cap-height="1439" bbox="-466 -774 2772 2060" underline-thickness="20" underline-position="-153" unicode-range="U+0020-FB02"/><glyph glyph-name="fi" unicode="fi" horiz-adv-x="1324" d="M382 310q0-100-63-174h294q-12-9-39-31.5T516 58Q439 0 419 0H104q50 40 63 79 21 58 21 127v651H62l126 99q0 207 10.5 273t29.5 113 54 91q66 84 218 184 94 63 232 87 41 8 97.5 8t113.5-24.5 94.5-57.5 56-66 18.5-46-13-29-33.5-34-45.5-37-49-34q-56-35-75-35 20 20 20 30t-7 28.5-23 40.5-42 45-64 41q-87 43-205 43-64 0-106-13-82-114-86-336-1-60-1-115V993h375q-14-2-67-49-100-87-128-87H382V310zm945-187q-30-24-58.5-49T1209 28q-72-47-138-47-62 0-87 19-51 38-51 140v474q0 108-39 140-18 15-39 15t-35.5-2.5T790 761t-31-6q50 39 93.5 70t74.5 52 86 59.5 114 69.5V300q0-102 13-129 28-55 124-55 26 0 63 7z"/><glyph glyph-name="fl" unicode="fl" horiz-adv-x="1298" d="M382 310q0-100-63-174h294q-12-9-39-31.5T516 58Q439 0 419 0H104q50 40 63 79 21 58 21 127v651H62l126 99q0 207 10.5 273t29.5 113 54 91q66 84 218 184 142 95 270 95 72 0 165-38 47-19 47-39 0-1-2-7 48 25 76 38.5t46 22.5V309q0-41 .5-76t11.5-61q25-54 126-54 32 0 62 6-33-26-63-52t-62-46q-71-46-147-46-110 0-120 152-2 41-2 80v1070q0 196-134 196-6-1-13-1t-13.5-1-13.5-2l49 34q-24 35-165 63-31 6-50 6-57 0-99-13-82-114-86-336-1-60-1-115V993h375q-14-2-67-49-100-87-128-87H382V310z"/><glyph glyph-name=".notdef" horiz-adv-x="500"/><glyph glyph-name=".null" horiz-adv-x="0"/><glyph glyph-name="nonmarkingreturn" horiz-adv-x="500"/><glyph glyph-name="space" horiz-adv-x="500"/><glyph glyph-name="exclam" unicode="!" horiz-adv-x="547" d="M342 1465q42 0 42-93 0-24-6-123-11-190-20.5-374.5T334 433q-1-12-47-36-92-48-99-59l-3 942q0 56-32 56-12 0-64-48l-1 13q112 99 221 154 20 10 33 10zm73-1359L221-30 116 137l195 136z"/><glyph glyph-name="quotedbl" unicode="&quot;" horiz-adv-x="699" d="M579 1465q42 0 42-93 0-92-50-222-16-41-51.5-91.5T464 980q-2 15-4.5 47t-7 72-11 82.5T425 1259q-23 79-57 79 64 80 153 115 30 12 58 12zm-300 0q42 0 42-93 0-92-50-222-16-41-51.5-91.5T164 980q-2 15-4.5 47t-7 72-11 82.5T125 1259q-23 79-57 79 64 80 153 115 30 12 58 12z"/><glyph glyph-name="numbersign" unicode="#" horiz-adv-x="1074" d="M1011 753q-14-3-66-49-100-87-128-87h-68q-11-50-23-99.5T702 417h250q-14-3-66-49-100-87-128-87h-89q-14-60-24-102-30-127-48.5-143t-39-29-44-26T470-44q-48-26-53-36 23 91 46 180.5T508 281h-95q-13-52-27.5-113.5t-25-92-25.5-43T299.5 7 256-19t-44-25q-47-26-52-36 48 174 93 361H56q16 2 63 44.5t66 56.5q45 35 65 35h35q15 65 45 200H115q13 2 62 44.5t68 56.5q45 35 65 35h48q18 88 24 121t8 50 6 30.5 18.5 26 35 25.5 44.5 26.5 44 25.5q49 29 53 36-22-125-67-341h90q7 35 13.5 68.5T639 881t7.5 43 6.5 30.5 18.5 26 35 25.5 44.5 26.5 45 25.5q48 29 52 36-34-182-69-341h232zM585 617h-91q-11-51-23-100t-24-100h93q11 51 22.5 100.5T585 617z"/><glyph glyph-name="dollar" unicode="$" horiz-adv-x="1067" d="M290 428q-26-23-26-46.5t16.5-39 42.5-27 58.5-19T445 284q59-8 96-8t77 1 74 14q79 30 79 134 0 134-198 191-56 16-115 31t-115 32-100 43q-98 58-98 157 0 121 175 257 59 47 128 86v168q0 18 61 53t92.5 53 40.5 30v-239q14-1 27-1h27q61 0 127-15t93-26q61-25 61-55 0-61-123-138-15-10-42-23-46-24-58-40 27 42 27 65 0 58-181 87-62 10-90 10t-57-2.5-54-15.5q-59-31-59-113 0-103 96-162 52-32 131-47t129-27q121-29 171-67t74.5-74.5T966 554t-33.5-106T850 347q-95-90-208-144V35q-82-68-107-82l-40-23q-36-20-47-31v239H348q-129 0-218 42-58 27-58 65 0 33 33 59.5t57.5 41.5 49.5 30q63 37 78 52z"/><glyph glyph-name="percent" unicode="%" horiz-adv-x="1940" d="M1871 523q0-240-226-408-29-21-61.5-45T1516 26q-153-85-284-13-115 63-156 203-20 67-20 151 0 179 141 324 28 28 63 50.5t65 42.5 58 38.5 57 32.5q68 32 133.5 32t122-32.5T1791 770q80-105 80-247zm-474 1114q-66-333-246-695Q858 355 555-12q-49-59-84.5-81.5T410-130q-68-39-94-64Q682 246 962 819q172 351 233 643 2 8 2.5 20t9.5 26 33.5 31 52.5 33l56 32 48 33zm-507-541q0-240-226-408-124-94-181-114t-114.5-20T252 586t-98 84Q75 775 75 926q0 194 141 337 28 29 63 51.5t65 42.5 58 38 58 33q67 32 109.5 32t88.5-12 92.5-46.5T828 1320q62-96 62-224zm787-680q0 52-23 116.5T1588 646q-92 107-237 107-13 0-27-2-75-107-75-262 0-142 81-252 89-122 228-122 19 0 39 3 80 108 80 298zM696 989q0 52-23 116.5T608 1219q-93 107-238 107-14 0-27-3-75-107-75-261 0-144 81-253 90-122 228-122 19 0 39 4 80 108 80 298z"/><glyph glyph-name="ampersand" unicode="&amp;" horiz-adv-x="2171" d="M1415 442q124 183 124 365 0 104-42 199-58 8-112 8-121 0-202-42 122 100 172 126 98 51 218 51 72 0 167-11 186-23 241-23 100 0 169 13-22-7-53-36.5t-47-41.5q-65-50-106-60-74-18-212-10 2-18 2-38 0-281-275-541 35-32 75.5-69t72.5-66 60-53.5 58-44.5q99-64 240-30 49 11 94 34-105-88-164-120-113-64-217-64-134 0-316 184-45 46-85 83Q896-22 578-22q-183 0-316 78-159 92-159 263 0 201 313 391 44 27 84 50-209 50-209 236 0 94 100 210 93 109 222 185 134 79 227 79 119 0 202-70 88-73 88-190 0-196-258-363 183-72 420-292 63-59 123-113zm-484 640q0 44-20 94t-57 86q-75 73-198 73-46 0-87-10-83-100-83-201 0-139 114-192 58-26 123.5-41T826 864q105 20 105 218zm332-814q-71 66-144 135T968 535Q787 680 624 730q-61-15-120-28t-105-39q-102-58-102-197 0-221 249-314 99-37 184-37t154.5 10 137.5 29q155 43 241 114z"/><glyph glyph-name="quotesingle" unicode="'" horiz-adv-x="399" d="M279 1465q42 0 42-93 0-92-50-222-16-41-51.5-91.5T164 980q-2 15-4.5 47t-7 72-11 82.5T125 1259q-23 79-57 79 64 80 153 115 30 12 58 12z"/><glyph glyph-name="parenleft" unicode="(" horiz-adv-x="939" d="M959-170q-22-8-73-53.5t-76.5-64T765-306q-204 0-372 154Q243-16 154 204 69 411 69 609q0 318 149 565 52 85 119 147.5t139.5 120T628 1549q172 110 327 154-29-11-68-48-78-72-120.5-87t-81.5-28.5-73-31.5q-132-69-230-254-119-229-119-506 0-201 83-406 89-220 238-356 169-154 375-156z"/><glyph glyph-name="parenright" unicode=")" horiz-adv-x="951" d="M866 923q17-97 17-206t-32-228.5T761 262 622 62 442-104Q238-256-6-306q24 9 68 49 84 75 126 87Q688-30 688 596q0 199-84 413-144 363-410 502-93 49-200 57 19 6 44 28t52 46q70 62 98 62 46 0 128-29t160.5-86T619 1458t113.5-162 83-182T866 923z"/><glyph glyph-name="asterisk" unicode="*" horiz-adv-x="999" d="M909 1096q0-34-238-95-69-18-113-25 145-133 264-187 39-13 39-21.5t-8-24.5-21-36-29-40.5-31-37.5q-34-39-47-39t-33 23-44 59-49 79.5-47 84.5q-47 88-53 118-88-110-149-237-20-43-26-66.5T311 626q-26-2-83 34-107 65-107 88 0 34 195 168 68 47 94 61-116 23-192 52.5t-96 41-20 21.5q0 19 37 69 69 92 90 92 6 0 18.5-17.5t40.5-47 60-58.5q59-51 127-97-26 222-94 338-7 12-7 18t12.5 13.5 32 13.5 42.5 11.5 45 8.5q46 8 60.5 8t22.5-1.5 11-6.5q5-6 5-39t-5-79.5-14-94.5q-19-110-38-171 159 112 218 200 6 8 14 8t30-22 44-50q55-70 55-92z"/><glyph glyph-name="plus" unicode="+" horiz-adv-x="1030" d="M978 615q-13-1-66-48-101-88-128-88H617V254q0-18-59.5-53T476 153q-51-30-53-35v361H62q14 1 66 48 101 88 128 88h167v225q0 13 35 35.5t59.5 37.5 46.5 27q49 28 53 36V615h361z"/><glyph glyph-name="comma" unicode="," horiz-adv-x="483" d="M187-280Q290-177 290-68q0 41-15.5 53.5T246.5-2t-23-7.5T206-21q-16-10-16-9L85 137q-4 4 32 30t61.5 43 47.5 32q52 33 54 31 13-21 27.5-42.5T336 188q32-52 43-92t9-82.5T372-70q-28-84-90-146-18-18-53-37.5T187-280z"/><glyph glyph-name="hyphen" unicode="-" horiz-adv-x="1179" d="M1054 615q-13-1-66-48-101-88-128-88H138q12 1 65.5 47.5t82 67.5 46.5 21h722z"/><glyph glyph-name="period" unicode="." horiz-adv-x="471" d="M383 106 189-30 84 137l194 136z"/><glyph glyph-name="slash" unicode="/" horiz-adv-x="928" d="M850 1439Q635 774 257 136q-27-37-75-62Q86 24 63 0q292 477 509 1064 35 95 84 239 15 31 68 59 104 55 126 77z"/><glyph glyph-name="zero" unicode="0" horiz-adv-x="1476" d="M1382 822q0-429-376-695Q790-26 630-26q-250 0-399 209Q96 372 96 628q0 334 204 544 95 98 250 193 157 97 298 97 162 0 290-98 176-134 228-388 16-77 16-154zm-194-113q0 64-16.5 139t-48 144.5-77 130T943 1228q-125 97-279 97-272 0-348-300-27-110-27-222.5T304.5 611 351 458.5 428 321t106-111q128-102 296-102 131 0 219 104 139 166 139 497z"/><glyph glyph-name="one" unicode="1" horiz-adv-x="754" d="M449 370q0-154-80-234h369Q572 0 544 0H156l2 4q49 45 73 90t24 110v734L50 818v31l399 240V370z"/><glyph glyph-name="two" unicode="2" horiz-adv-x="1096" d="M343 965 149 829q-38 71-38 145.5t20 125.5 55 92q44 53 128.5 112t119 83 70.5 42q82 40 152.5 40t131.5-18.5 110-54.5q108-79 108-207 0-179-179-365-49-51-87-85.5T656 660t-99-98.5-107.5-115T351 328q-99-131-101-192h749q-19-4-65.5-46T868 34Q826 0 805 0H52q83 186 209 323 44 48 102 101t119 110 120 118 105 126q103 146 103 275 0 118-100 201-95 81-215 81-109 0-149-51-40-48-40-148.5T343 965z"/><glyph glyph-name="three" unicode="3" d="M139 953q166 136 194 136h675Q810 797 673 652q-63-67-133-125 240-9 353-87 138-96 138-317 0-196-157-317-134-104-222-146-166-80-305-80-88 0-159 18T86-370q-68 31-68 78 0 51 86 116 43 31 135 81-28-33-28-60.5t19.5-46.5 50-33 68.5-23 75-14q64-10 117.5-10T647-271t95 41q97 69 97 206.5t-38.5 214T694 310q-114 74-351 81 24 23 49.5 44t63 57.5 86 94.5 94 119.5 89.5 124T811 952z"/><glyph glyph-name="four" unicode="4" horiz-adv-x="1359" d="M974 340q0-116-102-204h326q-12-2-66-48.5t-82-67T1004 0H674q77 39 94 102 12 41 12 213v28H293q-143 0-291 1 500 496 659 755 32 51 60.5 102.5t47 84T804 1331t38.5 26 44.5 26 41 26l46 32V479h81q128 0 230 48 36 17 62 42-184-178-373-214v-15zM780 480v635Q597 847 314 583q-9-8-39-35-44-43-75-68h580z"/><glyph glyph-name="five" unicode="5" horiz-adv-x="1109" d="M314-44q-51-51-51-79.5t18.5-44 47.5-28 65-21.5 70-15q68-12 98-12 84 0 162 72 99 90 99 215 0 274-207 356-69 27-136.5 27T368 418.5t-87-19-86-24.5-86-24q53 200 59 602l195 136h712Q912 953 880 953H360q-11-259-52-449 105 54 338 54 173 0 270-96 99-96 99-269 0-165-110-283-182-196-388-264-75-24-121-24t-73 3.5-60 9.5-68 15-63 21q-66 28-66 57 0 41 59 100 29 29 74 53 87 47 115 75z"/><glyph glyph-name="six" unicode="6" horiz-adv-x="1288" d="M998 1255q0 87-290 87-216 0-326-231-91-190-87-419v-28q164 156 351 226 66 24 120.5 24T873 899t99.5-41.5 89-63.5 71.5-82q65-96 65-188.5T1166 362t-84-127q-85-97-241-193-134-81-277-81-171 0-292 111Q95 235 95 539q0 270 131 500 75 131 238 255 236 180 481.5 180t245.5-81q0-23-21-52-17-10-44.5-26t-55.5-35q-68-43-89-68 17 22 17 43zm3-897q0 49-15 100.5t-41.5 99-63.5 89-81 71.5q-94 66-177 66t-131-26-83-68q-66-79-93-202 38-172 148-278Q583 97 752 97q118 0 187 81 62 74 62 180z"/><glyph glyph-name="seven" unicode="7" horiz-adv-x="980" d="M977 1089q-68-216-111-347t-69-210.5T746 382q-53-151-85.5-219.5T561.5 2 414-175Q234-364 67-431l-4 8q9 5 16.5 10t15 9.5 43 31.5 88 71.5T322-206q88 100 143.5 226t95 240.5 76 231.5 72 234T784 953H16q11 8 38 30.5t58 46.5q78 59 98 59h767z"/><glyph glyph-name="eight" unicode="8" horiz-adv-x="1208" d="M382 723q-190 83-190 245 0 114 99 236 143 177 355 244 64 21 120.5 21t110.5-18.5 96-52.5q93-77 93-194 0-156-190-348-50-50-93-86 138-65 202-120 128-111 128-227 0-143-160-264-57-43-115-84T720 10Q602-37 504.5-37T339-10 221 65Q114 168 114 326q0 207 268 397zm372 60q121 140 121 288 0 120-97 193-88 67-211 67-142 0-171-116-10-37-10-84.5t17-87 46-73 66.5-60.5 78.5-50q51-28 160-77zm-343-73Q311 610 311 454q0-160 113-259 110-96 271-96 149 0 200 86 19 32 19 93 0 138-114 232-96 79-288 158-52 21-101 42z"/><glyph glyph-name="nine" unicode="9" horiz-adv-x="1282" d="M301-103q-17-22-17-43t14.5-35 37.5-24 51.5-16 56.5-9q45-5 111.5-5t135 27 119 73T894-26.5 948 107q37 125 39 298-165-157-350-225-66-25-134-25t-145 34-138 91Q84 407 84 565q0 136 105 275 97 128 245 212 152 86 277.5 86t213.5-49 146-129q116-160 116-395 0-270-131-495-76-133-236-254-240-182-484.5-182T91-284q0 23 21 52 149 83 189 129zm669 723q0 70-38.5 144.5T830 892q-133 109-312 109-195 0-227-173-10-54-10-113t17-111 47-98.5 71.5-85.5 89.5-68q100-60 205-60 101 0 183 104 76 96 76 224z"/><glyph glyph-name="colon" unicode=":" horiz-adv-x="553" d="M428 746 234 610 129 777l194 136zm0-640L234-30 129 137l194 136z"/><glyph glyph-name="semicolon" unicode=";" horiz-adv-x="558" d="M428 746 234 610 129 777l194 136zM333-68q0 66-42 66-13 0-29-10l-28-18-105 167 194 136q24-38 43-69 49-79 57.5-110t8.5-83-29-116-63.5-97.5-61.5-46-47-31.5Q333-178 333-68z"/><glyph glyph-name="less" unicode="&lt;" horiz-adv-x="910" d="M820 136q-23-12-56-36l-49-37q-37-28-59-46T630.5-1t-40 23T483 101 342 217Q150 380 58 446q52 24 190 135 127 74 188 124 113 94 190 206 22 33 76 62t80 43.5 38 30.5Q706 855 425 666q-78-53-151-99 143-102 282-205.5T820 136z"/><glyph glyph-name="equal" unicode="=" horiz-adv-x="1222" d="M1061 753q-12-1-65.5-47.5t-82-67.5-46.5-21H165q12 1 65.5 47.5t82 67.5 46.5 21h702zm0-276q-12-1-65.5-47.5t-82-67.5-46.5-21H165q12 1 65.5 47.5t82 67.5 46.5 21h702z"/><glyph glyph-name="greater" unicode="&gt;" horiz-adv-x="916" d="M858 601q-68-34-190-135-127-74-188-124-108-90-190-206-25-35-77-63Q112 19 96 0q115 194 395 381 78 52 151 99-143 101-281.5 205T96 911q37 15 111.5 76t77.5 61 40-23 108-79.5T574 830q198-167 284-229z"/><glyph glyph-name="question" unicode="?" horiz-adv-x="1042" d="M267 1105q0-68 38-138L110 831q-37 71-37 146 0 144 110 254 162 162 341 221 65 22 131 22t124.5-25.5T880 1378q91-94 91-229 0-142-121-267-34-35-70-68.5t-70-66-61-67.5q-60-79-60-163l8-57q0-25-97.5-75T402 324q-7 27-7 69t21.5 87.5 54.5 85 72 74.5 73 67 64 70 52 81q50 93 50 171.5t-28.5 134T678 1258q-97 79-232 79-69 0-122-57-57-62-57-175zm392-999L465-30 360 137l195 136z"/><glyph glyph-name="at" unicode="@" horiz-adv-x="1520" d="M929 790q65 0 112-47 12 9 49 30 67 38 72 48-13-68-30.5-135.5T1098 550q-37-165-37-274 0-36 19-56t55-18q113 191 113 399 0 176-106 288-110 116-282 116-233 0-402-193-100-115-139-266-19-74-19-158t24-175 74-163q113-158 311-164-14-4-43-28.5T617-184t-39-32q-41-34-64-34-189 0-306 160Q102 54 102 250q0 345 281 582 190 160 411 250 160 66 265 66t174-36 115-96q95-122 95-297 0-123-70-277-115-251-297-345-63-32-129-32-90 0-79 117-132-99-228.5-99t-154 57T428 298q0 116 76 233 72 112 185 184 118 75 240 75zM758 651q-102 6-127-141-6-36-6-70 0-106 56-162.5T841 221q26 0 49 83 19 70 19 109 0 95-35 163t-116 75z"/><glyph glyph-name="A" unicode="A" horiz-adv-x="1403" d="M162 135q7 1 80 1 125 0 184.5 19t85.5 35q-37-28-68-52-67-52-107.5-75T256 27.5 174 9Q112 0 5 0h-39q1 1 1.5 2t14 16T21 61.5 90 147t93.5 147 94 183.5T361 667t82.5 192.5 86.5 195 66.5 154.5 26 70 11.5 24h-76q-186 0-289-42 138 120 231 151 85 27 276 27h53q43-143 86.5-290t87.5-294q96-320 144.5-464t57-171.5T1226 170q29-48 93-48 35 0 73.5 16t59.5 29q-36-27-64-49-72-55-92-67.5T1256 26t-42-22q-140-62-189 47-35 77-84 246.5T854 586q-84-60-366-56h-62Q313 304 206 185q-9-10-18-21-26-30-26-29zm342 534 198-4q62 0 126 4-46 146-137 447-99-227-201-450 12 3 14 3z"/><glyph glyph-name="B" unicode="B" horiz-adv-x="1235" d="m499 1439 198 1q168 0 249-49 106-63 106-217 0-144-166-265-46-33-89-63 241-27 319-198 28-60 28-128.5T1118.5 396t-68-105.5-97-95.5T841 114Q681 17 560 7q-86-7-152-7H183q44 62 53 90 14 42 14 116v1097H30q159 136 194 136h275zm-55-594q63 2 157 2.5t136-2.5q100 31 117 119 5 31 5 70 0 276-345 276-36 0-70-2V845zm0-498q0-115-64-211h279q117 0 173 32.5t85 79T946 371t-21 132-57 93-85 61-105 35q-91 21-234 21V347z"/><glyph glyph-name="C" unicode="C" horiz-adv-x="1391" d="M1342.5 1432q19.5-9 19.5-17.5t-16-23.5-40-33.5-53-39.5-55-38q-62-41-74-45 1 4 15 15 26 21 26 26.5t-4.5 9-10 6-10.5 4.5-38 14q-79 31-227 31t-255.5-34.5T437 1202q-155-145-155-422 0-281 154-475Q602 97 872 97q179 0 439 114-8-7-15-13-10-11-25-23Q980-43 668-43q-269 0-430 203Q89 349 89 629q0 144 42.5 243.5T231 1050t129.5 144 157 118.5T693 1402q187 76 377 76 107 0 180-18.5t92.5-27.5z"/><glyph glyph-name="D" unicode="D" horiz-adv-x="1553" d="M1458 784q0-123-39.5-232t-108-197T1149 200.5 950 90Q735 0 496 0H174q76 79 76 285v1018H30q16 4 68 50 99 86 126 86l444 1q332 0 547-150 243-169 243-506zm-228-371q35 96 35 226.5T1238.5 869t-76.5 172.5-122 123.5-163 81q-172 57-433 57V339q0-102-30-155-13-21-34-51h333q417 0 517 280z"/><glyph glyph-name="E" unicode="E" horiz-adv-x="1132" d="M56 1303q166 136 194 136h826q-11-1-65-47.5t-82.5-67.5-46.5-21H438V818h485q-11-1-36-22.5T832 749q-79-67-104-67H438V356q0-111-34-182-13-28-34-38h556q57 0 118 26l62 26q-51-61-218-150-72-38-97-38H153q90 122 90 239v443H103q87 70 140 109v512H56z"/><glyph glyph-name="F" unicode="F" horiz-adv-x="1081" d="M58 1303q163 136 194 136h873q-14-2-42.5-27t-48.5-42.5-39-31.5q-45-35-65-35H440V759h485q-13-2-42-27.5T834 689t-39-32q-44-35-65-35H440V388q0-180-72-252h321q-14-2-42.5-27T598 66.5 559 34Q514 0 494 0H155q90 140 90 239v383H105q70 56 140 110v571H58z"/><glyph glyph-name="G" unicode="G" horiz-adv-x="1637" d="M1599 759q-9-3-52-36t-72-59V317q-116-148-326-251Q937-38 767-38T474.5 12.5 266 152Q91 336 91 637q0 222 82 361 119 212 367 356 247 143 493 143 169 0 341-52 68-20 113-49 10-7 10-15t-16-22.5-40.5-33-53.5-38.5-55-37q-53-36-70-43 1 3 7 8t13 11q17 16 17 26 0 39-137 73-146 37-311 37t-268-40-169-116q-127-148-127-440 0-283 168-470 175-196 454-196 168 0 297 44 48 17 77 43v435H996l38 32q129 105 156 105h409z"/><glyph glyph-name="H" unicode="H" horiz-adv-x="1665" d="M1629 136q-12-1-65-48-103-88-130-88h-338q53 59 67 94 22 56 22 145v443H441V388q0-95-9-129-14-52-63-123h321q-14-2-62-44t-68-57Q515 0 495 0H156q74 58 86 159 4 35 4 80v1064H59l39 31q127 105 155 105h437q-12 0-61-43t-69-58q-45-35-65-35h-54V818h744v485H998l38 31q128 105 157 105h436q-12 0-61-43t-68-58q-46-35-66-35h-54V388q0-95-9-129-14-54-62-123h320z"/><glyph glyph-name="I" unicode="I" horiz-adv-x="733" d="M59 1303q166 136 194 136h456q-13-2-61-44t-68-57q-45-35-65-35h-74V388q0-173-72-252h321q-14-2-62-44t-68-57Q515 0 495 0H156q53 53 67 90 23 59 23 149v1064H59z"/><glyph glyph-name="J" unicode="J" horiz-adv-x="710" d="M707 1439q-18-5-70-50.5t-79-65.5-45-20h-75V223q0-175-84-350-86-181-226-293-155-123-332-123-51 0-116 24.5t-90 38.5q-56 31-56 59 0 29 162 141 51 37 80 51-52-35-52-60 0-12 48.5-41t83.5-44q81-34 140.5-34T97-383t68.5 66 43 93T232-117q12 83 12 203v1217H57q12 9 39.5 31.5T154 1380q76 59 97 59h456z"/><glyph glyph-name="K" unicode="K" horiz-adv-x="1630" d="M1117 1303q-125-134-447-434 589-580 712-667 95-68 184-68 46 0 151 47-56-53-100-82t-74-45.5-62-29.5q-123-50-209-13-65 27-118 74.5t-87 77.5-81 72.5-98 88.5q-95 89-202.5 191T462 727q483 463 582 576H869q69 62 125.5 99t68.5 37h397q-19-4-65.5-46t-64.5-57q-43-33-65-33h-148zM158 0q90 93 90 348v955H61l39 31q127 105 155 105h456q-11-1-65-47.5t-82.5-67.5-46.5-21h-74V388q0-95-9-129-14-52-63-123h321q-14-2-62-44t-68-57Q517 0 497 0H158z"/><glyph glyph-name="L" unicode="L" horiz-adv-x="1121" d="M444 307q0-111-79-171h564q81 0 122.5 19t61.5 35Q994 43 858 8q-30-8-61-8H149q56 54 72 90 28 64 28 149v1064H62l38 31q128 105 156 105h456q-11 0-60-43t-68-58q-46-35-66-35h-74V307z"/><glyph glyph-name="M" unicode="M" horiz-adv-x="2216" d="M1969 366q0-149-51-230h296q-19-5-44-27t-52-46q-71-63-99-63h-297q50 74 50 202t-6.5 246.5T1755 652t-6.5 141-4.5 113q-8 167-11 221-89-155-181.5-321.5T1393 524t-104.5-190-81.5-149q-9-15-95-71t-99-65q-55 168-138 313T738 594 632 768l-159 265q-43-517-65.5-632.5t-43-174T313 136h320Q467 0 439 0H110q58 58 97 254 44 218 103 1049H59q73 73 173 128 14 8 21 8h252q84-139 167-277l166-277q42-70 85-139.5t84-139.5q99-171 150-290 95 167 224 403 229 422 341 614 19 31 148 107 29 17 46 29 24-437 34.5-693t14.5-307 4-103z"/><glyph glyph-name="N" unicode="N" horiz-adv-x="1824" d="M1401 343q23 266 23 504.5t-19 455.5h-178q12 9 39.5 31.5t57.5 45.5q76 59 97 59h377q-22-7-67.5-48t-71-61-50.5-26q2-24 2-48v-48l-3-223q0-368-79-778-2-10-4-24t-5-29q-5-35-12-50.5t-27-35-44-38.5q-28-24-85-64-12 75-86 167-357 446-805 944V584q0-293-45-379-25-45-46-69h323q-12-9-39.5-31.5T596 58Q520 0 499 0H170q86 124 98 326 4 58 4 318.5T250 1303H23q12 9 39.5 31.5T120 1380q76 59 97 59h377q-26-9-52-34t-35-33q268-284 456.5-507.5t272.5-321T1401 343z"/><glyph glyph-name="O" unicode="O" horiz-adv-x="1756" d="M1673 834q0-103-35-215.5t-96.5-215T1395 212 1210 58Q996-81 773-81q-315 0-499 183Q89 285 89 599q0 237 131 445 124 199 332 318 211 121 449 121 274 0 471-181 201-185 201-468zm-195-160q0 139-48.5 265.5T1292 1156q-186 187-495 187-403 0-487-339-26-107-26-254t45.5-278.5T463 246Q647 51 971 51q259 0 391 180 116 158 116 443z"/><glyph glyph-name="P" unicode="P" horiz-adv-x="1224" d="M660.5 546Q585 527 532 527t-81 2q0-56 .5-109T443 318q-20-110-99-182l315 2q-14-3-39-25t-54-47Q491 0 465 0H148q69 63 86 106 22 59 22 162v1035H26q159 136 194 136h537q177 0 298-87 135-97 135-269 0-157-124-289-84-91-261-191-69-38-144.5-57zM996 953q0 350-502 350h-43V711q37-3 102-19 115-28 180.5-28t117 16.5T934 732q62 66 62 221z"/><glyph glyph-name="Q" unicode="Q" horiz-adv-x="1763" d="M1101 33Q953-41 787.5-41T496 5 280 137Q90 319 90 624q0 231 134 434 128 194 336 308 214 117 442 117 273 0 470-181 202-186 202-457 0-293-225-543-68-75-147-137 73-51 154-107.5T1624-47q200-111 360-111 88 0 222 55-132-132-309-177-59-15-125-15-126 0-250 67-168 89-421 261zm378 669q0 135-52.5 255.5T1282 1164q-192 179-484 179-401 0-486-335-27-106-27-249.5T335 490t141-214Q667 91 972 91q253 0 386 178 121 161 121 433z"/><glyph glyph-name="R" unicode="R" horiz-adv-x="1433" d="M712 1439q462 0 462-301 0-146-124-272-98-99-254-174 78-31 154-115 21-24 44-49l260-288q68-77 98.5-92t50.5-15q46 0 96 32Q1379-5 1201-5q-45 0-89 51-11 13-23 26L822 367q-57 63-97 105.5T646 541q-74 49-202 49V388q0-98-8-131-13-49-63-121h320q-13-2-41.5-27T603 66.5 564 34Q519 0 499 0H170q80 88 80 239v1064H34l38 31q128 105 156 105h484zm268-446q0 86-37 145t-96 96q-110 69-279 69H444V730h156q179 0 264 45 116 61 116 218z"/><glyph glyph-name="S" unicode="S" horiz-adv-x="1157" d="M789 1207q34 34 34 49.5t-14.5 26.5-37 19-50 13.5-53.5 8.5q-52 6-88.5 6t-84-7-87.5-27q-91-46-91-137t33.5-145.5T438 923t123.5-60T704 818t142.5-45T970 712q121-83 121-231 0-145-123-269Q863 106 689 38 532-24 388-24q-89 0-161.5 21T124 34q-70 35-70 83 0 77 229 202-30-33-30-63.5t19.5-52 50.5-37 69.5-25.5 76.5-16q70-11 127-11t112 10.5 98 36.5q97 58 97 183 0 194-246 288-70 26-143.5 49.5T370 730t-124 60q-122 80-122 211 0 109 123 225 106 100 267 172 153 69 261 69 97 0 156-18t74.5-27.5 15.5-22-14-30-36-37.5-48.5-40-52.5-37q-60-39-81-48z"/><glyph glyph-name="T" unicode="T" horiz-adv-x="1248" d="M-18 1303q166 136 194 136h1128q-13-2-61-44t-67-57q-46-35-66-35H700V388q0-121-41-200-18-34-40-52h330q-14-2-62-44t-67-57Q774 0 754 0H406q60 54 75 91 24 59 24 148v1064H-18z"/><glyph glyph-name="U" unicode="U" horiz-adv-x="1724" d="M1728 1440q-21-6-46-28t-52-46q-68-62-97-62h-74V389q0-110-45-199-15-31-36-53h330q-24-7-73.5-52.5t-75-64.5T1513 1h-328q60 84 69.5 131t10.5 83q-159-115-258-159-186-83-328-83T452 8 316 108q-97 122-97 366v830H50q12 9 39 31.5t58 46.5q77 58 97 58h417q-24-7-73.5-52.5t-75-64.5-46.5-19h-53V531q0-204 124-315 119-105 326-105 141 0 315 87 50 25 87 53v1053h-188q12 9 39.5 31.5t58.5 46.5q77 58 97 58h456z"/><glyph glyph-name="V" unicode="V" horiz-adv-x="1471" d="M773 195q416 693 416 954 0 114-69 153-25 14-60.5 14t-72.5-13q39 16 69.5 44.5t47.5 44.5 38 29q45 29 109.5 29t98-39.5 33.5-107-23-153.5-60-179-84.5-189-97.5-186q-51-93-133-230T871 174.5t-59-85T757 41 699 5q-80-48-92-64-33 133-63 266.5T480 474q-77 306-163 523-11 27-25 61.5t-31.5 70-39 69.5-47.5 60q-57 59-123 59-35 0-69.5-18t-50.5-21q1 0 14 12t19.5 17.5 21 17 49 36T106 1406q87 50 133 50t67-9 49.5-34.5 63.5-84 68-135 63.5-166T609 844t53-188 45.5-179.5 37-158T773 195z"/><glyph glyph-name="W" unicode="W" horiz-adv-x="2166" d="M927 1302q37 25 190 137 147-105 404-1061 18-67 28-107 19 46 52 116.5t71.5 153.5 78 172 71.5 171q72 183 72 257 0 116-74 167-25 17-52 17-44 0-80-17 33 17 62.5 42.5t59.5 49.5q74 59 137 59 64 0 105-51 39-46 39-113 0-120-299-781-102-226-115-259t-26-63q-31-70-46-91t-41.5-40-58.5-40.5-62-41-42-28.5q-30 118-59.5 236T1280 422q-67 249-145 462-70-190-174-418T833.5 183 781 87q-12-16-97-71.5T587-49Q576-3 558 79.5T516 267t-54 223-66 235-77 224-87 189q-100 179-201 179-51 0-108-33 97 101 233 154 45 18 78 18 87 0 162-120 66-108 111-237.5t72-218 51-177T674 534q30-116 64-265 23 53 52.5 118t60 135.5T910 667t52 146q50 162 50 263 0 146-85 226z"/><glyph glyph-name="X" unicode="X" horiz-adv-x="1649" d="M1310 1304q-175-202-422-467 477-671 530-700 39-24 65-24 44 0 140 48-182-182-313-182-73 0-128 63-50 55-124 156.5T948 349q-75 102-227 316L188 137h362q-22-9-74.5-55T398 18.5 355 1H-13l709 698Q592 842 547.5 901.5t-70 94T428 1062t-44 58.5-43 61-51 64.5q-67 73-131 73-47 0-125-39 149 135 274 170 28 8 56.5 8t53-14 45-35.5 37.5-47 36-49.5 43.5-57.5T631 1185t54-73 70-94.5T860 876q200 247 367 428H981q18 5 70 50.5t79 65.5 46 20h456q-18-5-70-50.5t-79-65.5-46-20h-127z"/><glyph glyph-name="Y" unicode="Y" horiz-adv-x="1257" d="M748 354q0-116-70-219h321q-13-2-66-48Q832 0 805 0H456q100 104 100 257v253q0 97-114 333-119 245-248 385-96 105-168 105-47 0-122-49 157 175 309 175 85 0 151-77 147-173 280-452 62-132 91-234 190 248 241 411 13 42 13 73.5t-8 58.5-25 47q-35 42-97 42-30 0-54-7 22 6 46.5 29.5T904 1399q75 65 139.5 65t101.5-35.5 37-90-24.5-115.5-63-127.5-87-135T911 829t-91.5-116.5T748 623V354z"/><glyph glyph-name="Z" unicode="Z" horiz-adv-x="1247" d="m543 149 484-14q75 0 192 52Q1118 62 971 16 922 0 875 0H0q192 164 481 626 41 66 70 112t57.5 94T669 932.5t66.5 106.5 68.5 103q75 110 129 160-70-8-175-8l-483 16q-106 0-178-8 14 11 40.5 32.5T193 1378q72 55 107 61.5t80 6.5h89l483-16q105 0 177 8-71-64-194-263-65-101-127.5-201.5T686 779.5 572.5 599 458 429Q323 242 185 125q178 24 358 24z"/><glyph glyph-name="bracketleft" unicode="[" horiz-adv-x="710" d="M372-14q0-91-75-162h413Q551-312 516-312H98q46 45 63 109t17 158v1609q0 26 132 106 49 30 62 30h358q-14-2-62-44t-68-57q-45-35-65-35H372V-14z"/><glyph glyph-name="backslash" unicode="\" horiz-adv-x="947" d="M884 136Q701 0 690 0q-1 0-9 14t-18.5 32.5T636 91Q308 652 97 1303q21 13 45 30.5t49.5 36l51 37L291 1439Q479 863 751 367q2-4 9-16t16.5-29.5T798 284q18-30 86-148z"/><glyph glyph-name="bracketright" unicode="]" horiz-adv-x="716" d="M6 1564q166 136 194 136h418q-65-94-76-186-4-33-4-72V-176q0-26-132-106-49-30-62-30H-14q16 2 63 44.5t66 57.5q45 34 65 34h164v1578q0 58 69 162H6z"/><glyph glyph-name="asciicircum" unicode="^" horiz-adv-x="666" d="M665 874q2-6-11-17.5t-34.5-26-47-29.5-48.5-28q-53-31-54-35l-159 385-117-249q-14-31-99-76-88-45-95-60l250 534q7 18 80 63 94 58 114 73z"/><glyph glyph-name="underscore" unicode="_" horiz-adv-x="998" d="M952-200q-13-1-66-48-101-88-128-88H36q12 1 65.5 47.5t82 67.5 46.5 21h722z"/><glyph glyph-name="grave" unicode="`" horiz-adv-x="494" d="M494 1390q-11-8-38.5-30t-58.5-46q-80-60-97-60-3 0-16 9-94 62-155 131T18 1541l-18 29q0 11 79 65 106 71 113 71t8-5 9-19q60-102 138-177.5T494 1390z"/><glyph glyph-name="a" unicode="a" horiz-adv-x="930" d="m753 296-2-70q0-78 44-99 17-8 39-8 35 0 72 16-38-16-66-42t-57-51q-72-60-145-60t-78 84q-2 22-2 44Q378-15 228-15 101-15 52 62q-18 28-18 77t30 98.5 76 90.5q82 76 198 125 86 37 221 42v44q0 159-29 215t-75 82.5T347 863q-105 0-185-41 110 91 161 120 105 59 190.5 59T642 976t68-66q43-72 43-207V296zM339 127q32-8 95-8t125 30v210H397q-87 0-152-12-13-43-13-82t13.5-67 37.5-45.5 56-25.5z"/><glyph glyph-name="b" unicode="b" horiz-adv-x="1125" d="M338 807q202 175 368 175 170 0 264-134 81-116 81-291 0-134-87-273-85-135-214-223-138-93-272-93-141 0-238 97-96 96-96 238v991q0 85-9 113-21 64-82 64-17 0-42-6t-41-9q99 77 149 110t105 71.5 114 69.5V807zm511-515q10 60 10 133t-18.5 149.5T782 712q-90 136-254 136-87 0-141-82-49-75-49-169V350q0-112 81-184 80-72 201-72 196 0 229 198z"/><glyph glyph-name="c" unicode="c" horiz-adv-x="946" d="M717 774q20 20 20 30t-13.5 19-35 16.5-47.5 14-50 10.5q-51 10-98 10t-95.5-28.5T320 770q-51-84-51-203.5t26-197T371 236q105-116 297-116 121 0 229 60Q771 44 578-2q-61-14-135-14T297 15t-122 86Q72 214 72 394q0 146 101 294 149 216 393 294 76 25 138 25 146 0 218-54 8-6 8-16 0-36-146-130-52-33-67-33z"/><glyph glyph-name="d" unicode="d" horiz-adv-x="1174" d="M554 970.5Q631 992 684 992t93-7v328q0 107-39 142-18 16-44 16-31 0-91-15 251 191 368 251V277q0-81 17-107 30-50 104-50 30 0 59 6-29-23-57.5-48T1034 32q-71-48-125-48T831.5-6 795 23q-20 29-20 109Q570-20 446-20q-183 0-280 122-90 112-90 300 0 154 96 294 89 133 235 214 70 39 147 60.5zM777 712q-45 72-117 109t-150 37-124-26.5-72-70.5q-45-76-45-190.5t20-192T352 242q94-127 275-127 39 0 77 23 73 42 73 79v495z"/><glyph glyph-name="e" unicode="e" horiz-adv-x="874" d="M834 185Q697 32 494-6q-47-8-116-8T248 24.5 148 124Q74 242 74 412q0 112 86 248 84 134 205 224 130 96 246 96 60 0 101-44 38-43 38-98t-24-101.5-62.5-90.5-88-84.5T474 486q-73-50-184-113 32-121 113-186.5T612 121q108 0 222 64zM532 586q27 43 27 84t-9 69.5-26 50.5q-39 50-101 50-152 0-152-310 0-55 9-109 176 49 252 165z"/><glyph glyph-name="f" unicode="f" horiz-adv-x="746" d="M382 310q0-100-63-174h294q-12-9-39-31.5T516 58Q439 0 419 0H104q50 40 63 79 21 58 21 127v651H62l126 99q0 207 10.5 273t29.5 113 54 91q66 84 218 184 142 95 270 95 72 0 165-38 47-19 47-39 0-27-92-97-86-65-124-69 20 20 20 32.5t-28 26.5-64 25q-80 24-113 24-70 0-112-13-82-114-86-336-1-60-1-115V993h375q-14-2-67-49-100-87-128-87H382V310z"/><glyph glyph-name="g" unicode="g" horiz-adv-x="971" d="M944 972q54 0 88 21-2-34-78-84-63-42-108-53 38-73 38-159t-33.5-153-84-118T657 337t-109.5-69-84-58-33.5-53.5 11.5-45.5T471 78q33-27 69.5-41t82-30T720-30.5t106-47 97-56.5q98-69 98-139T918-424Q763-547 516-593q-79-15-131.5-15t-90.5 3.5-78.5 11T136-574t-70 30q-69 40-69 91t19 89 50 70 70 58 79 48.5 77 42 64 37.5Q238-59 238 8t146 165q35 23 56 39-43-13-96.5-13T240 226.5 155 298q-71 91-71 217t94 239q83 99 221 164 131 61 254 61zM279 675q0-89 16-146.5T345 428q74-95 208-95 76 0 111 75 26 55 26 129 0 142-62 223.5T449 842t-143.5-39T279 675zM810.5-406q10.5 20 10.5 52.5t-37 65-96.5 60T400-124q-92-39-128-69-74-62-74-140 0-59 275-117 97-21 145-21t90 8 67 22.5 35.5 34.5z"/><glyph glyph-name="h" unicode="h" horiz-adv-x="1112" d="M348 218q0-100 58-100 20 0 61 17Q428 48 350 4q-40-23-85-20.5T200.5 8 170 61q-16 49-16 126v1142q0 106-37 141-17 16-43 16-43 0-94-14 122 96 368 251V806q125 110 256 150 48 15 93 15t85.5-14.5T855 916q71-59 71-147V260q0-132 64-146 18-4 38-4 31 0 87 25Q1032 29 922-4q-38-12-81.5-12T773 5t-33 53-9 70v448q0 153-47 206-43 50-159 50-155 0-173-212-4-54-4-100V218z"/><glyph glyph-name="i" unicode="i" horiz-adv-x="578" d="m372 1697 6-114v-52q0-48-12-58.5t-26-20.5q-56-40-162-108 5 100 5 103.5t-5 113.5zM581 123q-30-24-58.5-49T463 28q-72-47-138-47-62 0-87 19-51 38-51 140v474q0 108-39 140-18 15-39 15t-35.5-2.5T44 761t-31-6q50 39 93.5 70t74.5 52 86 59.5 114 69.5V300q0-102 13-129 28-55 124-55 26 0 63 7z"/><glyph glyph-name="j" unicode="j" horiz-adv-x="542" d="M374 1697q4-64 4-107v-66q0-45-15.5-57.5t-35-26.5-42.5-29.5-44.5-29-38-24T180 1344q3 33 3 92.5t-3 124.5zM60-375q-23-18-23-43.5T56-456t40-11h2q80 134 88 364 3 64 3 125v582q0 112-36 148-17 17-44 17-35 0-94-14 122 96 368 251V196q0-218-19.5-301.5T315-257t-70-130.5T152-498Q40-603-92-603q-64 0-64 48 0 31 32.5 57t57 42 48.5 30q62 36 78 51z"/><glyph glyph-name="k" unicode="k" horiz-adv-x="1067" d="M155 1337q0 150-88 150-26 0-86-15 41 31 86.5 65.5T160 1606q102 71 190 117l-1-918q112 100 249 147 46 16 81 16t62.5-12 47.5-32q43-45 43-101t-28-101.5-69-85.5q-58-58-171-131 14-15 44.5-49t69-76 82-87 82.5-82q90-85 118-85 70 0 138 39Q1012 47 887-1q-42-16-73.5-16t-50 7T728 8q-33 22-89 78-117 118-290 305V288q0-23-.5-52.5T354 179q14-64 70-64 21 0 44 10-21-18-48.5-43T361 34q-74-55-122-55-84 0-84 144v1214zm335-505q-141 0-141-361v-52q183 73 259 182 30 43 30 83.5t-12 66-32 43.5q-44 38-104 38z"/><glyph glyph-name="l" unicode="l" horiz-adv-x="552" d="M556 124q-33-26-63-52t-62-46q-71-46-147-46-110 0-120 152-2 41-2 80v1070q0 137-62 178-26 18-50 18-32 0-43-1.5t-19-2.5q144 100 182 120 50 27 103.5 53.5T356 1689V309q0-41 .5-76t11.5-61q25-54 126-54 32 0 62 6z"/><glyph glyph-name="m" unicode="m" horiz-adv-x="1565" d="M883 801q222 170 338 170 78 0 123-65 39-55 39-137V291q0-91 11-118 24-53 102-53 40 0 76 15-89-77-123-99-78-51-136.5-51t-83 20.5T1195 58q-11 35-11 144v377q0 110-20.5 157.5T1113 808t-70.5 24-62.5-12-38-31q-60-71-60-230V275q0-74 16-102 30-53 100-53 40 0 76 15-89-77-123-99-78-51-136.5-51t-83 20.5T697 58q-11 35-11 144v377q0 110-20.5 157.5T615 808t-72 24-65-16-39.5-42.5-26.5-60-16-68.5q-9-60-9-125V211q0-64 39-87 14-9 35-9t44 10Q390 26 343 3t-75-23q-76 0-76 88v576q0 35 1 70t-7 64q-19 63-109 63-43 0-86-16 26 9 67 47 80 72 111 84 64 23 107.5 23t66-16 32.5-41q12-31 12-120 130 103 252 151 46 18 83 18t65.5-14 48.5-38q41-49 47-118z"/><glyph glyph-name="n" unicode="n" horiz-adv-x="1143" d="m190 68 1 643q0 67-18 90-31 40-86 40t-98-16q26 10 68 47 77 71 109 83 60 24 105.5 24t68-15 32.5-40q13-31 13-118 187 165 350 165 89 0 155-56 69-60 69-146V275q0-74 16-102 30-53 100-53 40 0 76 15-89-77-123-99-78-51-136.5-51t-83 21T774 59q-11 35-11 143v374q0 179-117 236-42 20-101 20-145 0-157-215-3-54-3-97V211q0-64 39-87 14-9 35-9t44 10q-21-18-50-43t-61-48q-79-54-126-54-76 0-76 88z"/><glyph glyph-name="o" unicode="o" d="M1001.5 731.5Q1030 657 1030 582t-22-146.5T946.5 298t-93-123.5T736 74Q600-17 461-17q-163 0-277 127Q73 232 73 396q0 140 85 281 127 214 346 289 70 25 148 25t148.5-34.5T922 864t79.5-132.5zM449 857q-100 0-146-97-36-76-36-172t25.5-178.5T368 262q111-146 286-146 102 0 148 102 33 76 33 175 0 193-107.5 328.5T449 857z"/><glyph glyph-name="p" unicode="p" horiz-adv-x="1132" d="M-4 827q176 157 285 157 91 0 102-100 3-28 3-56 101 74 144 97 93 51 179.5 51t154-33.5T974 851q81-111 81-296 0-219-197-397Q740 51 590 6q-74-21-126.5-21T386-10v-286q0-110-70-176h244q-11-1-36-22.5T470-541q-80-67-104-67H122q69 91 69 216V717q0 66-16 88-29 41-82 41t-97-19zm390-563q85-146 260-146 184 0 208 182 8 55 8 128.5t-18 150T786 713q-89 127-266 127-79 0-134-91V264z"/><glyph glyph-name="q" unicode="q" horiz-adv-x="1178" d="M977-281q0-125-52-191h226q-11-1-36-22.5t-55-46.5q-79-67-104-67H703q79 117 79 216v516Q682 52 644 31q-87-48-166-48T324 16.5 193 108Q73 231 73 404q0 139 92 276 87 129 225 213 140 85 285.5 85T924 847q46 65 168 123 30 14 52 22-20-17-48.5-42t-54.5-66q-64-103-64-257v-908zM782 153q-1 112-1 270t6 197Q675 840 472 840q-174 0-197-170-7-52-7-128.5T297.5 385 381 246q117-128 296-128 49 0 68.5 12.5T782 153z"/><glyph glyph-name="r" unicode="r" horiz-adv-x="884" d="M970 972Q849 794 677 794q-28 0-72 22-84 42-113.5 42T444 839t-30-53q-27-74-27-192V211q0-64 39-87 14-9 35-9t44 10q-20-18-39-42.5T423 35q-57-55-135-55-40 0-68 25.5T192 68v576q0 35 1 70t-7 64q-19 63-109 63-43 0-86-16 26 9 67 47 80 72 111 84 64 23 103.5 23t61-11.5T367 936q20-33 20-102 29 22 63.5 49.5T522 936q89 59 155 59 39 0 82-22t64-32 39-10q40 0 108 41z"/><glyph glyph-name="s" unicode="s" horiz-adv-x="833" d="M512 776q19 14 19 30t-19 25-44 14q-39 8-72.5 8t-52-3.5T312 837q-28-19-28-67t21-78.5 55.5-51.5 78.5-35 89.5-27.5T618 548t78-42q77-56 77-154 0-97-93-190-79-79-208-134-120-52-214-52-114 0-183 48-25 18-25 46.5t26 52 61 44 70 39 53 39.5q-18-20-18-45t28-42.5 66-27.5q66-16 127-16t88.5 22.5T579 212t-21 86.5-55 57.5-78 40.5-89.5 32T246 460t-78 39q-76 51-76 133 0 78 92 167 80 76 167 119 149 72 225 72 79 0 114-17t35-29.5-8-22.5-19.5-18.5T674 887t-34-21-59-37.5-69-52.5z"/><glyph glyph-name="t" unicode="t" horiz-adv-x="682" d="m47 867 130 102v142q54 38 77 58t39 29 33 19q43 25 46 30v-244h320q-13-1-66-48-101-88-128-88H372V331q0-184 106-213 32-8 60-8 46 0 78 13.5t53 24.5Q608 55 498 6q-57-25-122.5-25T274 4t-58 60q-39 68-39 180v623H47z"/><glyph glyph-name="u" unicode="u" horiz-adv-x="1170" d="M670 828q161 145 236 145t75-96V242q0-60 27-90t90-30q44 0 86 16-33-12-59.5-37.5T1068 49q-75-65-171-65-92 0-105 102-3 29-4 59Q570-20 401-20 287-20 229 80q-52 90-52 246v337q0 87-15 118-28 62-101 62-35 0-71-15 122 109 198 138 37 15 77 15 109 0 109-139v-67l-1-373q0-143 53-210 58-76 193-76 66 0 137 57 18 14 32 24v528q0 74-36 102-15 11-37 11t-45-10z"/><glyph glyph-name="v" unicode="v" horiz-adv-x="1069" d="M1017 874q0-221-316-690-18-26-35.5-53.5t-31-43.5T605 59.5t-37-25-43.5-27T483-18q-46-31-47-35-41 168-85 333.5t-82 260T215.5 673 178 746q-51 84-115 84-35 0-81-27 141 166 283 166 105 0 225-373 50-156 76.5-259.5T603 194q142 223 198 412 22 73 22 135 0 91-70 91-25 0-59-12 34 13 60 37.5t52 48.5q66 61 138.5 61t72.5-93z"/><glyph glyph-name="w" unicode="w" horiz-adv-x="1532" d="M638 850q7 5 22.5 17.5t35 27.5 40.5 31.5 40 29.5q43 31 52.5 31t23.5-22 27.5-50.5 24-55T945 755q80-200 161-526 116 213 142.5 302t26.5 124.5-4.5 65T1256 776q-26 63-76 63-24 0-47-13 26 13 55 38t59 49q75 60 111 60t55.5-14 32.5-35q24-41 24-108t-26.5-152.5T1376 494q-50-105-121-218.5T1170 138t-24.5-37.5-23.5-24-32-23.5-41-28-42.5-28.5-37-24.5T945-44q-81 342-146 531-41-103-93-206.5t-65-133-23-44.5-23-25-32-23.5-41.5-29T478-4q-43-27-61-40-7 30-18 83.5T372 161t-35.5 145T293 458.5t-51 145T184 726Q118 842 52 842q-31 0-61-20 92 96 197 141 38 16 62 16 35 0 59.5-20.5T361 890t52.5-112T463 641.5 507 500q28-97 60-221 19 45 41 97t41 106q44 127 44 218t-55 150z"/><glyph glyph-name="x" unicode="x" horiz-adv-x="1090" d="M884 857Q764 690 638 539q62-94 122.5-190.5T864 200t66.5-69.5T974 113q34 0 73 30-33-73-111-119-72-43-155-43-44 0-77 41-63 76-117 160.5T479 350Q378 236 247 136h170q-17-4-64-46t-65-56Q245 0 223 0H-9Q4 9 17 17.5T44 37t30.5 28T108 98q40 38 77 38 15 0 86 77t98 106.5 47.5 53T444 404q-48 75-95.5 147.5t-78 119.5-47 76.5T186 804q-50 66-95 66-30 0-56-19 202 157 260 157 26 0 54.5-35.5t55.5-74 56.5-83.5 56.5-87 48.5-76.5T599 600q101 133 184 257H639q103 89 145 112.5t49 23.5h268q-101-87-144.5-111.5T906 857h-22z"/><glyph glyph-name="y" unicode="y" horiz-adv-x="1138" d="M792 712q0 128-72 128-24 0-46-10 113 97 161 120.5t81 23.5 52-23 19-59V302q0-335-165-604-115-187-304-266-95-40-211-40-99 0-156 44-21 17-21 36.5t13 36 33 33 45 32.5 49 30q60 37 77 51-25-20-25-43.5t23-40 53-26.5q58-19 120.5-19t111 32.5 79.5 86 47.5 121T780-98q8 74 12 250Q569-18 405-18q-114 0-172 74-52 67-52 184v402q0 202-116 202-37 0-71-14 120 107 198 138 37 14 75.5 14t60.5-14.5 33-37.5q17-37 17-112l-1-414q0-142 51-209 60-77 195-77 49 0 95.5 27t73.5 67v500z"/><glyph glyph-name="z" unicode="z" horiz-adv-x="910" d="m555 136 153-5q84 0 178 42-37-28-68-52-67-52-112-78Q631-2 506-2T257-1 8 0q64 43 86 65.5t37.5 43.5 31 44.5T192 200t43.5 71T312 401t98 162q117 187 231 292-48-3-97-3l-349 10q-68 0-137-6 13 10 40 32t57 44q75 57 103 61 35 5 132 5l348-10q60 0 118 4-81-50-142-132-87-114-185-283T411 376t-40.5-64.5T328 248q-48-66-103-112h330z"/><glyph glyph-name="braceleft" unicode="{" horiz-adv-x="871" d="m245 962-8 194q0 124 45 198t107.5 138T526 1604q161 102 331 102h24l24-2q-11-2-40-26.5t-49.5-42T776 1603q-46-35-66-35l-86 5q-60 0-101-13-53-71-67-115-23-68-23-158l7-183q0-177-114-280-38-35-89-72 188-89 188-240 0-51-11-114-22-118-22-185.5t30.5-141T506-58q116-119 283-119 43 0 76 7-14-11-40-32.5T770-246q-78-56-97-60-34-7-95.5-7T443-282.5 316-198Q196-81 196 80q0 41 12 108 25 130 25 177.5t-17 89-46 73.5q-50 54-154 100 33 13 95.5 63.5T193 755q52 76 52 207z"/><glyph glyph-name="bar" unicode="|" horiz-adv-x="531" d="M362-176q0-21-146-104-48-27-48-32v1876q48 38 68.5 53.5T261 1636t20 12.5 34 19.5q47 28 47 32V-176z"/><glyph glyph-name="braceright" unicode="}" horiz-adv-x="870" d="M634 641q-189 90-189 239 0 43 11 110 23 131 23 194t-30.5 137-84.5 129q-115 120-282 120-32 0-76-7 150 127 189 135t99.5 8 133-31 127.5-84q119-115 119-278 0-51-12-112-24-116-24-168.5t17-94 46-73.5q46-50 154-101-112-42-170.5-130T626 431l8-195q0-219-204-388-119-101-272-142-73-20-120.5-20t-71.5 3q12 1 65.5 47.5t82 67.5 46.5 21l87-5q60 0 101 13 75 98 86 193 4 35 4 79l-7 183q0 175 113 280 38 36 90 73z"/><glyph glyph-name="asciitilde" unicode="~" horiz-adv-x="1085" d="m811 744 13 1q31 41 83 68.5t77 41 39 31.5Q908 742 764 658q-85-50-148-50-58 0-135.5 69.5T343 747q-8 0-13-1-10-14-27-43.5t-46-49-61-37.5q-84-46-92-59 48 96 184 209 143 119 244 119 39 0 69.5-22t61.5-48.5 66-48.5 82-22z"/><glyph glyph-name="nonbreakingspace" horiz-adv-x="500"/><glyph glyph-name="exclamdown" unicode="¡" horiz-adv-x="551" d="m432 1299-194-136-105 166 194 136zM396 100q9 0 64 48v-13q-9-8-16.5-14.5t-14.5-13T404.5 87t-46-33.5T306 19q-78-49-100-49-42 0-42 94 0 43 18 362.5t32 576.5q1 10 47 35 93 51 99 60l3-942q0-56 33-56z"/><glyph glyph-name="cent" unicode="¢" horiz-adv-x="942" d="m415 76 1 98q0 17 1 18-146-8-241 101-88 99-88 234 0 202 209 354 59 43 119 82v173q0 18 59.5 53t80.5 47q51 30 54 36v-236q25 3 43 3t50-4.5 67-12.5q90-19 90-42 0-16-53-60t-77-60q-55-36-82-36 14 9 14 18t-15.5 16.5-39.5 14-53 12-56 9.5q-58 7-88.5 7T352 876.5 309 816q-30-68-30-146t26.5-139T378 426q97-94 242-94 82 0 194 49 20 9 23 9 0-14-73-61-116-75-154-91V84q-23-18-46-37t-38.5-29.5-31-19.5T462-21q-44-26-46-31v25z"/><glyph glyph-name="sterling" unicode="£" horiz-adv-x="1256" d="M1175 191Q938 0 859 0H212q59 59 74 92 26 56 26 142v347H65q159 136 194 136h51v139q0 156 14 224 28 142 110 208 125 100 194 134 124 60 261 60 90 0 152-19t78-28.5 16-24.5-24-39-57-47q-74-49-134-65v2q2 5 11 11t17 13q-13 30-179 54-56 8-86 8-68 0-132-16-38-72-43-178.5T504 985t1-108V717h222q68 0 162 59-65-68-132-110-114-69-251-81V318q0-58-52-147-14-24-27-35h566q96 0 182 55z"/><glyph glyph-name="currency" unicode="¤" horiz-adv-x="893" d="M324 1008q128 73 224.5 73t173.5-63q54 43 107.5 76.5T893 1131q-1-1-10.5-11.5t-24-25-31.5-32-32-33-27-27.5l-14-14q76-83 76-190t-96-213l136-133q-8-6-23-18t-34.5-27-41-31-39.5-30q-40-29-55-31L548 441q-109-59-198-59t-167 51q-12-9-35-26.5T100 371q-67-47-84-51l134 138q-55 49-79 141-7 27-7 55t3 56.5T78 764q16 51 63 98h-1L0 999q7 5 22.5 17t35.5 27 41.5 31 40.5 30q42 30 52 32zm222-495q90 0 90 150 0 119-85 203-85 83-204 83-89 0-89-140 0-130 79-213 80-83 209-83z"/><glyph glyph-name="yen" unicode="¥" horiz-adv-x="1437" d="M407 494q166 136 195 136h81q-56 171-199 412-103 172-204 250-53 41-101 41-57 0-122-49 96 114 223 160 44 15 88 15 83 0 142.5-69.5t115.5-155T733 1056q107-196 155-360 127 157 206 324 48 99 48 145.5t-8 73.5-24 47q-36 42-98 42-30 0-54-7 25 7 49 30.5t52 48.5q72 64 137 64t102-35.5 37-89.5-23.5-113.5-61-125-85-132.5-95-129.5T980 722t-73-92l163-1q73 0 161 60-57-95-179-151-62-29-151-34V397h169q74 0 161 59-71-92-193-150-64-30-147-36-20-81-60-135h321q-14-2-67-49Q986 0 958 0H609q57 61 74 106 26 71 26 155H407l39 31q127 105 156 105h107v97H407z"/><glyph glyph-name="brokenbar" unicode="¦" horiz-adv-x="545" d="M368 911q0-18-59.5-53T228 810q-51-29-54-35v789q0 18 59.5 53t80.5 47q51 30 54 36V911zm0-1087q0-18-59.5-53T228-276q-51-30-54-36v789q0 18 59.5 53t80.5 48q51 29 54 35v-789z"/><glyph glyph-name="section" unicode="§" horiz-adv-x="1201" d="M1031 466q81-71 81-186 0-124-116-245Q894-73 736-145q-153-70-275-70-185 0-303 47-82 34-82 86Q76-5 240 86q38 22 62 36-33-36-33-65t21.5-50T345-29t74.5-25T501-70q73-11 113.5-11t72.5 3 64 11.5 62 25T866 2q51 58 51 155 0 204-296 261-52 10-105 19-131 23-202.5 58t-119 104T147 756q0 129 98 227-72 51-97 147-7 29-7 73.5t33.5 103.5 89 112 125.5 98 143 78q155 70 265 70 162 0 223-46 14-11 14-24.5t-14.5-31.5-37-38-50-40-52.5-37q-55-38-73-42 33 26 33 45t-17.5 30.5T778 1501t-59.5 13.5-63.5 7.5q-56 5-101.5 5t-87.5-10.5-70-34.5q-59-51-59-164 0-129 106-198l2 2-2-2q58-37 187-61 339-63 440-229 38-62 38-163.5T1031 466zm-116 61 1 25q0 131-106 222-127 107-349 138-62 8-121 26-5-30-5-58 0-60 33.5-115t72-86 83-51.5 94-33.5T718 572q144-28 197-45z"/><glyph glyph-name="dieresis" unicode="¨" horiz-adv-x="802" d="m802 1381-194-137-152 142 195 136zm-456 0-194-137L0 1386l194 136z"/><glyph glyph-name="copyright" unicode="©" horiz-adv-x="1642" d="M1495.5 1050.5Q1545 946 1545 835t-35-207-95-182.5-141-160T1101 158Q904 44 716 44q-269 0-440 156-176 161-176 429 0 199 130 383 118 168 317 276 194 105 394 105 244 0 421-162 84-76 133.5-180.5zM1350 701q0 117-50.5 220.5T1164 1098q-179 155-427 155-346 0-419-292-23-92-23-214.5T344 517t134-183q175-158 435-158 223 0 337 151 100 134 100 374zM945 917l14 18q0 21-119 31-19 1-34 1h-22q-91-5-137.5-51.5t-46.5-133 26-139 70-89.5q89-75 211.5-75t224.5 55q-57-51-101-88t-91-61q-89-46-241-46-127 0-210 85-82 83-82 210 0 116 101 232 88 101 228 171 136 67 250 67 152 0 173-33-29-40-187-140-18-11-27-14z"/><glyph glyph-name="ordfeminine" unicode="ª" horiz-adv-x="989" d="M576 838q-145-89-251-89-91 0-128 55-13 20-13 47.5t16 55.5 41.5 55 58 52 64.5 45q87 55 136.5 63.5T576 1133q-2 101-28.5 135.5T488 1316t-91 13-118-26q95 81 138 107 93 55 175 55t129.5-43.5T769 1297l1-286q0-90 19.5-111t38.5-21q27 0 55 10-28-10-53.5-33.5T776 808q-70-63-135-63t-65 93zM88 470q166 136 194 136h572q-13-1-66-48-101-88-128-88H88zm488 530q-52 16-90 16-70 0-106-19-1-4-1-22.5t11-38 30-31.5q33-22 78-22t78 6v111z"/><glyph glyph-name="guillemotleft" unicode="«" horiz-adv-x="1238" d="M1123 256q-11 0-195-136-68 57-116 95.5t-78.5 63T672 326q-72 55-112 83 22 16 52 39 53 39 103.5 72.5t76 54.5 49.5 44q26 25 66 69t63.5 62 49.5 34.5 52.5 31.5 47.5 27Q979 681 767 536q232-160 356-280zm-500 0q-11 0-195-136-68 57-116 95.5t-78.5 63T172 326q-72 55-112 83 22 16 52 39 53 39 103.5 72.5t76 54.5 49.5 44q26 25 66 69t63.5 62 49.5 34.5 52.5 31.5 47.5 27Q479 681 267 536q232-160 356-280z"/><glyph glyph-name="logicalnot" unicode="¬" horiz-adv-x="1444" d="M114 708q166 136 194 136h1048q-67-64-82-113-24-76-24.5-202.5T1252 311l-202-136v228q0 152 52 237 21 35 55 68H114z"/><glyph glyph-name="uni00AD" unicode="­" horiz-adv-x="765" d="M638 615q-12-1-65.5-47.5t-82-67.5-46.5-21H138q12 1 65.5 47.5t82 67.5 46.5 21h306z"/><glyph glyph-name="registered" unicode="®" horiz-adv-x="1641" d="M1545 814q0-90-34.5-185.5T1416 447t-140.5-160T1102 159Q906 44 716 44q-272 0-442 159-174 162-174 426 0 201 129 384 120 170 317 275 196 105 395 105 245 0 422-163 182-167 182-416zm-609 8q0 36-23.5 64.5T853 930q-57 25-155 25V751h119q85 0 102 17.5t17 53.5zM485 329q184-153 428-153 220 0 333 147 104 135 104 368 0 245-184 407-177 155-429 155-344 0-419-290-23-92-23-213 0-254 179-411 30 39 30 125v491H400q166 136 195 136h242q187 0 261-74 30-30 29-71t-20.5-71.5T1059 818q-38-36-117-87 62-24 165-149 97-118 132-118 17 0 43 15-36-81-122-125-45-22-89.5-22t-62 13-36.5 34.5-48.5 60.5-63.5 76q-83 89-159 89 0-64-35-138 9-3 54-3t67.5.5 30.5.5q-13-2-41.5-27T728 395.5 689 364q-45-35-66-35H485z"/><glyph glyph-name="macron" unicode="¯" horiz-adv-x="916" d="M916 1463q-13-2-41.5-27t-48.5-42.5-39-32.5q-44-35-65-35H0q10 1 64.5 48t83 68 46.5 21h722z"/><glyph glyph-name="degree" unicode="°" horiz-adv-x="683" d="M535 1086Q404 981 347 957t-91-24q-70 0-120 42-52 43-52 103.5t21.5 97.5 53 63.5 66 53T296 1343q88 56 149 56 67 0 119-48 51-48 51-122.5T535 1086zm-118-18q4 16 4 37.5t-11 50-30 50.5q-39 49-99 57-3-12-3-33t10-50 28-52q41-52 101-60z"/><glyph glyph-name="plusminus" unicode="±" horiz-adv-x="1110" d="M1010 615q-13-1-66-48-101-88-128-88H649V313q0-13-35-35.5T554.5 240 508 212q-51-29-53-35v302H94q14 1 66 48 101 88 128 88h167v165q0 18 59.5 53t81.5 48q50 30 53 35V615h361zm0-479q-13-1-66-48Q843 0 816 0H94q12 1 65.5 47.5t82 67.5 46.5 21h722z"/><glyph glyph-name="twosuperior" unicode="²" horiz-adv-x="889" d="M770 1360q21-37 21-90.5t-21.5-100-57-87.5-80.5-77-92-69-92-64-80-62q-79-67-79-126h495q-12-1-65.5-47.5t-82-67.5-46.5-21H98q0 49 49 117t88.5 105 81.5 65 82.5 52.5T476 936t62 54q59 65 59 155 0 83-77 135-67 45-155 45h-13q-7 0-13-1-15-35-15-61.5t3.5-42 7.5-29 7.5-23 3.5-12.5-12.5-13.5-32-24-43-29T214 1061q-39-23-63-37-22 42-22 88 0 85 71 156 198 192 349 192 163 0 221-100z"/><glyph glyph-name="threesuperior" unicode="³" horiz-adv-x="896" d="M154 1304q166 136 195 136h454q-64-92-146-168t-169-146q151-5 210.5-34t89.5-72 30-98.5-12.5-86T772 779q-46-59-186-149-146-93-285-93-158 0-213 45-14 11-14 29.5t27 42 62.5 45.5 70.5 42 51 36q-18-18-18-37t29-32.5 68-21.5q64-12 111-12 77 0 137 14 13 33 13 92.5T595 884t-78 67q-70 34-225 39 31 27 60 52 56 47 105 97 76 78 150 165H154z"/><glyph glyph-name="acute" unicode="´" horiz-adv-x="482" d="M2 1247v12q79 52 137 119 70 81 155 196 1 2 57 43t62 45.5 19 11.5 25 14 26 15q-27-35-56.5-75.5T349 1534q-105-116-201.5-188T2 1247z"/><glyph glyph-name="mu" unicode="µ" horiz-adv-x="1324" d="m1074 877-2-635q0-60 27.5-90t89.5-30q44 0 86 16-33-12-59.5-37.5T1159 49q-75-65-171-65-94 0-105 108-3 30-4 60Q662-94 465 25v-467q0-18-95-74-98-56-100-62V596q0 35 .5 78t-8.5 80q-23 89-110 89-35 0-71-15 122 109 198 138 37 15 77 15 109 0 109-139v-67l-1-363q0-143 52-210 59-76 194-76 89 0 134 36 18 15 35 38v525q0 74-37 102-14 11-36 11t-45-10q161 145 237 145t76-96z"/><glyph glyph-name="paragraph" unicode="¶" horiz-adv-x="1398" d="M905 640q-64-50-102-65V37q0-20-137-96-52-29-58-40v628q-15-2-30-2h-67l-138 27-153 79Q70 748 70 935q0 215 248 385 157 108 300 117 46 3 92 3h619q-166-136-194-136h-36V37q0-20-135-96-53-29-59-40v739zm-102 25q43 3 102 17v622H803V665zm-221 640-44 1q-130 0-177.5-26t-72.5-72-25-127.5T288 927t70-127q101-121 250-121v626h-26z"/><glyph glyph-name="periodcentered" unicode="·" horiz-adv-x="489" d="M397 706 203 570 98 737l194 136z"/><glyph glyph-name="cedilla" unicode="¸" horiz-adv-x="399" d="M382 88q-73-75-98-101.5t-34-36T234-66l-17-17q-9-9-24-25 6 6 24 9t42 6.5 58-3 55-24.5q50-40 7-117-61-108-338-264 26 26 57 46.5t55 36.5 36.5 42.5T204-320q7 104-127 93-37-3-72-14-8-3-2 3L193-40l44 33q18 14 38 28.5T305 43t22 14l24 14q31 18 31 17z"/><glyph glyph-name="onesuperior" unicode="¹" horiz-adv-x="676" d="m228 777-1 301v258l-80-58q-15-11-29.5-21T92 1239q-26-18-28-18v11q0 9 51 43.5t71 48.5q41 28 52 34 14 9 76.5 46t107.5 63V865q0-116-77-160h307q-11 0-60-43t-68-58q-46-35-66-35H148q24 34 39.5 54t24.5 39q16 34 16 115z"/><glyph glyph-name="ordmasculine" unicode="º" horiz-adv-x="981" d="M899.5 1286q23.5-52 23.5-105.5T901 1077t-59-96.5-85.5-86.5T656 824q-114-65-188.5-65T340 778t-94 54q-89 77-89 194 0 150 164 294 98 86 209 122 54 17 108 17t106-22.5 92-60.5 63.5-90zM884 606q-16-4-63.5-45.5T754 504q-43-34-64-34H118q12 9 39.5 31.5T216 548q75 58 96 58h572zM640 890q89 0 89 150 0 119-85 202-85 84-203 84-89 0-89-140 0-125 82-210 82-86 206-86z"/><glyph glyph-name="guillemotright" unicode="»" horiz-adv-x="1236" d="M612 707q7 0 194 136 243-201 369-290-76-56-110.5-80.5T999 428t-56.5-41-49.5-44-46-47.5-40.5-44.5-42-38-50-35-52.5-31.5-47-26.5q137 159 352 307-234 164-355 280zm-500 0q7 0 194 136 243-201 369-290-76-56-110.5-80.5T499 428t-56.5-41-49.5-44-46-47.5-40.5-44.5-42-38-50-35-52.5-31.5-47-26.5q137 159 352 307-234 164-355 280z"/><glyph glyph-name="onequarter" unicode="¼" horiz-adv-x="1811" d="m1540 338 59 1q63 0 151 46 9 5-4-5-117-96-165.5-122.5T1497 221q-12-44-53-85h211q-39-32-64-50.5T1559.5 62 1540 46.5 1513 26q-34-26-53-26h-224q72 47 72 129v72l-529 1q7 0 74.5 57.5t102 86.5 85.5 79.5 97 104.5q90 105 170 234 16 25 49.5 45.5t51 32.5 43.5 26.5 50 31.5V338h38zm-244 1299q-82-412-360-913Q618 158 404-65q-33-33-76-56-81-43-113-73Q581 246 862 819q168 343 232 643 2 11 2.5 19.5t7 22.5 32 32 56 35.5 59.5 34 45 31.5zM252 777l-1 301v258l-80-58q-15-11-29.5-21t-25.5-18q-26-18-28-18v11q0 9 51 43.5t71 48.5q41 28 52 34 14 9 76.5 46t107.5 63V865q0-116-77-160h307q-11 0-60-43t-68-58q-46-35-66-35H172q24 34 39.5 54t24.5 39q16 34 16 115zm1056-439v302q-141-158-329-302h329z"/><glyph glyph-name="onehalf" unicode="½" horiz-adv-x="1770" d="M1664 812q22-37 22-90.5t-21.5-100-57-87.5-80.5-77-92-69-92-64-81-62q-78-67-78-126h495q-14-2-62-44t-67-57q-46-35-66-35H993q0 50 49 118t88.5 104.5T1212 287t82.5 52.5T1371 388t63 54q58 65 58 155 0 85-77 135-69 46-156 46-12 0-26-2-15-35-15-61.5t3.5-42 7.5-29 7.5-23 3.5-12.5-12.5-13.5-32-24T1153 542t-45-28q-31-20-62-38-22 42-22 88 0 87 71 156 198 192 349 192 161 0 220-100zm-385 825q-82-412-360-913Q601 158 387-65q-33-33-76-56-81-43-113-73Q564 246 844 819q169 343 233 643 2 11 2.5 19.5t7 22.5 32 32 56 35.5 59.5 34 45 31.5zM235 777l-1 301v258l-80-58q-15-11-29.5-21T98 1239q-25-18-27-18v11q0 9 51 43.5t70 48.5q42 28 53 34 14 9 76.5 46t107.5 63V865q0-116-77-160h307q-11 0-60-43t-69-58q-45-35-65-35H155q24 34 39.5 54t24.5 39q16 34 16 115z"/><glyph glyph-name="threequarters" unicode="¾" horiz-adv-x="1939" d="m1668 338 59 1q63 0 151 46 9 5-4-5-117-96-165.5-122.5T1625 221q-12-44-53-85h211q-39-32-64-50.5T1687.5 62 1668 46.5 1641 26q-34-26-53-26h-224q72 47 72 129v72l-529 1q7 0 74.5 57.5t102 86.5 85.5 79.5 97 104.5q90 105 170 234 16 25 49.5 45.5t51 32.5 43.5 26.5 50 31.5V338h38zm-243 1299q-81-409-361-913Q746 158 532-65q-33-33-76-56-81-43-113-73Q709 246 990 819q168 343 232 643 2 11 2.5 19.5t7 22.5 32 32 56 35.5 60 34 45.5 31.5zM167 1304q166 136 195 136h454q-64-92-146-168t-169-146q151-5 210.5-34t89.5-72 30-98.5-12.5-86T786 779q-47-59-187-149-146-93-285-93-158 0-214 45-13 11-13 29.5t27 42 62.5 45.5 70.5 42 51 36q-18-18-18-37t29-32.5 67-21.5q65-12 112-12 77 0 137 14 13 33 13 92.5T608 884t-78 67q-70 34-225 39 31 27 61 52 55 47 104 97 76 78 150 165H167zm1269-966v302q-141-158-329-302h329z"/><glyph glyph-name="questiondown" unicode="¿" horiz-adv-x="1042" d="m682 1308-194-136-105 166 195 136zm93-969q0 69-37 139l194 136q37-71 37-146 0-146-109-255Q698 51 518-8q-65-22-131-22T262.5-4.5 162 66q-91 94-91 229 0 142 121 267 34 35 70 68.5t70 66 61 67.5q60 79 60 163l-7 57q0 18 36 40t61 35.5 47 24.5q50 28 50 36 8-30 8-71t-22-85.5-55-84.5-72.5-75-73-67-63.5-70-52-81q-49-91-49-170.5t28.5-135T365 186q97-79 232-79 68 0 121 57 57 62 57 175z"/><glyph glyph-name="Agrave" unicode="À" horiz-adv-x="1403" d="M162 135q7 1 80 1 125 0 184.5 19t85.5 35q-37-28-68-52-67-52-107.5-75T256 27.5 174 9Q112 0 5 0h-39q1 1 1.5 2t14 16T21 61.5 90 147t93.5 147 94 183.5T361 667t82.5 192.5 86.5 195 66.5 154.5 26 70 11.5 24h-76q-186 0-289-42 138 120 231 151 85 27 276 27h53q43-143 86.5-290t87.5-294q96-320 144.5-464t57-171.5T1226 170q29-48 93-48 35 0 73.5 16t59.5 29q-36-27-64-49-72-55-92-67.5T1256 26t-42-22q-140-62-189 47-35 77-84 246.5T854 586q-84-60-366-56h-62Q313 304 206 185q-9-10-18-21-26-30-26-29zm342 534 198-4q62 0 126 4-46 146-137 447-99-227-201-450 12 3 14 3zm402 1006q-11-8-38.5-30t-58.5-46q-80-60-97-60-3 0-16 9-94 62-155 131t-111 147l-18 29q0 11 79 65 106 71 113 71t8-5 9-19q60-102 138-177.5T906 1675z"/><glyph glyph-name="Aacute" unicode="Á" horiz-adv-x="1403" d="M162 135q7 1 80 1 125 0 184.5 19t85.5 35q-37-28-68-52-67-52-107.5-75T256 27.5 174 9Q112 0 5 0h-39q1 1 1.5 2t14 16T21 61.5 90 147t93.5 147 94 183.5T361 667t82.5 192.5 86.5 195 66.5 154.5 26 70 11.5 24h-76q-186 0-289-42 138 120 231 151 85 27 276 27h53q43-143 86.5-290t87.5-294q96-320 144.5-464t57-171.5T1226 170q29-48 93-48 35 0 73.5 16t59.5 29q-36-27-64-49-72-55-92-67.5T1256 26t-42-22q-140-62-189 47-35 77-84 246.5T854 586q-84-60-366-56h-62Q313 304 206 185q-9-10-18-21-26-30-26-29zm342 534 198-4q62 0 126 4-46 146-137 447-99-227-201-450 12 3 14 3zm15 830v12q79 52 137 119 70 81 155 196 1 2 57 43t62 45.5 19 11.5 25 14 26 15q-27-35-56.5-75.5T866 1786q-105-116-201.5-188T519 1499z"/><glyph glyph-name="Acircumflex" unicode="Â" horiz-adv-x="1403" d="M162 135q7 1 80 1 125 0 184.5 19t85.5 35q-37-28-68-52-67-52-107.5-75T256 27.5 174 9Q112 0 5 0h-39q1 1 1.5 2t14 16T21 61.5 90 147t93.5 147 94 183.5T361 667t82.5 192.5 86.5 195 66.5 154.5 26 70 11.5 24h-76q-186 0-289-42 138 120 231 151 85 27 276 27h53q43-143 86.5-290t87.5-294q96-320 144.5-464t57-171.5T1226 170q29-48 93-48 35 0 73.5 16t59.5 29q-36-27-64-49-72-55-92-67.5T1256 26t-42-22q-140-62-189 47-35 77-84 246.5T854 586q-84-60-366-56h-62Q313 304 206 185q-9-10-18-21-26-30-26-29zm342 534 198-4q62 0 126 4-46 146-137 447-99-227-201-450 12 3 14 3zm586 995q-171-137-190-137-7 0-101.5 103.5T700 1739l-83-79q-11-10-27-18.5t-39-23.5q-93-58-123-86l250 237q34 34 94 75 85 58 90 58t21-16 39-41 50.5-54.5 52-55.5 42.5-46 23-25z"/><glyph glyph-name="Atilde" unicode="Ã" horiz-adv-x="1403" d="M162 135q7 1 80 1 125 0 184.5 19t85.5 35q-37-28-68-52-67-52-107.5-75T256 27.5 174 9Q112 0 5 0h-39q1 1 1.5 2t14 16T21 61.5 90 147t93.5 147 94 183.5T361 667t82.5 192.5 86.5 195 66.5 154.5 26 70 11.5 24h-76q-186 0-289-42 138 120 231 151 85 27 276 27h53q43-143 86.5-290t87.5-294q96-320 144.5-464t57-171.5T1226 170q29-48 93-48 35 0 73.5 16t59.5 29q-36-27-64-49-72-55-92-67.5T1256 26t-42-22q-140-62-189 47-35 77-84 246.5T854 586q-84-60-366-56h-62Q313 304 206 185q-9-10-18-21-26-30-26-29zm342 534 198-4q62 0 126 4-46 146-137 447-99-227-201-450 12 3 14 3zm667 1111q-208-239-406-239-61 0-96.5 23t-53.5 38.5-39 29.5q-46 32-105 32-60 0-225-129 140 203 328 254 43 11 87 11t75.5-19.5T800 1738q86-62 166-62 57 0 156 73 25 18 49 31z"/><glyph glyph-name="Adieresis" unicode="Ä" horiz-adv-x="1403" d="M162 135q7 1 80 1 125 0 184.5 19t85.5 35q-37-28-68-52-67-52-107.5-75T256 27.5 174 9Q112 0 5 0h-39q1 1 1.5 2t14 16T21 61.5 90 147t93.5 147 94 183.5T361 667t82.5 192.5 86.5 195 66.5 154.5 26 70 11.5 24h-76q-186 0-289-42 138 120 231 151 85 27 276 27h53q43-143 86.5-290t87.5-294q96-320 144.5-464t57-171.5T1226 170q29-48 93-48 35 0 73.5 16t59.5 29q-36-27-64-49-72-55-92-67.5T1256 26t-42-22q-140-62-189 47-35 77-84 246.5T854 586q-84-60-366-56h-62Q313 304 206 185q-9-10-18-21-26-30-26-29zm342 534 198-4q62 0 126 4-46 146-137 447-99-227-201-450 12 3 14 3zm606 1007-194-137-152 142 195 136zm-456 0-194-137-152 142 194 136z"/><glyph glyph-name="Aring" unicode="Å" horiz-adv-x="1401" d="M440 1387q-38 49-38 100.5t19 93 50.5 80.5 72.5 74 86 61q97 57 155.5 57t96.5-16 67-44q63-61 63-145 0-91-106-192-32-30-68-56 85-279 169-565t135.5-437 60-178.5T1224 170q29-48 93-48 51 0 89 20.5t42 22.5Q1228-18 1125-18q-50 0-72 24-44 52-103.5 256.5T852 586q-84-60-366-56h-62Q311 304 204 185q-9-10-18-21-26-30-26-29 7 1 79 1t120.5 8 81 17.5T490 180l19 9q-2-1-12-9t-25.5-20-35-26.5T398 105q-72-55-128-72.5T172 9Q110 0 3 0h-39q5 7 43 48.5T88 147t93.5 147 94 183.5T359 667t82.5 192.5 86.5 195 66.5 154.5 26 70 11.5 24h-76q-186 0-289-42 101 89 173 126zm62-718 198-4q62 0 126 4-46 146-137 447-99-227-201-450 12 3 14 3zm302 771q13 35 13 71t-12.5 69.5T770 1642q-58 76-148 76-22 0-24-26-2-13-2-47t15.5-73 42.5-68q59-62 150-64zM509 189l1 1zm939-24 2 2z"/><glyph glyph-name="AE" unicode="Æ" horiz-adv-x="1862" d="M164 135q7 1 80 1 125 0 184.5 19t85.5 35q-37-28-68-52-67-52-107.5-75T258 27.5 176 9Q114 0 7 0h-39q1 1 1.5 2t14 16T23 61.5 92 147t93.5 147 94 183.5T363 667t82.5 192.5 86.5 195 66.5 154.5 26 70 11.5 24h-76q-186 0-289-42 138 120 231 151 85 27 276 27h878q-13-1-66.5-47.5T1508 1324t-46-21H871l72-242 73-243h476q-11-1-28-22.5t-36-46.5q-53-67-80-67h-290q119-392 141-434t40-63q42-49 101-49h365q57 0 162 44l19 8q-51-61-218-150-72-38-98-38h-364q-154 0-197 114-42 118-78.5 235.5T856 586q-85-60-365-56h-63Q315 304 208 185q-9-10-18-21-26-30-26-29zm342 534 198-4q62 0 126 4-46 146-137 447-99-227-201-450 12 3 14 3z"/><glyph glyph-name="Ccedilla" unicode="Ç" horiz-adv-x="1391" d="M1342.5 1432q19.5-9 19.5-17.5t-16-23.5-40-33.5-53-39.5-55-38q-62-41-74-45 1 4 15 15 26 21 26 26.5t-4.5 9-10 6-10.5 4.5-38 14q-79 31-227 31t-255.5-34.5T437 1202q-155-145-155-422 0-281 154-475Q602 97 872 97q179 0 439 114-8-7-15-13-10-11-25-23Q1029-7 767-37l-68-70q7 5 24.5 8t41.5 6.5 58-3 55-24.5q50-40 7-117-61-108-338-264 26 26 57 46.5t55 36.5 36.5 42.5T710-320q7 104-127 93-37-3-72-14-8-3-2 3L696-42q-7-1-14-1h-14q-269 0-430 203Q89 349 89 629q0 144 42.5 243.5T231 1050t129.5 144 157 118.5T693 1402q187 76 377 76 107 0 180-18.5t92.5-27.5z"/><glyph glyph-name="Egrave" unicode="È" horiz-adv-x="1132" d="M56 1303q166 136 194 136h826q-11-1-65-47.5t-82.5-67.5-46.5-21H438V818h485q-11-1-36-22.5T832 749q-79-67-104-67H438V356q0-111-34-182-13-28-34-38h556q57 0 118 26l62 26q-51-61-218-150-72-38-97-38H153q90 122 90 239v443H103q87 70 140 109v512H56zm722 371q-11-8-38.5-30t-58.5-46q-80-60-97-60-3 0-16 9-94 62-155 131t-111 147l-18 29q0 11 79 65 106 71 113 71t8-5 9-19q60-102 138-177.5T778 1674z"/><glyph glyph-name="Eacute" unicode="É" horiz-adv-x="1132" d="M56 1303q166 136 194 136h826q-11-1-65-47.5t-82.5-67.5-46.5-21H438V818h485q-11-1-36-22.5T832 749q-79-67-104-67H438V356q0-111-34-182-13-28-34-38h556q57 0 118 26l62 26q-51-61-218-150-72-38-97-38H153q90 122 90 239v443H103q87 70 140 109v512H56zm385 187v12q79 52 137 119 70 81 155 196 1 2 57 43t62 45.5 19 11.5 25 14 26 15q-27-35-56.5-75.5T788 1777q-105-116-201.5-188T441 1490z"/><glyph glyph-name="Ecircumflex" unicode="Ê" horiz-adv-x="1132" d="M56 1303q166 136 194 136h826q-11-1-65-47.5t-82.5-67.5-46.5-21H438V818h485q-11-1-36-22.5T832 749q-79-67-104-67H438V356q0-111-34-182-13-28-34-38h556q57 0 118 26l62 26q-51-61-218-150-72-38-97-38H153q90 122 90 239v443H103q87 70 140 109v512H56zm906 365q-171-137-190-137-7 0-101.5 103.5T572 1743l-83-79q-11-10-27-18.5t-39-23.5q-93-58-123-86l250 237q34 34 94 75 85 58 90 58t21-16 39-41 50.5-54.5 52-55.5 42.5-46 23-25z"/><glyph glyph-name="Edieresis" unicode="Ë" horiz-adv-x="1132" d="M56 1303q166 136 194 136h826q-11-1-65-47.5t-82.5-67.5-46.5-21H438V818h485q-11-1-36-22.5T832 749q-79-67-104-67H438V356q0-111-34-182-13-28-34-38h556q57 0 118 26l62 26q-51-61-218-150-72-38-97-38H153q90 122 90 239v443H103q87 70 140 109v512H56zm926 374-194-137-152 142 195 136zm-456 0-194-137-152 142 194 136z"/><glyph glyph-name="Igrave" unicode="Ì" horiz-adv-x="734" d="M60 1303q166 136 194 136h456q-13-2-61-44t-68-57q-45-35-65-35h-74V388q0-173-72-252h321q-14-2-62-44t-68-57Q516 0 496 0H157q53 53 67 90 23 59 23 149v1064H60zm512 373q-11-8-38.5-30t-58.5-46q-80-60-97-60-3 0-16 9-94 62-155 131T96 1827l-18 29q0 11 79 65 106 71 113 71t8-5 9-19q60-102 138-177.5T572 1676z"/><glyph glyph-name="Iacute" unicode="Í" horiz-adv-x="735" d="M60 1303q166 136 194 136h456q-13-2-61-44t-68-57q-45-35-65-35h-74V388q0-173-72-252h321q-14-2-62-44t-68-57Q516 0 496 0H157q53 53 67 90 23 59 23 149v1064H60zm194 231v12q79 52 137 119 70 81 155 196 1 2 57 43t62 45.5 19 11.5 25 14 26 15q-27-35-56.5-75.5T601 1821q-105-116-201.5-188T254 1534z"/><glyph glyph-name="Icircumflex" unicode="Î" horiz-adv-x="735" d="M60 1303q166 136 194 136h456q-13-2-61-44t-68-57q-45-35-65-35h-74V388q0-173-72-252h321q-14-2-62-44t-68-57Q516 0 496 0H157q53 53 67 90 23 59 23 149v1064H60zm656 374q-171-137-190-137-7 0-101.5 103.5T326 1752l-83-79q-11-10-27-18.5t-39-23.5q-93-58-123-86l250 237q34 34 94 75 85 58 90 58t21-16 39-41 50.5-54.5 52-55.5 42.5-46 23-25z"/><glyph glyph-name="Idieresis" unicode="Ï" horiz-adv-x="735" d="M60 1303q166 136 194 136h456q-13-2-61-44t-68-57q-45-35-65-35h-74V388q0-173-72-252h321q-14-2-62-44t-68-57Q516 0 496 0H157q53 53 67 90 23 59 23 149v1064H60zm727 374-194-137-152 142 195 136zm-456 0-194-137-152 142 194 136z"/><glyph glyph-name="Eth" unicode="Ð" horiz-adv-x="1554" d="M1459 784q0-123-39.5-232t-108-197T1150 200.5 950 90Q736 0 497 0H175q76 79 76 285v334H31q12 1 65.5 47.5t82 67.5 46.5 21h26v548H31q16 4 68 50 99 86 126 86l444 1q332 0 547-150 243-169 243-506zm-227-371q34 96 34 226.5T1239.5 869t-76.5 172.5-122 123.5-163 81q-172 57-433 57V755h302q-13-1-66-48-101-88-128-88H445V339q0-102-31-155-12-21-33-51h333q417 0 518 280z"/><glyph glyph-name="Ntilde" unicode="Ñ" horiz-adv-x="1824" d="M1401 343q23 266 23 504.5t-19 455.5h-178q12 9 39.5 31.5t57.5 45.5q76 59 97 59h377q-22-7-67.5-48t-71-61-50.5-26q2-24 2-48v-48l-3-223q0-368-79-778-2-10-4-24t-5-29q-5-35-12-50.5t-27-35-44-38.5q-28-24-85-64-12 75-86 167-357 446-805 944V584q0-293-45-379-25-45-46-69h323q-12-9-39.5-31.5T596 58Q520 0 499 0H170q86 124 98 326 4 58 4 318.5T250 1303H23q12 9 39.5 31.5T120 1380q76 59 97 59h377q-26-9-52-34t-35-33q268-284 456.5-507.5t272.5-321T1401 343zm-28 1440q-208-239-406-239-61 0-96.5 23t-53.5 38.5-39 29.5q-46 32-105 32-60 0-225-129 140 203 328 254 43 11 87 11t75.5-19.5 63.5-42.5q86-62 166-62 57 0 156 73 25 18 49 31z"/><glyph glyph-name="Ograve" unicode="Ò" horiz-adv-x="1756" d="M1673 834q0-103-35-215.5t-96.5-215T1395 212 1210 58Q996-81 773-81q-315 0-499 183Q89 285 89 599q0 237 131 445 124 199 332 318 211 121 449 121 274 0 471-181 201-185 201-468zm-195-160q0 139-48.5 265.5T1292 1156q-186 187-495 187-403 0-487-339-26-107-26-254t45.5-278.5T463 246Q647 51 971 51q259 0 391 180 116 158 116 443zm-400 1035q-11-8-38.5-30t-58.5-46q-80-60-97-60-3 0-16 9-94 62-155 131t-111 147l-18 29q0 11 79 65 106 71 113 71t8-5 9-19q60-102 138-177.5t147-114.5z"/><glyph glyph-name="Oacute" unicode="Ó" horiz-adv-x="1756" d="M1673 834q0-103-35-215.5t-96.5-215T1395 212 1210 58Q996-81 773-81q-315 0-499 183Q89 285 89 599q0 237 131 445 124 199 332 318 211 121 449 121 274 0 471-181 201-185 201-468zm-195-160q0 139-48.5 265.5T1292 1156q-186 187-495 187-403 0-487-339-26-107-26-254t45.5-278.5T463 246Q647 51 971 51q259 0 391 180 116 158 116 443zm-787 886v12q79 52 137 119 70 81 155 196 1 2 57 43t62 45.5 19 11.5 25 14 26 15q-27-35-56.5-75.5T1038 1847q-105-116-201.5-188T691 1560z"/><glyph glyph-name="Ocircumflex" unicode="Ô" horiz-adv-x="1756" d="M1673 834q0-103-35-215.5t-96.5-215T1395 212 1210 58Q996-81 773-81q-315 0-499 183Q89 285 89 599q0 237 131 445 124 199 332 318 211 121 449 121 274 0 471-181 201-185 201-468zm-195-160q0 139-48.5 265.5T1292 1156q-186 187-495 187-403 0-487-339-26-107-26-254t45.5-278.5T463 246Q647 51 971 51q259 0 391 180 116 158 116 443zm-216 1021q-171-137-190-137-7 0-101.5 103.5T872 1770l-83-79q-11-10-27-18.5t-39-23.5q-93-58-123-86l250 237q34 34 94 75 85 58 90 58t21-16 39-41 50.5-54.5 52-55.5 42.5-46 23-25z"/><glyph glyph-name="Otilde" unicode="Õ" horiz-adv-x="1756" d="M1673 834q0-103-35-215.5t-96.5-215T1395 212 1210 58Q996-81 773-81q-315 0-499 183Q89 285 89 599q0 237 131 445 124 199 332 318 211 121 449 121 274 0 471-181 201-185 201-468zm-195-160q0 139-48.5 265.5T1292 1156q-186 187-495 187-403 0-487-339-26-107-26-254t45.5-278.5T463 246Q647 51 971 51q259 0 391 180 116 158 116 443zm-135 1142q-208-239-406-239-61 0-96.5 23t-53.5 38.5-39 29.5q-46 32-105 32-60 0-225-129 140 203 328 254 43 11 87 11t75.5-19.5T972 1774q86-62 166-62 57 0 156 73 25 18 49 31z"/><glyph glyph-name="Odieresis" unicode="Ö" horiz-adv-x="1756" d="M1673 834q0-103-35-215.5t-96.5-215T1395 212 1210 58Q996-81 773-81q-315 0-499 183Q89 285 89 599q0 237 131 445 124 199 332 318 211 121 449 121 274 0 471-181 201-185 201-468zm-195-160q0 139-48.5 265.5T1292 1156q-186 187-495 187-403 0-487-339-26-107-26-254t45.5-278.5T463 246Q647 51 971 51q259 0 391 180 116 158 116 443zm-196 1040-194-137-152 142 195 136zm-456 0-194-137-152 142 194 136z"/><glyph glyph-name="multiply" unicode="×" horiz-adv-x="968" d="M837 866Q719 712 583 578q122-118 257-218-9 2-37.5-23.5T753 293t-41-34q-45-37-55.5-37t-28 13-42 33-53 44-53.5 46-44 39.5-26 23.5Q246 283 141 222q-1 0-2.5 5.5T135 237q48 26 139.5 104T389 442Q249 579 154 709l-19 25q0 9 194 136 111-169 219-257 26 31 50 62t46 58 49 44 55 31q72 37 89 58z"/><glyph glyph-name="Oslash" unicode="Ø" horiz-adv-x="1756" d="M1339 1624q-45-136-68-195 181-75 289-226 113-159 113-359 0-221-131-440-128-214-332-346Q996-81 773-81q-125 0-230 30-26-22-68-45-81-43-101-64 45 72 82 139Q191 92 114 389q-25 97-25 214t34.5 230 96 211T366 1223t186 139q211 121 449 121 63 0 137-13 14 36 41 54.5t57 34.5q84 46 103 65zM650 114q140-63 299.5-63T1205 99.5 1362 231q116 158 116 428 0 193-74 339.5T1196 1233Q965 658 750 286q-24-41-50-86t-50-86zm421 1182q-124 47-271 47t-245-40.5T397 1187q-113-141-113-423 0-202 70.5-355.5T560 164q252 457 465 1012 24 63 46 120z"/><glyph glyph-name="Ugrave" unicode="Ù" horiz-adv-x="1724" d="M1728 1440q-21-6-46-28t-52-46q-68-62-97-62h-74V389q0-110-45-199-15-31-36-53h330q-24-7-73.5-52.5t-75-64.5T1513 1h-328q60 84 69.5 131t10.5 83q-159-115-258-159-186-83-328-83T452 8 316 108q-97 122-97 366v830H50q12 9 39 31.5t58 46.5q77 58 97 58h417q-24-7-73.5-52.5t-75-64.5-46.5-19h-53V531q0-204 124-315 119-105 326-105 141 0 315 87 50 25 87 53v1053h-188q12 9 39.5 31.5t58.5 46.5q77 58 97 58h456zm-692 100q-11-8-38.5-30t-58.5-46q-80-60-97-60-3 0-16 9-94 62-155 131t-111 147l-18 29q0 11 79 65 106 71 113 71t8-5 9-19q60-102 138-177.5t147-114.5z"/><glyph glyph-name="Uacute" unicode="Ú" horiz-adv-x="1724" d="M1728 1440q-21-6-46-28t-52-46q-68-62-97-62h-74V389q0-110-45-199-15-31-36-53h330q-24-7-73.5-52.5t-75-64.5T1513 1h-328q60 84 69.5 131t10.5 83q-159-115-258-159-186-83-328-83T452 8 316 108q-97 122-97 366v830H50q12 9 39 31.5t58 46.5q77 58 97 58h417q-24-7-73.5-52.5t-75-64.5-46.5-19h-53V531q0-204 124-315 119-105 326-105 141 0 315 87 50 25 87 53v1053h-188q12 9 39.5 31.5t58.5 46.5q77 58 97 58h456zm-978-93v12q79 52 137 119 70 81 155 196 1 2 57 43t62 45.5 19 11.5 25 14 26 15q-27-35-56.5-75.5T1097 1634q-105-116-201.5-188T750 1347z"/><glyph glyph-name="Ucircumflex" unicode="Û" horiz-adv-x="1724" d="M1728 1440q-21-6-46-28t-52-46q-68-62-97-62h-74V389q0-110-45-199-15-31-36-53h330q-24-7-73.5-52.5t-75-64.5T1513 1h-328q60 84 69.5 131t10.5 83q-159-115-258-159-186-83-328-83T452 8 316 108q-97 122-97 366v830H50q12 9 39 31.5t58 46.5q77 58 97 58h417q-24-7-73.5-52.5t-75-64.5-46.5-19h-53V531q0-204 124-315 119-105 326-105 141 0 315 87 50 25 87 53v1053h-188q12 9 39.5 31.5t58.5 46.5q77 58 97 58h456zm-458 231q-171-137-190-137-7 0-101.5 103.5T880 1746l-83-79q-11-10-27-18.5t-39-23.5q-93-58-123-86l250 237q34 34 94 75 85 58 90 58t21-16 39-41 50.5-54.5 52-55.5 42.5-46 23-25z"/><glyph glyph-name="Udieresis" unicode="Ü" horiz-adv-x="1724" d="M1728 1440q-21-6-46-28t-52-46q-68-62-97-62h-74V389q0-110-45-199-15-31-36-53h330q-24-7-73.5-52.5t-75-64.5T1513 1h-328q60 84 69.5 131t10.5 83q-159-115-258-159-186-83-328-83T452 8 316 108q-97 122-97 366v830H50q12 9 39 31.5t58 46.5q77 58 97 58h417q-24-7-73.5-52.5t-75-64.5-46.5-19h-53V531q0-204 124-315 119-105 326-105 141 0 315 87 50 25 87 53v1053h-188q12 9 39.5 31.5t58.5 46.5q77 58 97 58h456zm-438 233-194-137-152 142 195 136zm-456 0-194-137-152 142 194 136z"/><glyph glyph-name="Yacute" unicode="Ý" horiz-adv-x="1257" d="M748 354q0-116-70-219h321q-13-2-66-48Q832 0 805 0H456q100 104 100 257v253q0 97-114 333-119 245-248 385-96 105-168 105-47 0-122-49 157 175 309 175 85 0 151-77 147-173 280-452 62-132 91-234 190 248 241 411 13 42 13 73.5t-8 58.5-25 47q-35 42-97 42-30 0-54-7 22 6 46.5 29.5T904 1399q75 65 139.5 65t101.5-35.5 37-90-24.5-115.5-63-127.5-87-135T911 829t-91.5-116.5T748 623V354zm-125 993v12q79 52 137 119 70 81 155 196 1 2 57 43t62 45.5 19 11.5 25 14 26 15q-27-35-56.5-75.5T970 1634q-105-116-201.5-188T623 1347z"/><glyph glyph-name="Thorn" unicode="Þ" horiz-adv-x="1226" d="M22 1065q166 136 194 136h36v140q81 67 106.5 81t41.5 24q42 24 47 31v-276h306q178 0 298-87 135-99 135-270 0-157-124-290-84-90-261-190-138-76-299-76-35 0-69 4-20-92-93-157h315q-14-2-67-49Q489 0 461 0H144l26 22q73 61 80 174 2 34 2 70v799H22zm425-593q145-46 242.5-46T837 439.5t85 44.5q69 61 69 201 0 335-371 373-63 7-130 7h-43V472z"/><glyph glyph-name="germandbls" unicode="ß" horiz-adv-x="1275" d="M382 310q0-98-63-174h164q-12-9-39-31.5T386 58Q309 0 289 0H104q52 41 68 92t16 114v651H62l126 99q0 207 10.5 272.5t29.5 113 54 91.5q66 84 218 184 146 95 270 95 161 0 257-124 86-110 86-271 0-187-179-333-115-95-146.5-135T756 765.5t21-74 55.5-51.5 78.5-35 89.5-27.5T1090 548t78-42q77-56 77-154 0-97-93-190-79-79-208-134-120-52-214-52-114 0-183 48-25 18-25 46.5t26 52 60.5 44 70 39.5 53.5 39q-18-18-18-39.5t13.5-35.5 34.5-24 47-16 51-10q48-6 92-6 99 0 99 102 0 120-154 180-44 17-89.5 32T718 459.5 640 498q-76 51-76 134 0 48 26.5 86t66 74.5T742 870t86 96q92 127 92 302 0 124-112 219-107 90-233 90-64 0-106-13-80-110-85-314-2-57-2-109V310z"/><glyph glyph-name="agrave" unicode="à" horiz-adv-x="930" d="m753 296-2-70q0-78 44-99 17-8 39-8 35 0 72 16-38-16-66-42t-57-51q-72-60-145-60t-78 84q-2 22-2 44Q378-15 228-15 101-15 52 62q-18 28-18 77t30 98.5 76 90.5q82 76 198 125 86 37 221 42v44q0 159-29 215t-75 82.5T347 863q-105 0-185-41 110 91 161 120 105 59 190.5 59T642 976t68-66q43-72 43-207V296zM339 127q32-8 95-8t125 30v210H397q-87 0-152-12-13-43-13-82t13.5-67 37.5-45.5 56-25.5zm328 1101q-11-8-38.5-30t-58.5-46q-80-60-97-60-3 0-16 9-94 62-155 131t-111 147l-18 29q0 11 79 65 106 71 113 71t8-5 9-19q60-102 138-177.5T667 1228z"/><glyph glyph-name="aacute" unicode="á" horiz-adv-x="930" d="m753 296-2-70q0-78 44-99 17-8 39-8 35 0 72 16-38-16-66-42t-57-51q-72-60-145-60t-78 84q-2 22-2 44Q378-15 228-15 101-15 52 62q-18 28-18 77t30 98.5 76 90.5q82 76 198 125 86 37 221 42v44q0 159-29 215t-75 82.5T347 863q-105 0-185-41 110 91 161 120 105 59 190.5 59T642 976t68-66q43-72 43-207V296zM339 127q32-8 95-8t125 30v210H397q-87 0-152-12-13-43-13-82t13.5-67 37.5-45.5 56-25.5zm-59 908v12q79 52 137 119 70 81 155 196 1 2 57 43t62 45.5 19 11.5 25 14 26 15q-27-35-56.5-75.5T627 1322q-105-116-201.5-188T280 1035z"/><glyph glyph-name="acircumflex" unicode="â" horiz-adv-x="930" d="m753 296-2-70q0-78 44-99 17-8 39-8 35 0 72 16-38-16-66-42t-57-51q-72-60-145-60t-78 84q-2 22-2 44Q378-15 228-15 101-15 52 62q-18 28-18 77t30 98.5 76 90.5q82 76 198 125 86 37 221 42v44q0 159-29 215t-75 82.5T347 863q-105 0-185-41 110 91 161 120 105 59 190.5 59T642 976t68-66q43-72 43-207V296zM339 127q32-8 95-8t125 30v210H397q-87 0-152-12-13-43-13-82t13.5-67 37.5-45.5 56-25.5zm512 1093q-171-137-190-137-7 0-101.5 103.5T461 1295l-83-79q-11-10-27-18.5t-39-23.5q-93-58-123-86l250 237q34 34 94 75 85 58 90 58t21-16 39-41 50.5-54.5 52-55.5 42.5-46 23-25z"/><glyph glyph-name="atilde" unicode="ã" horiz-adv-x="930" d="m755 296-2-70q0-78 44-99 17-8 39-8 35 0 72 16-38-16-66-42t-57-51q-72-60-145-60t-78 84q-2 22-2 44Q380-15 230-15 103-15 54 62q-18 28-18 77t30 98.5 76 90.5q82 76 198 125 86 37 221 42v44q0 159-29 215t-75 82.5T349 863q-105 0-185-41 110 91 161 120 105 59 190.5 59T644 976t68-66q43-72 43-207V296zM341 127q32-8 95-8t125 30v210H399q-87 0-152-12-13-43-13-82t13.5-67 37.5-45.5 56-25.5zm594 1217q-208-239-406-239-61 0-96.5 23t-53.5 38.5-39 29.5q-46 32-105 32-60 0-225-129 140 203 328 254 43 11 87 11t75.5-19.5T564 1302q86-62 166-62 57 0 156 73 25 18 49 31z"/><glyph glyph-name="adieresis" unicode="ä" horiz-adv-x="930" d="m753 296-2-70q0-78 44-99 17-8 39-8 35 0 72 16-38-16-66-42t-57-51q-72-60-145-60t-78 84q-2 22-2 44Q378-15 228-15 101-15 52 62q-18 28-18 77t30 98.5 76 90.5q82 76 198 125 86 37 221 42v44q0 159-29 215t-75 82.5T347 863q-105 0-185-41 110 91 161 120 105 59 190.5 59T642 976t68-66q43-72 43-207V296zM339 127q32-8 95-8t125 30v210H397q-87 0-152-12-13-43-13-82t13.5-67 37.5-45.5 56-25.5zm532 1114-194-137-152 142 195 136zm-456 0-194-137-152 142 194 136z"/><glyph glyph-name="aring" unicode="å" horiz-adv-x="930" d="m753 296-2-70q0-78 44-99 17-8 39-8 35 0 72 16-38-16-66-42t-57-51q-72-60-145-60t-78 84q-2 22-2 44Q378-15 228-15 101-15 52 62q-18 28-18 77t30 98.5 76 90.5q82 76 198 125 86 37 221 42v44q0 159-29 215t-75 82.5T347 863q-105 0-185-41 110 91 161 120 105 59 190.5 59T642 976t68-66q43-72 43-207V296zM339 127q32-8 95-8t125 30v210H397q-87 0-152-12-13-43-13-82t13.5-67 37.5-45.5 56-25.5zm419 1358.5q17-37.5 17-77t-19-79-51-77-73.5-71T546 1123q-96-56-153.5-56t-95.5 13.5-68 38.5q-64 53-64 139 0 114 142 235 83 70 151 94t108.5 24 78.5-16 67-44 46-65.5zM567 1198q13 35 13 71t-12.5 69.5T533 1400q-58 76-148 76-22 0-24-25-2-14-2-48t15.5-73 42.5-68q59-62 150-64z"/><glyph glyph-name="ae" unicode="æ" horiz-adv-x="1361" d="M532 1001q192 0 218-208 118 125 250 171 49 16 89 16t65.5-12 43.5-32q39-43 39-98t-24-101.5-62.5-90.5-88-84.5T962 486q-74-50-185-113 32-121 113.5-186.5T1099 121q117 0 222 64Q1203 45 1004 0q-62-14-121-14-175 0-262 163-47-29-92-58t-93-53Q328-15 230-15 102-15 54 63q-18 28-18 76t30 98 76 91q140 128 306 156 55 9 113 11v44q0 159-29 215t-75 82.5T349 863q-105 0-185-41 102 87 158 118 110 61 210 61zm487-414.5q27 42.5 27 83t-9 69-27 51.5q-39 50-100 50-152 0-152-310 0-55 9-109 104 28 164.5 75.5t87.5 90zM561 231v128H402q-98 0-155-12-13-43-13-82t13.5-67 37.5-46q46-33 125-33 51 0 86 22 65 41 65 90z"/><glyph glyph-name="ccedilla" unicode="ç" horiz-adv-x="946" d="M717 774q20 20 20 30t-13.5 19-35 16.5-47.5 14-50 10.5q-51 10-98 10t-95.5-28.5T320 770q-51-84-51-203.5t26-197T371 236q105-116 297-116 121 0 229 60Q766 40 576-2L474-107q7 5 24.5 8t41.5 6.5 58-3 56-24.5q49-40 6-117-61-108-338-264 26 26 57 46.5t55 36.5 36.5 42.5T485-320q7 104-127 93-37-3-72-14-8-3-2 3L474-40q15 12 35 27-26-3-50-3-178 0-284 117Q72 214 72 394q0 146 101 294 149 216 393 294 76 25 138 25 146 0 218-54 8-6 8-16 0-36-146-130-52-33-67-33z"/><glyph glyph-name="egrave" unicode="è" horiz-adv-x="874" d="M834 185Q697 32 494-6q-47-8-116-8T248 24.5 148 124Q74 242 74 412q0 112 86 248 84 134 205 224 130 96 246 96 60 0 101-44 38-43 38-98t-24-101.5-62.5-90.5-88-84.5T474 486q-73-50-184-113 32-121 113-186.5T612 121q108 0 222 64zM532 586q27 43 27 84t-9 69.5-26 50.5q-39 50-101 50-152 0-152-310 0-55 9-109 176 49 252 165zm119 627q-11-8-38.5-30t-58.5-46q-80-60-97-60-3 0-16 9-94 62-155 131t-111 147l-18 29q0 11 79 65 106 71 113 71t8-5 9-19q60-102 138-177.5T651 1213z"/><glyph glyph-name="eacute" unicode="é" horiz-adv-x="871" d="M832 185Q695 32 492-6q-47-8-116-8T246 24.5 146 124Q72 242 72 412q0 112 86 248 84 134 205 224 130 96 246 96 60 0 101-44 38-43 38-98t-24-101.5-62.5-90.5-88-84.5T472 486q-73-50-184-113 32-121 113-186.5T610 121q108 0 222 64zM530 586q27 43 27 84t-9 69.5-26 50.5q-39 50-101 50-152 0-152-310 0-55 9-109 176 49 252 165zM261 934v12q79 52 137 119 70 81 155 196 1 2 57 43t62 45.5 19 11.5 25 14 26 15q-27-35-56.5-75.5T608 1221q-105-116-201.5-188T261 934z"/><glyph glyph-name="ecircumflex" unicode="ê" horiz-adv-x="874" d="M834 185Q697 32 494-6q-47-8-116-8T248 24.5 148 124Q74 242 74 412q0 112 86 248 84 134 205 224 130 96 246 96 60 0 101-44 38-43 38-98t-24-101.5-62.5-90.5-88-84.5T474 486q-73-50-184-113 32-121 113-186.5T612 121q108 0 222 64zM532 586q27 43 27 84t-9 69.5-26 50.5q-39 50-101 50-152 0-152-310 0-55 9-109 176 49 252 165zm303 600q-171-137-190-137-7 0-101.5 103.5T445 1261l-83-79q-11-10-27-18.5t-39-23.5q-93-58-123-86l250 237q34 34 94 75 85 58 90 58t21-16 39-41 50.5-54.5 52-55.5 42.5-46 23-25z"/><glyph glyph-name="edieresis" unicode="ë" horiz-adv-x="873" d="M834 185Q697 32 494-6q-47-8-116-8T248 24.5 148 124Q74 242 74 412q0 112 86 248 84 134 205 224 130 96 246 96 60 0 101-44 38-43 38-98t-24-101.5-62.5-90.5-88-84.5T474 486q-73-50-184-113 32-121 113-186.5T612 121q108 0 222 64zM532 586q27 43 27 84t-9 69.5-26 50.5q-39 50-101 50-152 0-152-310 0-55 9-109 176 49 252 165zm323 623-194-137-152 142 195 136zm-456 0-194-137-152 142 194 136z"/><glyph glyph-name="igrave" unicode="ì" horiz-adv-x="578" d="M581 123q-30-24-58.5-49T463 28q-72-47-138-47-62 0-87 19-51 38-51 140v474q0 108-39 140-18 15-39 15t-35.5-2.5T44 761t-31-6q50 39 93.5 70t74.5 52 86 59.5 114 69.5V300q0-102 13-129 28-55 124-55 26 0 63 7zm-87 1065q-11-8-38.5-30t-58.5-46q-80-60-97-60-3 0-16 9-94 62-155 131T18 1339l-18 29q0 11 79 65 106 71 113 71t8-5 9-19q60-102 138-177.5T494 1188z"/><glyph glyph-name="iacute" unicode="í" horiz-adv-x="578" d="M583 123q-30-24-58.5-49T465 28q-72-47-138-47-62 0-87 19-51 38-51 140v474q0 108-39 140-18 15-39 15t-35.5-2.5T46 761t-31-6q50 39 93.5 70t74.5 52 86 59.5 114 69.5V300q0-102 13-129 28-55 124-55 26 0 63 7zM109 972v12q79 52 137 119 70 81 155 196 1 2 57 43t62 45.5 19 11.5 25 14 26 15q-27-35-56.5-75.5T456 1259q-105-116-201.5-188T109 972z"/><glyph glyph-name="icircumflex" unicode="î" horiz-adv-x="577" d="M581 123q-30-24-58.5-49T463 28q-72-47-138-47-62 0-87 19-51 38-51 140v474q0 108-39 140-18 15-39 15t-35.5-2.5T44 761t-31-6q50 39 93.5 70t74.5 52 86 59.5 114 69.5V300q0-102 13-129 28-55 124-55 26 0 63 7zm48 1101q-171-137-190-137-7 0-101.5 103.5T239 1299l-83-79q-11-10-27-18.5T90 1178q-93-58-123-86l250 237q34 34 94 75 85 58 90 58t21-16 39-41 50.5-54.5 52-55.5 42.5-46 23-25z"/><glyph glyph-name="idieresis" unicode="ï" horiz-adv-x="577" d="M581 123q-30-24-58.5-49T463 28q-72-47-138-47-62 0-87 19-51 38-51 140v474q0 108-39 140-18 15-39 15t-35.5-2.5T44 761t-31-6q50 39 93.5 70t74.5 52 86 59.5 114 69.5V300q0-102 13-129 28-55 124-55 26 0 63 7zm118 1112-194-137-152 142 195 136zm-456 0L49 1098l-152 142 194 136z"/><glyph glyph-name="eth" unicode="ð" horiz-adv-x="1130" d="M308 1182q166 136 195 136h25q-101 111-238 198l5-1q9 0 56 43.5t65 59.5q43 35 54.5 35t20-4.5 23-15 64-45.5 121-109T827 1318h291q-15-3-68-50-99-86-127-86h-20q129-272 129-639 0-150-86-273-40-57-121.5-123.5T690 48Q484-74 309 12 166 81 104 236q-29 74-29 164.5t36.5 183T224 744q244 221 424 221 53 0 101-15-45 122-116 232H308zm143-351q-97 0-145-94-37-75-37-173.5T295.5 386 372 246q110-136 284-136 101 0 147 99 34 73 34 175 0 192-108 319.5T451 831z"/><glyph glyph-name="ntilde" unicode="ñ" horiz-adv-x="1143" d="m190 68 1 643q0 67-18 90-31 40-86 40t-98-16q26 10 68 47 77 71 109 83 60 24 105.5 24t68-15 32.5-40q13-31 13-118 187 165 350 165 89 0 155-56 69-60 69-146V275q0-74 16-102 30-53 100-53 40 0 76 15-89-77-123-99-78-51-136.5-51t-83 21T774 59q-11 35-11 143v374q0 179-117 236-42 20-101 20-145 0-157-215-3-54-3-97V211q0-64 39-87 14-9 35-9t44 10q-21-18-50-43t-61-48q-79-54-126-54-76 0-76 88zm842 1248q-208-239-406-239-61 0-96.5 23t-53.5 38.5-39 29.5q-46 32-105 32-60 0-225-129 140 203 328 254 43 11 87 11t75.5-19.5T661 1274q86-62 166-62 57 0 156 73 25 18 49 31z"/><glyph glyph-name="ograve" unicode="ò" d="M1001.5 731.5Q1030 657 1030 582t-22-146.5T946.5 298t-93-123.5T736 74Q600-17 461-17q-163 0-277 127Q73 232 73 396q0 140 85 281 127 214 346 289 70 25 148 25t148.5-34.5T922 864t79.5-132.5zM449 857q-100 0-146-97-36-76-36-172t25.5-178.5T368 262q111-146 286-146 102 0 148 102 33 76 33 175 0 193-107.5 328.5T449 857zm299 371q-11-8-38.5-30t-58.5-46q-80-60-97-60-3 0-16 9-94 62-155 131t-111 147l-18 29q0 11 79 65 106 71 113 71t8-5 9-19q60-102 138-177.5T748 1228z"/><glyph glyph-name="oacute" unicode="ó" d="M1001.5 731.5Q1030 657 1030 582t-22-146.5T946.5 298t-93-123.5T736 74Q600-17 461-17q-163 0-277 127Q73 232 73 396q0 140 85 281 127 214 346 289 70 25 148 25t148.5-34.5T922 864t79.5-132.5zM449 857q-100 0-146-97-36-76-36-172t25.5-178.5T368 262q111-146 286-146 102 0 148 102 33 76 33 175 0 193-107.5 328.5T449 857zm-88 162v12q79 52 137 119 70 81 155 196 1 2 57 43t62 45.5 19 11.5 25 14 26 15q-27-35-56.5-75.5T708 1306q-105-116-201.5-188T361 1019z"/><glyph glyph-name="ocircumflex" unicode="ô" d="M1001.5 731.5Q1030 657 1030 582t-22-146.5T946.5 298t-93-123.5T736 74Q600-17 461-17q-163 0-277 127Q73 232 73 396q0 140 85 281 127 214 346 289 70 25 148 25t148.5-34.5T922 864t79.5-132.5zM449 857q-100 0-146-97-36-76-36-172t25.5-178.5T368 262q111-146 286-146 102 0 148 102 33 76 33 175 0 193-107.5 328.5T449 857zm483 379q-171-137-190-137-7 0-101.5 103.5T542 1311l-83-79q-11-10-27-18.5t-39-23.5q-93-58-123-86l250 237q34 34 94 75 85 58 90 58t21-16 39-41 50.5-54.5 52-55.5 42.5-46 23-25z"/><glyph glyph-name="otilde" unicode="õ" d="M1001.5 731.5Q1030 657 1030 582t-22-146.5T946.5 298t-93-123.5T736 74Q600-17 461-17q-163 0-277 127Q73 232 73 396q0 140 85 281 127 214 346 289 70 25 148 25t148.5-34.5T922 864t79.5-132.5zM449 857q-100 0-146-97-36-76-36-172t25.5-178.5T368 262q111-146 286-146 102 0 148 102 33 76 33 175 0 193-107.5 328.5T449 857zm565 474q-208-239-406-239-61 0-96.5 23t-53.5 38.5-39 29.5q-46 32-105 32-60 0-225-129 140 203 328 254 43 11 87 11t75.5-19.5T643 1289q86-62 166-62 57 0 156 73 25 18 49 31z"/><glyph glyph-name="odieresis" unicode="ö" d="M1001.5 731.5Q1030 657 1030 582t-22-146.5T946.5 298t-93-123.5T736 74Q600-17 461-17q-163 0-277 127Q73 232 73 396q0 140 85 281 127 214 346 289 70 25 148 25t148.5-34.5T922 864t79.5-132.5zM449 857q-100 0-146-97-36-76-36-172t25.5-178.5T368 262q111-146 286-146 102 0 148 102 33 76 33 175 0 193-107.5 328.5T449 857zm503 370-194-137-152 142 195 136zm-456 0-194-137-152 142 194 136z"/><glyph glyph-name="divide" unicode="÷" horiz-adv-x="1056" d="M683 833 489 697 385 864l194 136zm309-218q-16-4-63.5-45.5T862 513q-43-34-64-34H76q14 2 67 49 100 87 127 87h722zM683 244 489 108 385 275l194 136z"/><glyph glyph-name="oslash" unicode="ø" d="M930 1126q-36-97-79-199 81-56 131-153 48-92 48-180t-22-159-61.5-137-93-123.5T736 74Q600-17 461-17q-76 0-143 30-24-18-67-38-80-37-105-61 81 122 95 144-120 89-157 241-11 48-11 108t22.5 132 62 138 94 123.5T370 900q137 91 277 91 36 0 76-8 8 37 90 79 33 17 66 32.5t51 31.5zM443 187q93-71 211-71 102 0 148 102 33 76 33 172 0 183-91 310-118-230-301-513zm-76 77q152 261 277 534-90 59-195 59-98 0-145-97-37-75-37-171 0-191 100-325z"/><glyph glyph-name="ugrave" unicode="ù" horiz-adv-x="1170" d="M670 828q161 145 236 145t75-96V242q0-60 27-90t90-30q44 0 86 16-33-12-59.5-37.5T1068 49q-75-65-171-65-92 0-105 102-3 29-4 59Q570-20 401-20 287-20 229 80q-52 90-52 246v337q0 87-15 118-28 62-101 62-35 0-71-15 122 109 198 138 37 15 77 15 109 0 109-139v-67l-1-373q0-143 53-210 58-76 193-76 66 0 137 57 18 14 32 24v528q0 74-36 102-15 11-37 11t-45-10zm74 300q-11-8-38.5-30t-58.5-46q-80-60-97-60-3 0-16 9-94 62-155 131t-111 147l-18 29q0 11 79 65 106 71 113 71t8-5 9-19q60-102 138-177.5T744 1128z"/><glyph glyph-name="uacute" unicode="ú" horiz-adv-x="1170" d="M670 828q161 145 236 145t75-96V242q0-60 27-90t90-30q44 0 86 16-33-12-59.5-37.5T1068 49q-75-65-171-65-92 0-105 102-3 29-4 59Q570-20 401-20 287-20 229 80q-52 90-52 246v337q0 87-15 118-28 62-101 62-35 0-71-15 122 109 198 138 37 15 77 15 109 0 109-139v-67l-1-373q0-143 53-210 58-76 193-76 66 0 137 57 18 14 32 24v528q0 74-36 102-15 11-37 11t-45-10zM547 965v12q79 52 137 119 70 81 155 196 1 2 57 43t62 45.5 19 11.5 25 14 26 15q-27-35-56.5-75.5T894 1252q-105-116-201.5-188T547 965z"/><glyph glyph-name="ucircumflex" unicode="û" horiz-adv-x="1170" d="M670 828q161 145 236 145t75-96V242q0-60 27-90t90-30q44 0 86 16-33-12-59.5-37.5T1068 49q-75-65-171-65-92 0-105 102-3 29-4 59Q570-20 401-20 287-20 229 80q-52 90-52 246v337q0 87-15 118-28 62-101 62-35 0-71-15 122 109 198 138 37 15 77 15 109 0 109-139v-67l-1-373q0-143 53-210 58-76 193-76 66 0 137 57 18 14 32 24v528q0 74-36 102-15 11-37 11t-45-10zm298 395q-171-137-190-137-7 0-101.5 103.5T578 1298l-83-79q-11-10-27-18.5t-39-23.5q-93-58-123-86l250 237q34 34 94 75 85 58 90 58t21-16 39-41 50.5-54.5 52-55.5 42.5-46 23-25z"/><glyph glyph-name="udieresis" unicode="ü" horiz-adv-x="1170" d="M670 828q161 145 236 145t75-96V242q0-60 27-90t90-30q44 0 86 16-33-12-59.5-37.5T1068 49q-75-65-171-65-92 0-105 102-3 29-4 59Q570-20 401-20 287-20 229 80q-52 90-52 246v337q0 87-15 118-28 62-101 62-35 0-71-15 122 109 198 138 37 15 77 15 109 0 109-139v-67l-1-373q0-143 53-210 58-76 193-76 66 0 137 57 18 14 32 24v528q0 74-36 102-15 11-37 11t-45-10zm318 393-194-137-152 142 195 136zm-456 0-194-137-152 142 194 136z"/><glyph glyph-name="yacute" unicode="ý" horiz-adv-x="1138" d="M792 712q0 128-72 128-24 0-46-10 113 97 161 120.5t81 23.5 52-23 19-59V302q0-335-165-604-115-187-304-266-95-40-211-40-99 0-156 44-21 17-21 36.5t13 36 33 33 45 32.5 49 30q60 37 77 51-25-20-25-43.5t23-40 53-26.5q58-19 120.5-19t111 32.5 79.5 86 47.5 121T780-98q8 74 12 250Q569-18 405-18q-114 0-172 74-52 67-52 184v402q0 202-116 202-37 0-71-14 120 107 198 138 37 14 75.5 14t60.5-14.5 33-37.5q17-37 17-112l-1-414q0-142 51-209 60-77 195-77 49 0 95.5 27t73.5 67v500zM540 908v12q79 52 137 119 70 81 155 196 1 2 57 43t62 45.5 19 11.5 25 14 26 15q-27-35-56.5-75.5T887 1195q-105-116-201.5-188T540 908z"/><glyph glyph-name="thorn" unicode="þ" horiz-adv-x="1100" d="M117-608q42 75 42 218v1531q0 118-43 159-20 19-50 19-48 0-103-24 175 157 289 157 89 0 98-146 3-37 3-68V852q101 74 144 97 93 51 179.5 51T830 966.5 940 876q82-110 82-297 0-207-88-316Q806 112 600 24 454-38 353-16v-251q0-145-72-205h246q-15-3-68-50-99-86-126-86H117zm236 866q86-146 260-146 185 0 209 186 7 55 7 126.5T811 577t-59 145q-89 142-265 142-84 0-134-91V258z"/><glyph glyph-name="ydieresis" unicode="ÿ" horiz-adv-x="1138" d="M792 712q0 128-72 128-24 0-46-10 113 97 161 120.5t81 23.5 52-23 19-59V302q0-335-165-604-115-187-304-266-95-40-211-40-99 0-156 44-21 17-21 36.5t13 36 33 33 45 32.5 49 30q60 37 77 51-25-20-25-43.5t23-40 53-26.5q58-19 120.5-19t111 32.5 79.5 86 47.5 121T780-98q8 74 12 250Q569-18 405-18q-114 0-172 74-52 67-52 184v402q0 202-116 202-37 0-71-14 120 107 198 138 37 14 75.5 14t60.5-14.5 33-37.5q17-37 17-112l-1-414q0-142 51-209 60-77 195-77 49 0 95.5 27t73.5 67v500zm149 506-194-137-152 142 195 136zm-456 0-194-137-152 142 194 136z"/><glyph glyph-name="Amacron" unicode="Ā" horiz-adv-x="1403" d="M162 135q7 1 80 1 125 0 184.5 19t85.5 35q-37-28-68-52-67-52-107.5-75T256 27.5 174 9Q112 0 5 0h-39q1 1 1.5 2t14 16T21 61.5 90 147t93.5 147 94 183.5T361 667t82.5 192.5 86.5 195 66.5 154.5 26 70 11.5 24h-76q-186 0-289-42 138 120 231 151 85 27 276 27h53q43-143 86.5-290t87.5-294q96-320 144.5-464t57-171.5T1226 170q29-48 93-48 35 0 73.5 16t59.5 29q-36-27-64-49-72-55-92-67.5T1256 26t-42-22q-140-62-189 47-35 77-84 246.5T854 586q-84-60-366-56h-62Q313 304 206 185q-9-10-18-21-26-30-26-29zm342 534 198-4q62 0 126 4-46 146-137 447-99-227-201-450 12 3 14 3zm655 997q-13-2-41.5-27t-48.5-42.5-39-32.5q-44-35-65-35H243q10 1 64.5 48t83 68 46.5 21h722z"/><glyph glyph-name="amacron" unicode="ā" horiz-adv-x="930" d="m753 296-2-70q0-78 44-99 17-8 39-8 35 0 72 16-38-16-66-42t-57-51q-72-60-145-60t-78 84q-2 22-2 44Q378-15 228-15 101-15 52 62q-18 28-18 77t30 98.5 76 90.5q82 76 198 125 86 37 221 42v44q0 159-29 215t-75 82.5T347 863q-105 0-185-41 110 91 161 120 105 59 190.5 59T642 976t68-66q43-72 43-207V296zM339 127q32-8 95-8t125 30v210H397q-87 0-152-12-13-43-13-82t13.5-67 37.5-45.5 56-25.5zm584 1122q-13-2-41.5-27t-48.5-42.5-39-32.5q-44-35-65-35H7q10 1 64.5 48t83 68 46.5 21h722z"/><glyph glyph-name="Abreve" unicode="Ă" horiz-adv-x="1403" d="M162 135q7 1 80 1 125 0 184.5 19t85.5 35q-37-28-68-52-67-52-107.5-75T256 27.5 174 9Q112 0 5 0h-39q1 1 1.5 2t14 16T21 61.5 90 147t93.5 147 94 183.5T361 667t82.5 192.5 86.5 195 66.5 154.5 26 70 11.5 24h-76q-186 0-289-42 138 120 231 151 85 27 276 27h53q43-143 86.5-290t87.5-294q96-320 144.5-464t57-171.5T1226 170q29-48 93-48 35 0 73.5 16t59.5 29q-36-27-64-49-72-55-92-67.5T1256 26t-42-22q-140-62-189 47-35 77-84 246.5T854 586q-84-60-366-56h-62Q313 304 206 185q-9-10-18-21-26-30-26-29zm342 534 198-4q62 0 126 4-46 146-137 447-99-227-201-450 12 3 14 3zm581 1226q-3-129-166-256-97-76-173.5-100T624 1515t-87 15-78 41q-83 60-138 179-4 7-4 12t14 17.5 35.5 26.5 46.5 28.5 46 27.5q51 29 52 33 66-159 184-223 43-24 79.5-24t55.5 14 31 32q22 32 27 55.5t32.5 42.5 61.5 38.5 64.5 36.5 38.5 28z"/><glyph glyph-name="abreve" unicode="ă" horiz-adv-x="930" d="m753 296-2-70q0-78 44-99 17-8 39-8 35 0 72 16-38-16-66-42t-57-51q-72-60-145-60t-78 84q-2 22-2 44Q378-15 228-15 101-15 52 62q-18 28-18 77t30 98.5 76 90.5q82 76 198 125 86 37 221 42v44q0 159-29 215t-75 82.5T347 863q-105 0-185-41 110 91 161 120 105 59 190.5 59T642 976t68-66q43-72 43-207V296zM339 127q32-8 95-8t125 30v210H397q-87 0-152-12-13-43-13-82t13.5-67 37.5-45.5 56-25.5zm510 1332q-3-129-166-256-97-76-173.5-100T388 1079t-87 15-78 41q-83 60-138 179-4 7-4 12t14 17.5 35.5 26.5 46.5 28.5 46 27.5q51 29 52 33 66-159 184-223 43-24 79.5-24t55.5 14 31 32q22 32 27 55.5t32.5 42.5 61.5 38.5 64.5 36.5 38.5 28z"/><glyph glyph-name="Aogonek" unicode="Ą" horiz-adv-x="1403" d="M162 135q7 1 79 1t120.5 8 81 17.5T492 180l19 9q-2-1-12-9t-25.5-20-35-26.5T400 105q-72-55-128-72.5T174 9Q112 0 5 0h-39q5 7 43 48.5T90 147t93.5 147 94 183.5T361 667t82.5 192.5 86.5 195 66.5 154.5 26 70 11.5 24h-76q-186 0-289-42 138 120 231 151 85 27 276 27h53q43-143 86.5-290t87.5-294q96-320 144.5-464t57-171.5T1226 170q29-48 93-48 51 0 89 20.5t42 22.5Q1241-10 1139-17q-48-71-48-122t14.5-83.5T1144-280q53-54 125-54 50 0 140 57 22 14 43 24v-1q0-20-194-144-114-73-187-73-67 0-119 56-50 54-50 123 0 157 179 283-30 12-45.5 40T993 135.5t-64 204T854 586q-84-60-366-56h-62Q313 304 206 185q-9-10-18-21-26-30-26-29zm342 534 198-4q62 0 126 4-46 146-137 447-99-227-201-450 12 3 14 3zm7-480 1 1zm939-24 2 2z"/><glyph glyph-name="aogonek" unicode="ą" horiz-adv-x="930" d="m753 296-2-70q0-78 44-99 17-8 39-8 34 0 67 14-34-16-60.5-39.5T787 46q-66-57-129-63-49-69-49-121t14.5-84.5T662-280q53-54 125-54 50 0 140 57 22 14 43 24v-1q0-20-194-144-114-73-187-73-67 0-119 56-50 54-50 123 0 154 178 283-40 20-40 119Q378-15 228-15 101-15 52 62q-18 28-18 77t30 98.5 76 90.5q82 76 198 125 86 37 221 42v44q0 159-29 215t-75 82.5T347 863q-105 0-185-41 110 91 161 120 105 59 190.5 59T642 976t68-66q43-72 43-207V296zM339 127q32-8 95-8t125 30v210H397q-87 0-152-12-13-43-13-82t13.5-67 37.5-45.5 56-25.5zm567 8q-4-2-5-2 1 0 5 2z"/><glyph glyph-name="Cacute" unicode="Ć" horiz-adv-x="1391" d="M1342.5 1432q19.5-9 19.5-17.5t-16-23.5-40-33.5-53-39.5-55-38q-62-41-74-45 1 4 15 15 26 21 26 26.5t-4.5 9-10 6-10.5 4.5-38 14q-79 31-227 31t-255.5-34.5T437 1202q-155-145-155-422 0-281 154-475Q602 97 872 97q179 0 439 114-8-7-15-13-10-11-25-23Q980-43 668-43q-269 0-430 203Q89 349 89 629q0 144 42.5 243.5T231 1050t129.5 144 157 118.5T693 1402q187 76 377 76 107 0 180-18.5t92.5-27.5zM640 1468v12q79 52 137 119 70 81 155 196 1 2 57 43t62 45.5 19 11.5 25 14 26 15q-27-35-56.5-75.5T987 1755q-105-116-201.5-188T640 1468z"/><glyph glyph-name="cacute" unicode="ć" horiz-adv-x="946" d="M717 774q20 20 20 30t-13.5 19-35 16.5-47.5 14-50 10.5q-51 10-98 10t-95.5-28.5T320 770q-51-84-51-203.5t26-197T371 236q105-116 297-116 121 0 229 60Q771 44 578-2q-61-14-135-14T297 15t-122 86Q72 214 72 394q0 146 101 294 149 216 393 294 76 25 138 25 146 0 218-54 8-6 8-16 0-36-146-130-52-33-67-33zm-315 238v12q79 52 137 119 70 81 155 196 1 2 57 43t62 45.5 19 11.5 25 14 26 15q-27-35-56.5-75.5T749 1299q-105-116-201.5-188T402 1012z"/><glyph glyph-name="Ccircumflex" unicode="Ĉ" horiz-adv-x="1391" d="M1342.5 1432q19.5-9 19.5-17.5t-16-23.5-40-33.5-53-39.5-55-38q-62-41-74-45 1 4 15 15 26 21 26 26.5t-4.5 9-10 6-10.5 4.5-38 14q-79 31-227 31t-255.5-34.5T437 1202q-155-145-155-422 0-281 154-475Q602 97 872 97q179 0 439 114-8-7-15-13-10-11-25-23Q980-43 668-43q-269 0-430 203Q89 349 89 629q0 144 42.5 243.5T231 1050t129.5 144 157 118.5T693 1402q187 76 377 76 107 0 180-18.5t92.5-27.5zM1127 1688q-171-137-190-137-7 0-101.5 103.5T737 1763l-83-79q-11-10-27-18.5t-39-23.5q-93-58-123-86l250 237q34 34 94 75 85 58 90 58t21-16 39-41 50.5-54.5 52-55.5 42.5-46 23-25z"/><glyph glyph-name="ccircumflex" unicode="ĉ" horiz-adv-x="946" d="M717 774q20 20 20 30t-13.5 19-35 16.5-47.5 14-50 10.5q-51 10-98 10t-95.5-28.5T320 770q-51-84-51-203.5t26-197T371 236q105-116 297-116 121 0 229 60Q771 44 578-2q-61-14-135-14T297 15t-122 86Q72 214 72 394q0 146 101 294 149 216 393 294 76 25 138 25 146 0 218-54 8-6 8-16 0-36-146-130-52-33-67-33zm87 424q-171-137-190-137-7 0-101.5 103.5T414 1273l-83-79q-11-10-27-18.5t-39-23.5q-93-58-123-86l250 237q34 34 94 75 85 58 90 58t21-16 39-41 50.5-54.5 52-55.5 42.5-46 23-25z"/><glyph glyph-name="Cdotaccent" unicode="Ċ" horiz-adv-x="1391" d="M1342.5 1432q19.5-9 19.5-17.5t-16-23.5-40-33.5-53-39.5-55-38q-62-41-74-45 1 4 15 15 26 21 26 26.5t-4.5 9-10 6-10.5 4.5-38 14q-79 31-227 31t-255.5-34.5T437 1202q-155-145-155-422 0-281 154-475Q602 97 872 97q179 0 439 114-8-7-15-13-10-11-25-23Q980-43 668-43q-269 0-430 203Q89 349 89 629q0 144 42.5 243.5T231 1050t129.5 144 157 118.5T693 1402q187 76 377 76 107 0 180-18.5t92.5-27.5zM868 1620l-194-137-152 142 194 136z"/><glyph glyph-name="cdotaccent" unicode="ċ" horiz-adv-x="946" d="M717 774q20 20 20 30t-13.5 19-35 16.5-47.5 14-50 10.5q-51 10-98 10t-95.5-28.5T320 770q-51-84-51-203.5t26-197T371 236q105-116 297-116 121 0 229 60Q771 44 578-2q-61-14-135-14T297 15t-122 86Q72 214 72 394q0 146 101 294 149 216 393 294 76 25 138 25 146 0 218-54 8-6 8-16 0-36-146-130-52-33-67-33zm-71 394-194-137-152 142 194 136z"/><glyph glyph-name="Ccaron" unicode="Č" horiz-adv-x="1391" d="M1342.5 1432q19.5-9 19.5-17.5t-16-23.5-40-33.5-53-39.5-55-38q-62-41-74-45 1 4 15 15 26 21 26 26.5t-4.5 9-10 6-10.5 4.5-38 14q-79 31-227 31t-255.5-34.5T437 1202q-155-145-155-422 0-281 154-475Q602 97 872 97q179 0 439 114-8-7-15-13-10-11-25-23Q980-43 668-43q-269 0-430 203Q89 349 89 629q0 144 42.5 243.5T231 1050t129.5 144 157 118.5T693 1402q187 76 377 76 107 0 180-18.5t92.5-27.5zM364 1691q171 137 190 137 7 0 101.5-103.5T754 1616l83 79q11 10 27 18.5t39 22.5q93 59 123 88l-250-238q-104-87-143.5-110t-42.5-23-19 16-39 41-50.5 54.5-52 56-42.5 46-23 24.5z"/><glyph glyph-name="ccaron" unicode="č" horiz-adv-x="946" d="M717 774q20 20 20 30t-13.5 19-35 16.5-47.5 14-50 10.5q-51 10-98 10t-95.5-28.5T320 770q-51-84-51-203.5t26-197T371 236q105-116 297-116 121 0 229 60Q771 44 578-2q-61-14-135-14T297 15t-122 86Q72 214 72 394q0 146 101 294 149 216 393 294 76 25 138 25 146 0 218-54 8-6 8-16 0-36-146-130-52-33-67-33zm-575 466q171 137 190 137 7 0 101.5-103.5T532 1165l83 79q11 10 27 18.5t39 22.5q93 59 123 88l-250-238q-104-87-143.5-110t-42.5-23-19 16-39 41-50.5 54.5-52 56-42.5 46-23 24.5z"/><glyph glyph-name="Dcaron" unicode="Ď" horiz-adv-x="1553" d="M1458 784q0-123-39.5-232t-108-197T1149 200.5 950 90Q735 0 496 0H174q76 79 76 285v1018H30q16 4 68 50 99 86 126 86l444 1q332 0 547-150 243-169 243-506zm-228-371q35 96 35 226.5T1238.5 869t-76.5 172.5-122 123.5-163 81q-172 57-433 57V339q0-102-30-155-13-21-34-51h333q417 0 517 280zM445 1754q171 137 190 137 7 0 101.5-103.5T835 1679l83 79q11 10 27 18.5t39 22.5q93 59 123 88l-250-238q-104-87-143.5-110t-42.5-23-19 16-39 41-50.5 54.5-52 56-42.5 46-23 24.5z"/><glyph glyph-name="dcaron" unicode="ď" horiz-adv-x="1318" d="M554 970.5Q631 992 684 992t93-7v328q0 107-39 142-18 16-44 16-31 0-91-15 251 191 368 251V277q0-81 17-107 30-50 104-50 30 0 59 6-29-23-57.5-48T1034 32q-71-48-125-48T831.5-6 795 23q-20 29-20 109Q570-20 446-20q-183 0-280 122-90 112-90 300 0 154 96 294 89 133 235 214 70 39 147 60.5zM777 712q-45 72-117 109t-150 37-124-26.5-72-70.5q-45-76-45-190.5t20-192T352 242q94-127 275-127 39 0 77 23 73 42 73 79v495zm379 517q82 82 82 170 0 32-17 46-15 13-59-15-4-2-4-1l-84 134q-3 7 64 51 90 59 92 57 21-34 45-68t38-86.5-8.5-119T1232 1280q-9-9-30-22-37-21-46-29z"/><glyph glyph-name="Dcroat" unicode="Đ" horiz-adv-x="1554" d="M1459 784q0-123-39.5-232t-108-197T1150 200.5 950 90Q736 0 497 0H175q76 79 76 285v334H31q12 1 65.5 47.5t82 67.5 46.5 21h26v548H31q16 4 68 50 99 86 126 86l444 1q332 0 547-150 243-169 243-506zm-227-371q34 96 34 226.5T1239.5 869t-76.5 172.5-122 123.5-163 81q-172 57-433 57V755h302q-13-1-66-48-101-88-128-88H445V339q0-102-31-155-12-21-33-51h333q417 0 518 280z"/><glyph glyph-name="dcroat" unicode="đ" horiz-adv-x="1174" d="M777 1331q0 140-89 140-25 0-85-15 251 191 368 251v-376h204q-13-1-66-48-101-88-128-88h-10V277q0-81 17-107 30-50 104-50 30 0 59 6-29-23-57.5-48T1034 32q-71-48-125-48T831.5-6 795 23q-20 29-20 109Q570-20 446-20q-183 0-280 122-90 112-90 300 0 154 96 294 89 133 235 214 147 82 301 82 29 0 69-7v210H568q12 1 65.5 47.5t82 67.5 46.5 21h15zm0-619q-45 72-117 109t-150 37-124-26.5-72-70.5q-45-76-45-190.5t20-192T352 242q94-127 275-127 39 0 77 23 73 42 73 79v495z"/><glyph glyph-name="Emacron" unicode="Ē" horiz-adv-x="1132" d="M56 1303q166 136 194 136h826q-11-1-65-47.5t-82.5-67.5-46.5-21H438V818h485q-11-1-36-22.5T832 749q-79-67-104-67H438V356q0-111-34-182-13-28-34-38h556q57 0 118 26l62 26q-51-61-218-150-72-38-97-38H153q90 122 90 239v443H103q87 70 140 109v512H56zm968 365q-13-2-41.5-27t-48.5-42.5-39-32.5q-44-35-65-35H108q10 1 64.5 48t83 68 46.5 21h722z"/><glyph glyph-name="emacron" unicode="ē" horiz-adv-x="874" d="M834 185Q697 32 494-6q-47-8-116-8T248 24.5 148 124Q74 242 74 412q0 112 86 248 84 134 205 224 130 96 246 96 60 0 101-44 38-43 38-98t-24-101.5-62.5-90.5-88-84.5T474 486q-73-50-184-113 32-121 113-186.5T612 121q108 0 222 64zM532 586q27 43 27 84t-9 69.5-26 50.5q-39 50-101 50-152 0-152-310 0-55 9-109 176 49 252 165zm364 616q-13-2-41.5-27t-48.5-42.5-39-32.5q-44-35-65-35H-20q10 1 64.5 48t83 68 46.5 21h722z"/><glyph glyph-name="Ebreve" unicode="Ĕ" horiz-adv-x="1132" d="M56 1303q166 136 194 136h826q-11-1-65-47.5t-82.5-67.5-46.5-21H438V818h485q-11-1-36-22.5T832 749q-79-67-104-67H438V356q0-111-34-182-13-28-34-38h556q57 0 118 26l62 26q-51-61-218-150-72-38-97-38H153q90 122 90 239v443H103q87 70 140 109v512H56zm894 600q-3-129-166-256-97-76-173.5-100T489 1523t-87 15-78 41q-83 60-138 179-4 7-4 12t14 17.5 35.5 26.5 46.5 28.5 46 27.5q51 29 52 33 66-159 184-223 43-24 79.5-24t55.5 14 31 32q22 32 27 55.5t32.5 42.5 61.5 38.5 64.5 36.5 38.5 28z"/><glyph glyph-name="ebreve" unicode="ĕ" horiz-adv-x="874" d="M834 185Q697 32 494-6q-47-8-116-8T248 24.5 148 124Q74 242 74 412q0 112 86 248 84 134 205 224 130 96 246 96 60 0 101-44 38-43 38-98t-24-101.5-62.5-90.5-88-84.5T474 486q-73-50-184-113 32-121 113-186.5T612 121q108 0 222 64zM532 586q27 43 27 84t-9 69.5-26 50.5q-39 50-101 50-152 0-152-310 0-55 9-109 176 49 252 165zm289 819q-3-129-166-256-97-76-173.5-100T360 1025t-87 15-78 41q-83 60-138 179-4 7-4 12t14 17.5 35.5 26.5 46.5 28.5 46 27.5q51 29 52 33 66-159 184-223 43-24 79.5-24t55.5 14 31 32q22 32 27 55.5t32.5 42.5 61.5 38.5 64.5 36.5 38.5 28z"/><glyph glyph-name="Edotaccent" unicode="Ė" horiz-adv-x="1132" d="M56 1303q166 136 194 136h826q-11-1-65-47.5t-82.5-67.5-46.5-21H438V818h485q-11-1-36-22.5T832 749q-79-67-104-67H438V356q0-111-34-182-13-28-34-38h556q57 0 118 26l62 26q-51-61-218-150-72-38-97-38H153q90 122 90 239v443H103q87 70 140 109v512H56zm683 346-194-137-152 142 194 136z"/><glyph glyph-name="edotaccent" unicode="ė" horiz-adv-x="874" d="M834 185Q697 32 494-6q-47-8-116-8T248 24.5 148 124Q74 242 74 412q0 112 86 248 84 134 205 224 130 96 246 96 60 0 101-44 38-43 38-98t-24-101.5-62.5-90.5-88-84.5T474 486q-73-50-184-113 32-121 113-186.5T612 121q108 0 222 64zM532 586q27 43 27 84t-9 69.5-26 50.5q-39 50-101 50-152 0-152-310 0-55 9-109 176 49 252 165zm78 582-194-137-152 142 194 136z"/><glyph glyph-name="Eogonek" unicode="Ę" horiz-adv-x="1132" d="M56 1303q166 136 194 136h826q-11-1-65-47.5t-82.5-67.5-46.5-21H438V818h485q-11-1-36-22.5T832 749q-79-67-104-67H438V356q0-111-34-182-13-28-34-38h556q57 0 118 26l62 26q-45-55-195-138-70-38-102-47-63-79-63-158 0-70 54-125 52-54 124-54 50 0 140 57 22 14 43 24v-1q0-20-195-144-113-73-186-73-67 0-119 56-50 54-50 111t15.5 99 41.5 79Q666-54 750 0H153q90 122 90 239v443H103q87 70 140 109v512H56z"/><glyph glyph-name="eogonek" unicode="ę" horiz-adv-x="874" d="M462-10q-32-4-66-4-160 0-248 138-74 118-74 288 0 112 86 248 84 134 205 224 130 96 246 96 60 0 101-44 38-43 38-98t-24-101.5-62.5-90.5-88-84.5T474 486q-73-50-184-113 32-121 113-186.5T612 121q108 0 222 64-61-70-143.5-116.5T537 4q-64-83-64-159 0-70 53-125 53-54 125-54 50 0 140 57 22 14 43 24v-1q0-20-194-144-114-73-187-73-67 0-119 56-50 54-50 110t14 96 38 76q47 68 126 123zm70 596q27 43 27 84t-9 69.5-26 50.5q-39 50-101 50-152 0-152-310 0-55 9-109 176 49 252 165z"/><glyph glyph-name="Ecaron" unicode="Ě" horiz-adv-x="1132" d="M56 1303q166 136 194 136h826q-11-1-65-47.5t-82.5-67.5-46.5-21H438V818h485q-11-1-36-22.5T832 749q-79-67-104-67H438V356q0-111-34-182-13-28-34-38h556q57 0 118 26l62 26q-51-61-218-150-72-38-97-38H153q90 122 90 239v443H103q87 70 140 109v512H56zm179 451q171 137 190 137 7 0 101.5-103.5T625 1679l83 79q11 10 27 18.5t39 22.5q93 59 123 88l-250-238q-104-87-143.5-110t-42.5-23-19 16-39 41-50.5 54.5-52 56-42.5 46-23 24.5z"/><glyph glyph-name="ecaron" unicode="ě" horiz-adv-x="874" d="M834 185Q697 32 494-6q-47-8-116-8T248 24.5 148 124Q74 242 74 412q0 112 86 248 84 134 205 224 130 96 246 96 60 0 101-44 38-43 38-98t-24-101.5-62.5-90.5-88-84.5T474 486q-73-50-184-113 32-121 113-186.5T612 121q108 0 222 64zM532 586q27 43 27 84t-9 69.5-26 50.5q-39 50-101 50-152 0-152-310 0-55 9-109 176 49 252 165zm-426 640q171 137 190 137 7 0 101.5-103.5T496 1151l83 79q11 10 27 18.5t39 22.5q93 59 123 88l-250-238q-104-87-143.5-110T332 988t-19 16-39 41-50.5 54.5-52 56-42.5 46-23 24.5z"/><glyph glyph-name="Gcircumflex" unicode="Ĝ" horiz-adv-x="1637" d="M1599 759q-9-3-52-36t-72-59V317q-116-148-326-251Q937-38 767-38T474.5 12.5 266 152Q91 336 91 637q0 222 82 361 119 212 367 356 247 143 493 143 169 0 341-52 68-20 113-49 10-7 10-15t-16-22.5-40.5-33-53.5-38.5-55-37q-53-36-70-43 1 3 7 8t13 11q17 16 17 26 0 39-137 73-146 37-311 37t-268-40-169-116q-127-148-127-440 0-283 168-470 175-196 454-196 168 0 297 44 48 17 77 43v435H996l38 32q129 105 156 105h409zm-450 941q-171-137-190-137-7 0-101.5 103.5T759 1775l-83-79q-11-10-27-18.5t-39-23.5q-93-58-123-86l250 237q34 34 94 75 85 58 90 58t21-16 39-41 50.5-54.5 52-55.5 42.5-46 23-25z"/><glyph glyph-name="gcircumflex" unicode="ĝ" horiz-adv-x="971" d="M944 972q54 0 88 21-2-34-78-84-63-42-108-53 38-73 38-159t-33.5-153-84-118T657 337t-109.5-69-84-58-33.5-53.5 11.5-45.5T471 78q33-27 69.5-41t82-30T720-30.5t106-47 97-56.5q98-69 98-139T918-424Q763-547 516-593q-79-15-131.5-15t-90.5 3.5-78.5 11T136-574t-70 30q-69 40-69 91t19 89 50 70 70 58 79 48.5 77 42 64 37.5Q238-59 238 8t146 165q35 23 56 39-43-13-96.5-13T240 226.5 155 298q-71 91-71 217t94 239q83 99 221 164 131 61 254 61zM279 675q0-89 16-146.5T345 428q74-95 208-95 76 0 111 75 26 55 26 129 0 142-62 223.5T449 842t-143.5-39T279 675zM810.5-406q10.5 20 10.5 52.5t-37 65-96.5 60T400-124q-92-39-128-69-74-62-74-140 0-59 275-117 97-21 145-21t90 8 67 22.5 35.5 34.5zm5.5 1593q-171-137-190-137-7 0-101.5 103.5T426 1262l-83-79q-11-10-27-18.5t-39-23.5q-93-58-123-86l250 237q34 34 94 75 85 58 90 58t21-16 39-41 50.5-54.5 52-55.5 42.5-46 23-25z"/><glyph glyph-name="Gbreve" unicode="Ğ" horiz-adv-x="1637" d="M1599 759q-9-3-52-36t-72-59V317q-116-148-326-251Q937-38 767-38T474.5 12.5 266 152Q91 336 91 637q0 222 82 361 119 212 367 356 247 143 493 143 169 0 341-52 68-20 113-49 10-7 10-15t-16-22.5-40.5-33-53.5-38.5-55-37q-53-36-70-43 1 3 7 8t13 11q17 16 17 26 0 39-137 73-146 37-311 37t-268-40-169-116q-127-148-127-440 0-283 168-470 175-196 454-196 168 0 297 44 48 17 77 43v435H996l38 32q129 105 156 105h409zm-397 1161q-3-129-166-256-97-76-173.5-100T741 1540t-87 15-78 41q-83 60-138 179-4 7-4 12t14 17.5 35.5 26.5 46.5 28.5 46 27.5q51 29 52 33 66-159 184-223 43-24 79.5-24t55.5 14 31 32q22 32 27 55.5t32.5 42.5 61.5 38.5 64.5 36.5 38.5 28z"/><glyph glyph-name="gbreve" unicode="ğ" horiz-adv-x="971" d="M944 972q54 0 88 21-2-34-78-84-63-42-108-53 38-73 38-159t-33.5-153-84-118T657 337t-109.5-69-84-58-33.5-53.5 11.5-45.5T471 78q33-27 69.5-41t82-30T720-30.5t106-47 97-56.5q98-69 98-139T918-424Q763-547 516-593q-79-15-131.5-15t-90.5 3.5-78.5 11T136-574t-70 30q-69 40-69 91t19 89 50 70 70 58 79 48.5 77 42 64 37.5Q238-59 238 8t146 165q35 23 56 39-43-13-96.5-13T240 226.5 155 298q-71 91-71 217t94 239q83 99 221 164 131 61 254 61zM279 675q0-89 16-146.5T345 428q74-95 208-95 76 0 111 75 26 55 26 129 0 142-62 223.5T449 842t-143.5-39T279 675zM810.5-406q10.5 20 10.5 52.5t-37 65-96.5 60T400-124q-92-39-128-69-74-62-74-140 0-59 275-117 97-21 145-21t90 8 67 22.5 35.5 34.5zM869 1408q-3-129-166-256-97-76-173.5-100T408 1028t-87 15-78 41q-83 60-138 179-4 7-4 12t14 17.5 35.5 26.5 46.5 28.5 46 27.5q51 29 52 33 66-159 184-223 43-24 79.5-24t55.5 14 31 32q22 32 27 55.5t32.5 42.5 61.5 38.5 64.5 36.5 38.5 28z"/><glyph glyph-name="Gdotaccent" unicode="Ġ" horiz-adv-x="1637" d="M1599 759q-9-3-52-36t-72-59V317q-116-148-326-251Q937-38 767-38T474.5 12.5 266 152Q91 336 91 637q0 222 82 361 119 212 367 356 247 143 493 143 169 0 341-52 68-20 113-49 10-7 10-15t-16-22.5-40.5-33-53.5-38.5-55-37q-53-36-70-43 1 3 7 8t13 11q17 16 17 26 0 39-137 73-146 37-311 37t-268-40-169-116q-127-148-127-440 0-283 168-470 175-196 454-196 168 0 297 44 48 17 77 43v435H996l38 32q129 105 156 105h409zm-608 919-194-137-152 142 194 136z"/><glyph glyph-name="gdotaccent" unicode="ġ" horiz-adv-x="971" d="M944 972q54 0 88 21-2-34-78-84-63-42-108-53 38-73 38-159t-33.5-153-84-118T657 337t-109.5-69-84-58-33.5-53.5 11.5-45.5T471 78q33-27 69.5-41t82-30T720-30.5t106-47 97-56.5q98-69 98-139T918-424Q763-547 516-593q-79-15-131.5-15t-90.5 3.5-78.5 11T136-574t-70 30q-69 40-69 91t19 89 50 70 70 58 79 48.5 77 42 64 37.5Q238-59 238 8t146 165q35 23 56 39-43-13-96.5-13T240 226.5 155 298q-71 91-71 217t94 239q83 99 221 164 131 61 254 61zM279 675q0-89 16-146.5T345 428q74-95 208-95 76 0 111 75 26 55 26 129 0 142-62 223.5T449 842t-143.5-39T279 675zM810.5-406q10.5 20 10.5 52.5t-37 65-96.5 60T400-124q-92-39-128-69-74-62-74-140 0-59 275-117 97-21 145-21t90 8 67 22.5 35.5 34.5zM658 1175l-194-137-152 142 194 136z"/><glyph glyph-name="Gcommaaccent" unicode="Ģ" horiz-adv-x="1637" d="M1599 759q-9-3-52-36t-72-59V317q-116-148-326-251Q937-38 767-38T474.5 12.5 266 152Q91 336 91 637q0 222 82 361 119 212 367 356 247 143 493 143 169 0 341-52 68-20 113-49 10-7 10-15t-16-22.5-40.5-33-53.5-38.5-55-37q-53-36-70-43 1 3 7 8t13 11q17 16 17 26 0 39-137 73-146 37-311 37t-268-40-169-116q-127-148-127-440 0-283 168-470 175-196 454-196 168 0 297 44 48 17 77 43v435H996l38 32q129 105 156 105h409zM774-547q82 82 82 169 0 33-16 47-16 13-60-15-4-2-4-1l-84 133q-2 2 9 11t28 21.5 38 26 39 25.5q41 26 42 25 21-34 44.5-68t37.5-86.5-8-119.5-72-117q-9-9-30-22-37-21-46-29z"/><glyph glyph-name="gcommaaccent" unicode="ģ" horiz-adv-x="971" d="M944 972q54 0 88 21-2-34-78-84-63-42-108-53 38-73 38-159t-33.5-153-84-118T657 337t-109.5-69-84-58-33.5-53.5 11.5-45.5T471 78q33-27 69.5-41t82-30T720-30.5t106-47 97-56.5q98-69 98-139T918-424Q763-547 516-593q-79-15-131.5-15t-90.5 3.5-78.5 11T136-574t-70 30q-69 40-69 91t19 89 50 70 70 58 79 48.5 77 42 64 37.5Q238-59 238 8t146 165q35 23 56 39-43-13-96.5-13T240 226.5 155 298q-71 91-71 217t94 239q83 99 221 164 131 61 254 61zM279 675q0-89 16-146.5T345 428q74-95 208-95 76 0 111 75 26 55 26 129 0 142-62 223.5T449 842t-143.5-39T279 675zM810.5-406q10.5 20 10.5 52.5t-37 65-96.5 60T400-124q-92-39-128-69-74-62-74-140 0-59 275-117 97-21 145-21t90 8 67 22.5 35.5 34.5zM530 1476q-81-81-81-170 0-32 16-47 18-15 60 14 3 3 4 3l84-133q4-7-46-40t-68-44q-42-28-42-25-21 34-45 67.5t-38 87 9 119.5q33 98 112 145 28 16 35 23z"/><glyph glyph-name="Hcircumflex" unicode="Ĥ" horiz-adv-x="1665" d="M1629 136q-12-1-65-48-103-88-130-88h-338q53 59 67 94 22 56 22 145v443H441V388q0-95-9-129-14-52-63-123h321q-14-2-62-44t-68-57Q515 0 495 0H156q74 58 86 159 4 35 4 80v1064H59l39 31q127 105 155 105h437q-12 0-61-43t-69-58q-45-35-65-35h-54V818h744v485H998l38 31q128 105 157 105h436q-12 0-61-43t-68-58q-46-35-66-35h-54V388q0-95-9-129-14-54-62-123h320zm-466 1513q-171-137-190-137-7 0-101.5 103.5T773 1724l-83-79q-11-10-27-18.5t-39-23.5q-93-58-123-86l250 237q34 34 94 75 85 58 90 58t21-16 39-41 50.5-54.5 52-55.5 42.5-46 23-25z"/><glyph glyph-name="hcircumflex" unicode="ĥ" horiz-adv-x="1112" d="M348 218q0-100 58-100 20 0 61 17Q428 48 350 4q-40-23-85-20.5T200.5 8 170 61q-16 49-16 126v1142q0 106-37 141-17 16-43 16-43 0-94-14 122 96 368 251V806q125 110 256 150 48 15 93 15t85.5-14.5T855 916q71-59 71-147V260q0-132 64-146 18-4 38-4 31 0 87 25Q1032 29 922-4q-38-12-81.5-12T773 5t-33 53-9 70v448q0 153-47 206-43 50-159 50-155 0-173-212-4-54-4-100V218zm519.986 952.68q-140.774-112.525-156.416-112.525-5.763 0-83.559 85.01-77.796 85.01-81.09 89.117l-68.329-64.887q-9.055-8.214-22.227-15.195t-32.106-19.302q-76.562-47.639-101.26-70.636l205.812 194.66q27.99 27.926 77.384 61.601 69.976 47.639 74.092 47.639t17.288-13.142 32.107-33.676q18.934-20.533 41.574-44.763 22.639-24.23 42.809-45.585 20.168-21.355 34.987-37.783 14.818-16.426 18.934-20.533z"/><glyph glyph-name="Hbar" unicode="Ħ" horiz-adv-x="1665" d="M1629 136q-12-1-65-48-103-88-130-88h-338q53 59 67 94 22 56 22 145v443H441V388q0-95-9-129-14-52-63-123h321q-14-2-62-44t-68-57Q515 0 495 0H156q74 58 86 159 4 35 4 80v696H37q12 1 65.5 47.5t82 67.5 46.5 21h15v232H59l39 31q127 105 155 105h437q-12 0-61-43t-69-58q-45-35-65-35h-54v-232h744v232H998l38 31q128 105 157 105h436q-12 0-61-43t-68-58q-46-35-66-35h-54v-232h212q-12-1-65.5-47.5t-82-67.5-46.5-21h-18V388q0-95-9-129-14-54-62-123h320zm-444 682v117H441V818h744z"/><glyph glyph-name="hbar" unicode="ħ" horiz-adv-x="1112" d="M348 218q0-100 58-100 20 0 61 17Q428 48 350 4q-40-23-85-20.5T200.5 8 170 61q-16 49-16 126v864H-2q11 0 49 33 84 73 107 87v158q0 106-37 141-17 16-43 16-43 0-94-14 122 96 368 251v-536h150q-12-2-48-33-74-65-102-84V806q125 110 256 150 48 15 93 15t85.5-14.5T855 916q71-59 71-147V260q0-132 64-146 18-4 38-4 31 0 87 25Q1032 29 922-4q-38-12-81.5-12T773 5t-33 53-9 70v448q0 153-47 206-43 50-159 50-155 0-173-212-4-54-4-100V218z"/><glyph glyph-name="Itilde" unicode="Ĩ" horiz-adv-x="733" d="M59 1303q166 136 194 136h456q-13-2-61-44t-68-57q-45-35-65-35h-74V388q0-173-72-252h321q-14-2-62-44t-68-57Q515 0 495 0H156q53 53 67 90 23 59 23 149v1064H59zm771 468q-208-239-406-239-61 0-96.5 23t-53.5 38.5-39 29.5q-46 32-105 32-60 0-225-129 140 203 328 254 43 11 87 11t75.5-19.5T459 1729q86-62 166-62 57 0 156 73 25 18 49 31z"/><glyph glyph-name="itilde" unicode="ĩ" horiz-adv-x="578" d="M581 123q-30-24-58.5-49T463 28q-72-47-138-47-62 0-87 19-51 38-51 140v474q0 108-39 140-18 15-39 15t-35.5-2.5T44 761t-31-6q50 39 93.5 70t74.5 52 86 59.5 114 69.5V300q0-102 13-129 28-55 124-55 26 0 63 7zm172 1212q-208-239-406-239-61 0-96.5 23t-53.5 38.5-39 29.5q-46 32-105 32-60 0-225-129 140 203 328 254 43 11 87 11t75.5-19.5T382 1293q86-62 166-62 57 0 156 73 25 18 49 31z"/><glyph glyph-name="Imacron" unicode="Ī" horiz-adv-x="733" d="M59 1303q166 136 194 136h456q-13-2-61-44t-68-57q-45-35-65-35h-74V388q0-173-72-252h321q-14-2-62-44t-68-57Q515 0 495 0H156q53 53 67 90 23 59 23 149v1064H59zm767 377q-13-2-41.5-27t-48.5-42.5-39-32.5q-44-35-65-35H-90q10 1 64.5 48t83 68 46.5 21h722z"/><glyph glyph-name="imacron" unicode="ī" horiz-adv-x="578" d="M581 123q-30-24-58.5-49T463 28q-72-47-138-47-62 0-87 19-51 38-51 140v474q0 108-39 140-18 15-39 15t-35.5-2.5T44 761t-31-6q50 39 93.5 70t74.5 52 86 59.5 114 69.5V300q0-102 13-129 28-55 124-55 26 0 63 7zm167 1122q-13-2-41.5-27t-48.5-42.5-39-32.5q-44-35-65-35h-722q10 1 64.5 48t83 68 46.5 21h722z"/><glyph glyph-name="Ibreve" unicode="Ĭ" horiz-adv-x="733" d="M59 1303q166 136 194 136h456q-13-2-61-44t-68-57q-45-35-65-35h-74V388q0-173-72-252h321q-14-2-62-44t-68-57Q515 0 495 0H156q53 53 67 90 23 59 23 149v1064H59zm693 604q-3-129-166-256-97-76-173.5-100T291 1527t-87 15-78 41q-83 60-138 179-4 7-4 12t14 17.5 35.5 26.5 46.5 28.5 46 27.5q51 29 52 33 66-159 184-223 43-24 79.5-24t55.5 14 31 32q22 32 27 55.5t32.5 42.5 61.5 38.5 64.5 36.5 38.5 28z"/><glyph glyph-name="ibreve" unicode="ĭ" horiz-adv-x="578" d="M581 123q-30-24-58.5-49T463 28q-72-47-138-47-62 0-87 19-51 38-51 140v474q0 108-39 140-18 15-39 15t-35.5-2.5T44 761t-31-6q50 39 93.5 70t74.5 52 86 59.5 114 69.5V300q0-102 13-129 28-55 124-55 26 0 63 7zm93 1336q-3-129-166-256-97-76-173.5-100T213 1079t-87 15-78 41q-83 60-138 179-4 7-4 12t14 17.5 35.5 26.5T2 1398.5t46 27.5q51 29 52 33 66-159 184-223 43-24 79.5-24t55.5 14 31 32q22 32 27 55.5t32.5 42.5 61.5 38.5 64.5 36.5 38.5 28z"/><glyph glyph-name="Iogonek" unicode="Į" horiz-adv-x="733" d="M409 0q-61-80-61-155 0-70 54-125 52-54 124-54 50 0 140 57 22 14 43 24v-1q0-20-195-144-113-73-186-73-67 0-119 56-50 54-50 111t15.5 99 41.5 79Q268-54 352 0H156q53 53 67 90 23 59 23 149v1064H59q166 136 194 136h456q-13-2-61-44t-68-57q-45-35-65-35h-74V388q0-173-72-252h321q-14-2-62-44t-68-57Q515 0 495 0h-86z"/><glyph glyph-name="iogonek" unicode="į" horiz-adv-x="578" d="M692-254q0-20-194-144-114-73-187-73-67 0-119 56-50 54-50 109t13 93.5 35 72.5q45 69 118 121-55 3-77 23-44 42-44 136v474q0 108-39 140-18 15-39 15t-35.5-2.5T44 761t-31-6q50 39 93.5 70t74.5 52 86 59.5 114 69.5V300q0-102 13-129 28-55 124-55 26 0 63 7-24-19-47-39.5T487 45Q432 4 384-10q-53-74-53-145 0-70 53-125 53-54 125-54 50 0 140 57 22 14 43 24v-1zM372 1697l6-114v-52q0-48-12-58.5t-26-20.5q-56-40-162-108 5 100 5 103.5t-5 113.5z"/><glyph glyph-name="Idotaccent" unicode="İ" horiz-adv-x="733" d="M59 1303q166 136 194 136h456q-13-2-61-44t-68-57q-45-35-65-35h-74V388q0-173-72-252h321q-14-2-62-44t-68-57Q515 0 495 0H156q53 53 67 90 23 59 23 149v1064H59zm480 367-194-137-152 142 194 136z"/><glyph glyph-name="dotlessi" unicode="ı" horiz-adv-x="578" d="M581 123q-30-24-58.5-49T463 28q-72-47-138-47-62 0-87 19-51 38-51 140v474q0 108-39 140-18 15-39 15t-35.5-2.5T44 761t-31-6q50 39 93.5 70t74.5 52 86 59.5 114 69.5V300q0-102 13-129 28-55 124-55 26 0 63 7z"/><glyph glyph-name="IJ" unicode="Ĳ" horiz-adv-x="1443" d="M59 1303q166 136 194 136h456q-13-2-61-44t-68-57q-45-35-65-35h-74V388q0-173-72-252h321q-14-2-62-44t-68-57Q515 0 495 0H156q53 53 67 90 23 59 23 149v1064H59zm1381 136q-18-5-70-50.5t-79-65.5-45-20h-75V223q0-175-84-350-86-181-226-293-155-123-332-123-51 0-116 24.5T323-480q-56 31-56 59 0 29 162 141 51 37 80 51-52-35-52-60 0-12 48.5-41t83.5-44q81-34 140.5-34T830-383t68.5 66 43 93T965-117q12 83 12 203v1217H790q12 9 39.5 31.5T887 1380q76 59 97 59h456z"/><glyph glyph-name="ij" unicode="ĳ" horiz-adv-x="1120" d="m372 1697 6-114v-52q0-48-12-58.5t-26-20.5q-56-40-162-108 5 100 5 103.5t-5 113.5zM581 123q-30-24-58.5-49T463 28q-72-47-138-47-62 0-87 19-51 38-51 140v474q0 108-39 140-18 15-39 15t-35.5-2.5T44 761t-31-6q50 39 93.5 70t74.5 52 86 59.5 114 69.5V300q0-102 13-129 28-55 124-55 26 0 63 7zm371 1574q4-64 4-107v-66q0-45-15.5-57.5t-35-26.5-42.5-29.5-44.5-29-38-24T758 1344q3 33 3 92.5t-3 124.5zM638-375q-23-18-23-43.5t19-37.5 40-11h2q80 134 88 364 3 64 3 125v582q0 112-36 148-17 17-44 17-35 0-94-14 122 96 368 251V196q0-218-19.5-301.5T893-257t-70-130.5T730-498Q618-603 486-603q-64 0-64 48 0 31 32.5 57t57 42 48.5 30q62 36 78 51z"/><glyph glyph-name="Jcircumflex" unicode="Ĵ" horiz-adv-x="710" d="M707 1439q-18-5-70-50.5t-79-65.5-45-20h-75V223q0-175-84-350-86-181-226-293-155-123-332-123-51 0-116 24.5t-90 38.5q-56 31-56 59 0 29 162 141 51 37 80 51-52-35-52-60 0-12 48.5-41t83.5-44q81-34 140.5-34T97-383t68.5 66 43 93T232-117q12 83 12 203v1217H57q12 9 39.5 31.5T154 1380q76 59 97 59h456zm-21 213q-171-137-190-137-7 0-101.5 103.5T296 1727l-83-79q-11-10-27-18.5t-39-23.5q-93-58-123-86l250 237q34 34 94 75 85 58 90 58t21-16 39-41 50.5-54.5 52-55.5 42.5-46 23-25z"/><glyph glyph-name="jcircumflex" unicode="ĵ" horiz-adv-x="542" d="M60-375q-23-18-23-43.5T56-456t40-11h2q80 134 88 364 3 64 3 125v582q0 112-36 148-17 17-44 17-35 0-94-14 122 96 368 251V196q0-218-19.5-301.5T315-257t-70-130.5T152-498Q40-603-92-603q-64 0-64 48 0 31 32.5 57t57 42 48.5 30q62 36 78 51zm543 1585q-171-137-190-137-7 0-101.5 103.5T213 1285l-83-79q-11-10-27-18.5T64 1164q-93-58-123-86l250 237q34 34 94 75 85 58 90 58t21-16 39-41 50.5-54.5 52-55.5 42.5-46 23-25z"/><glyph glyph-name="Kcommaaccent" unicode="Ķ" horiz-adv-x="1630" d="M1117 1303q-125-134-447-434 589-580 712-667 95-68 184-68 46 0 151 47-56-53-100-82t-74-45.5-62-29.5q-123-50-209-13-65 27-118 74.5t-87 77.5-81 72.5-98 88.5q-95 89-202.5 191T462 727q483 463 582 576H869q69 62 125.5 99t68.5 37h397q-19-4-65.5-46t-64.5-57q-43-33-65-33h-148zM158 0q90 93 90 348v955H61l39 31q127 105 155 105h456q-11-1-65-47.5t-82.5-67.5-46.5-21h-74V388q0-95-9-129-14-52-63-123h321q-14-2-62-44t-68-57Q517 0 497 0H158zm613-547q82 82 82 169 0 33-16 47-16 13-60-15-4-2-4-1l-84 133q-2 2 9 11t28 21.5 38 26 39 25.5q41 26 42 25 21-34 44.5-68t37.5-86.5-8-119.5-72-117q-9-9-30-22-37-21-46-29z"/><glyph glyph-name="kcommaaccent" unicode="ķ" horiz-adv-x="1067" d="M155 1337q0 150-88 150-26 0-86-15 41 31 86.5 65.5T160 1606q102 71 190 117l-1-918q112 100 249 147 46 16 81 16t62.5-12 47.5-32q43-45 43-101t-28-101.5-69-85.5q-58-58-171-131 14-15 44.5-49t69-76 82-87 82.5-82q90-85 118-85 70 0 138 39Q1012 47 887-1q-42-16-73.5-16t-50 7T728 8q-33 22-89 78-117 118-290 305V288q0-23-.5-52.5T354 179q14-64 70-64 21 0 44 10-21-18-48.5-43T361 34q-74-55-122-55-84 0-84 144v1214zm335-505q-141 0-141-361v-52q183 73 259 182 30 43 30 83.5t-12 66-32 43.5q-44 38-104 38zm-1-1379q82 82 82 169 0 33-16 47-16 13-60-15-4-2-4-1l-84 133q-2 2 9 11t28 21.5 38 26 39 25.5q41 26 42 25 21-34 44.5-68t37.5-86.5-8-119.5-72-117q-9-9-30-22-37-21-46-29z"/><glyph glyph-name="kgreenlandic" unicode="ĸ" horiz-adv-x="1067" d="M155 626q0 150-88 150-26 0-86-15 41 31 86.5 65.5T160 894q102 72 190 118l-1-207q112 100 249 147 46 16 81 16t62.5-12 47.5-32q43-45 43-101t-28-101.5-69-85.5q-58-58-171-131 14-15 44.5-49t69-76 82-87 82.5-82q90-85 118-85 70 0 138 39Q1012 47 887-1q-42-16-73.5-16t-50 7T728 8q-33 22-89 78-117 118-290 305V288q0-23-.5-52.5T354 179q14-64 70-64 21 0 44 10-21-18-48.5-43T361 34q-74-55-122-55-84 0-84 144v503zm335 206q-141 0-141-361v-52q183 73 259 182 30 43 30 83.5t-12 66-32 43.5q-44 38-104 38z"/><glyph glyph-name="Lacute" unicode="Ĺ" horiz-adv-x="1121" d="M444 307q0-111-79-171h564q81 0 122.5 19t61.5 35Q994 43 858 8q-30-8-61-8H149q56 54 72 90 28 64 28 149v1064H62l38 31q128 105 156 105h456q-11 0-60-43t-68-58q-46-35-66-35h-74V307zM320 1506v12q79 52 137 119 70 81 155 196 1 2 57 43t62 45.5 19 11.5 25 14 26 15q-27-35-56.5-75.5T667 1793q-105-116-201.5-188T320 1506z"/><glyph glyph-name="lacute" unicode="ĺ" horiz-adv-x="552" d="M556 124q-33-26-63-52t-62-46q-71-46-147-46-110 0-120 152-2 41-2 80v1070q0 137-62 178-26 18-50 18-32 0-43-1.5t-19-2.5q144 100 182 120 50 27 103.5 53.5T356 1689V309q0-41 .5-76t11.5-61q25-54 126-54 32 0 62 6zM36 1604v12q79 52 137 119 70 81 155 196 1 2 57 43t62 45.5 19 11.5 25 14 26 15q-27-35-56.5-75.5T383 1891q-105-116-201.5-188T36 1604z"/><glyph glyph-name="Lcommaaccent" unicode="Ļ" horiz-adv-x="1121" d="M444 307q0-111-79-171h564q81 0 122.5 19t61.5 35Q994 43 858 8q-30-8-61-8H149q56 54 72 90 28 64 28 149v1064H62l38 31q128 105 156 105h456q-11 0-60-43t-68-58q-46-35-66-35h-74V307zm72-854q82 82 82 169 0 33-16 47-16 13-60-15-4-2-4-1l-84 133q-2 2 9 11t28 21.5 38 26 39 25.5q41 26 42 25 21-34 44.5-68t37.5-86.5-8-119.5-72-117q-9-9-30-22-37-21-46-29z"/><glyph glyph-name="lcommaaccent" unicode="ļ" horiz-adv-x="552" d="M556 124q-33-26-63-52t-62-46q-71-46-147-46-110 0-120 152-2 41-2 80v1070q0 137-62 178-26 18-50 18-32 0-43-1.5t-19-2.5q144 100 182 120 50 27 103.5 53.5T356 1689V309q0-41 .5-76t11.5-61q25-54 126-54 32 0 62 6zM232-547q82 82 82 169 0 33-16 47-16 13-60-15-4-2-4-1l-84 133q-2 2 9 11t28 21.5 38 26 39 25.5q41 26 42 25 21-34 44.5-68t37.5-86.5-8-119.5-72-117q-9-9-30-22-37-21-46-29z"/><glyph glyph-name="Lcaron" unicode="Ľ" horiz-adv-x="1121" d="M444 307q0-111-79-171h564q81 0 122.5 19t61.5 35Q994 43 858 8q-30-8-61-8H149q56 54 72 90 28 64 28 149v1064H62l38 31q128 105 156 105h456q-11 0-60-43t-68-58q-46-35-66-35h-74V307zm366 959q82 82 82 170 0 32-17 46-15 13-59-15-4-2-4-1l-84 134q-3 7 64 51 90 59 92 57 21-34 45-68t38-86.5-8.5-119T886 1317q-9-9-30-22-37-21-46-29z"/><glyph glyph-name="lcaron" unicode="ľ" horiz-adv-x="686" d="M556 124q-33-26-63-52t-62-46q-71-46-147-46-110 0-120 152-2 41-2 80v1070q0 137-62 178-26 18-50 18-32 0-43-1.5t-19-2.5q144 100 182 120 50 27 103.5 53.5T356 1689V309q0-41 .5-76t11.5-61q25-54 126-54 32 0 62 6zm-31 1105q82 82 82 170 0 32-17 46-15 13-59-15-4-2-4-1l-84 134q-3 7 64 51 90 59 92 57 21-34 45-68t38-86.5-8.5-119T601 1280q-9-9-30-22-37-21-46-29z"/><glyph glyph-name="Ldot" unicode="Ŀ" horiz-adv-x="1166" d="M444 307q0-111-79-171h564q81 0 122.5 19t61.5 35Q994 43 858 8q-30-8-61-8H149q56 54 72 90 28 64 28 149v1064H62l38 31q128 105 156 105h456q-11 0-60-43t-68-58q-46-35-66-35h-74V307zm667 399L917 570 812 737l194 136z"/><glyph glyph-name="ldotaccent" unicode="ŀ" horiz-adv-x="766" d="M556 124q-33-26-63-52t-62-46q-71-46-147-46-110 0-120 152-2 41-2 80v1070q0 137-62 178-26 18-50 18-32 0-43-1.5t-19-2.5q144 100 182 120 50 27 103.5 53.5T356 1689V309q0-41 .5-76t11.5-61q25-54 126-54 32 0 62 6zm207 582L569 570 464 737l194 136z"/><glyph glyph-name="Lslash" unicode="Ł" horiz-adv-x="1118" d="M441 307q0-111-79-171h564q81 0 122.5 19t61.5 35Q991 43 856 8q-31-8-62-8H146q56 54 72 90 28 64 28 149v316q-80-32-143-51l-10 23q51 33 153 97v679H59l39 31q127 105 155 105h456q-11 0-60-43t-69-58q-45-35-65-35h-74V743q75 49 165 129 62-11 120-1t94 30Q656 761 441 646V307z"/><glyph glyph-name="lslash" unicode="ł" horiz-adv-x="614" d="m-30 527 200 133v622q0 137-62 178-26 18-50 18-32 0-43-1.5t-19-2.5q144 100 182 120 50 27 103.5 53.5T364 1689V812l68 60q62-11 120.5-1t94.5 30Q522 794 364 694V309q0-41 .5-76t11.5-61q25-54 126-54 32 0 62 6-33-26-63-52t-62-46q-71-46-131-46T223.5 1.5 187 57q-17 48-17 155v374Q65 534-20 504z"/><glyph glyph-name="Nacute" unicode="Ń" horiz-adv-x="1824" d="M1401 343q23 266 23 504.5t-19 455.5h-178q12 9 39.5 31.5t57.5 45.5q76 59 97 59h377q-22-7-67.5-48t-71-61-50.5-26q2-24 2-48v-48l-3-223q0-368-79-778-2-10-4-24t-5-29q-5-35-12-50.5t-27-35-44-38.5q-28-24-85-64-12 75-86 167-357 446-805 944V584q0-293-45-379-25-45-46-69h323q-12-9-39.5-31.5T596 58Q520 0 499 0H170q86 124 98 326 4 58 4 318.5T250 1303H23q12 9 39.5 31.5T120 1380q76 59 97 59h377q-26-9-52-34t-35-33q268-284 456.5-507.5t272.5-321T1401 343zM903 1355v12q79 52 137 119 70 81 155 196 1 2 57 43t62 45.5 19 11.5 25 14 26 15q-27-35-56.5-75.5T1250 1642q-105-116-201.5-188T903 1355z"/><glyph glyph-name="nacute" unicode="ń" horiz-adv-x="1143" d="m190 68 1 643q0 67-18 90-31 40-86 40t-98-16q26 10 68 47 77 71 109 83 60 24 105.5 24t68-15 32.5-40q13-31 13-118 187 165 350 165 89 0 155-56 69-60 69-146V275q0-74 16-102 30-53 100-53 40 0 76 15-89-77-123-99-78-51-136.5-51t-83 21T774 59q-11 35-11 143v374q0 179-117 236-42 20-101 20-145 0-157-215-3-54-3-97V211q0-64 39-87 14-9 35-9t44 10q-21-18-50-43t-61-48q-79-54-126-54-76 0-76 88zm352 953v12q79 52 137 119 70 81 155 196 1 2 57 43t62 45.5 19 11.5 25 14 26 15q-27-35-56.5-75.5T889 1308q-105-116-201.5-188T542 1021z"/><glyph glyph-name="Ncommaaccent" unicode="Ņ" horiz-adv-x="1824" d="M1401 343q23 266 23 504.5t-19 455.5h-178q12 9 39.5 31.5t57.5 45.5q76 59 97 59h377q-22-7-67.5-48t-71-61-50.5-26q2-24 2-48v-48l-3-223q0-368-79-778-2-10-4-24t-5-29q-5-35-12-50.5t-27-35-44-38.5q-28-24-85-64-12 75-86 167-357 446-805 944V584q0-293-45-379-25-45-46-69h323q-12-9-39.5-31.5T596 58Q520 0 499 0H170q86 124 98 326 4 58 4 318.5T250 1303H23q12 9 39.5 31.5T120 1380q76 59 97 59h377q-26-9-52-34t-35-33q268-284 456.5-507.5t272.5-321T1401 343zM868-547q82 82 82 169 0 33-16 47-16 13-60-15-4-2-4-1l-84 133q-2 2 9 11t28 21.5 38 26 39 25.5q41 26 42 25 21-34 44.5-68t37.5-86.5-8-119.5-72-117q-9-9-30-22-37-21-46-29z"/><glyph glyph-name="ncommaaccent" unicode="ņ" horiz-adv-x="1143" d="m190 68 1 643q0 67-18 90-31 40-86 40t-98-16q26 10 68 47 77 71 109 83 60 24 105.5 24t68-15 32.5-40q13-31 13-118 187 165 350 165 89 0 155-56 69-60 69-146V275q0-74 16-102 30-53 100-53 40 0 76 15-89-77-123-99-78-51-136.5-51t-83 21T774 59q-11 35-11 143v374q0 179-117 236-42 20-101 20-145 0-157-215-3-54-3-97V211q0-64 39-87 14-9 35-9t44 10q-21-18-50-43t-61-48q-79-54-126-54-76 0-76 88zm337-615q82 82 82 169 0 33-16 47-16 13-60-15-4-2-4-1l-84 133q-2 2 9 11t28 21.5 38 26 39 25.5q41 26 42 25 21-34 44.5-68t37.5-86.5-8-119.5-72-117q-9-9-30-22-37-21-46-29z"/><glyph glyph-name="Ncaron" unicode="Ň" horiz-adv-x="1824" d="M1401 343q23 266 23 504.5t-19 455.5h-178q12 9 39.5 31.5t57.5 45.5q76 59 97 59h377q-22-7-67.5-48t-71-61-50.5-26q2-24 2-48v-48l-3-223q0-368-79-778-2-10-4-24t-5-29q-5-35-12-50.5t-27-35-44-38.5q-28-24-85-64-12 75-86 167-357 446-805 944V584q0-293-45-379-25-45-46-69h323q-12-9-39.5-31.5T596 58Q520 0 499 0H170q86 124 98 326 4 58 4 318.5T250 1303H23q12 9 39.5 31.5T120 1380q76 59 97 59h377q-26-9-52-34t-35-33q268-284 456.5-507.5t272.5-321T1401 343zM581 1666q171 137 190 137 7 0 101.5-103.5T971 1591l83 79q11 10 27 18.5t39 22.5q93 59 123 88l-250-238q-104-87-143.5-110t-42.5-23-19 16-39 41-50.5 54.5-52 56-42.5 46-23 24.5z"/><glyph glyph-name="ncaron" unicode="ň" horiz-adv-x="1143" d="m190 68 1 643q0 67-18 90-31 40-86 40t-98-16q26 10 68 47 77 71 109 83 60 24 105.5 24t68-15 32.5-40q13-31 13-118 187 165 350 165 89 0 155-56 69-60 69-146V275q0-74 16-102 30-53 100-53 40 0 76 15-89-77-123-99-78-51-136.5-51t-83 21T774 59q-11 35-11 143v374q0 179-117 236-42 20-101 20-145 0-157-215-3-54-3-97V211q0-64 39-87 14-9 35-9t44 10q-21-18-50-43t-61-48q-79-54-126-54-76 0-76 88zm50 1222q171 137 190 137 7 0 101.5-103.5T630 1215l83 79q11 10 27 18.5t39 22.5q93 59 123 88l-250-238q-104-87-143.5-110t-42.5-23-19 16-39 41-50.5 54.5-52 56-42.5 46-23 24.5z"/><glyph glyph-name="napostrophe" unicode="ŉ" horiz-adv-x="1388" d="M83 864q82 82 82 170 0 32-17 46-15 13-59-15-4-2-4-1L1 1198q-3 7 64 51 90 59 92 57 21-34 45-68t38-86.5-8.5-119T159 915q-9-9-30-22-37-21-46-29zM435 68l1 643q0 67-18 90-31 40-86 40t-98-16q26 10 68 47 77 71 109 83 60 24 105.5 24t68-15 32.5-40q13-31 13-118 187 165 350 165 89 0 155-56 69-60 69-146V275q0-74 16-102 30-53 100-53 40 0 76 15-89-77-123-99-78-51-136.5-51t-83 21-34.5 53q-11 35-11 143v374q0 179-117 236-42 20-101 20-145 0-157-215-3-54-3-97V211q0-64 39-87 14-9 35-9t44 10q-21-18-50-43t-61-48q-79-54-126-54-76 0-76 88z"/><glyph glyph-name="Eng" unicode="Ŋ" horiz-adv-x="1824" d="M1398 343q23 266 23 504.5t-19 455.5h-178q159 136 194 136h377q-14-2-63-46-96-83-126-89 9-159 9-348 0-464-71-854-26-138-158-290-128-149-294-246-176-102-322-102-52 0-119.5 21.5T557-480q-59 30-59 58 0 10 6.5 17.5T530-372q69 86 209 143-52-38-52-58.5t19-40 56-36.5q80-36 187.5-36t175 30 116.5 82q104 112 104 276 0 60-308 420-95 111-189 225-171 204-390 444 5-187 5-260V698q0-405-50-493-23-46-46-69h323Q524 0 496 0H157q93 101 103 278 22 407-13 1025H20q159 136 194 136h377q-23-3-87-67 285-302 465-516.5t264-312T1398 343z"/><glyph glyph-name="eng" unicode="ŋ" horiz-adv-x="1143" d="M267-20q-76 0-76 88v566q0 94-13 127-26 70-102 70-43 0-86-16 27 11 68 48 81 71 111 83 58 23 103.5 23t68-15 32.5-40q13-32 13-118 117 106 261 148 49 15 100.5 15t93.5-18 69-51q53-63 53-179V-31q0-242-112-472-80-163-210-235-67-36-150-36-44 0-63 26-6 9-6 23.5t8 26.5 20 21.5 25.5 17.5 36.5 23q87 53 127 89-23-20-23-38.5t5.5-27.5 14.5-15q16-11 41-11 91 164 91 474v681q0 152-30.5 206t-76 77.5T560 823t-80.5-16-41.5-42.5-27.5-60.5-15.5-68q-9-63-9-126V211q0-64 39-87 14-9 35-9t44 10q-21-18-50-43t-62-48q-78-54-125-54z"/><glyph glyph-name="Omacron" unicode="Ō" horiz-adv-x="1756" d="M1673 834q0-103-35-215.5t-96.5-215T1395 212 1210 58Q996-81 773-81q-315 0-499 183Q89 285 89 599q0 237 131 445 124 199 332 318 211 121 449 121 274 0 471-181 201-185 201-468zm-195-160q0 139-48.5 265.5T1292 1156q-186 187-495 187-403 0-487-339-26-107-26-254t45.5-278.5T463 246Q647 51 971 51q259 0 391 180 116 158 116 443zm-142 1015q-13-2-41.5-27t-48.5-42.5-39-32.5q-44-35-65-35H420q10 1 64.5 48t83 68 46.5 21h722z"/><glyph glyph-name="omacron" unicode="ō" d="M1001.5 731.5Q1030 657 1030 582t-22-146.5T946.5 298t-93-123.5T736 74Q600-17 461-17q-163 0-277 127Q73 232 73 396q0 140 85 281 127 214 346 289 70 25 148 25t148.5-34.5T922 864t79.5-132.5zM449 857q-100 0-146-97-36-76-36-172t25.5-178.5T368 262q111-146 286-146 102 0 148 102 33 76 33 175 0 193-107.5 328.5T449 857zm560 342q-13-2-41.5-27t-48.5-42.5-39-32.5q-44-35-65-35H93q10 1 64.5 48t83 68 46.5 21h722z"/><glyph glyph-name="Obreve" unicode="Ŏ" horiz-adv-x="1756" d="M1673 834q0-103-35-215.5t-96.5-215T1395 212 1210 58Q996-81 773-81q-315 0-499 183Q89 285 89 599q0 237 131 445 124 199 332 318 211 121 449 121 274 0 471-181 201-185 201-468zm-195-160q0 139-48.5 265.5T1292 1156q-186 187-495 187-403 0-487-339-26-107-26-254t45.5-278.5T463 246Q647 51 971 51q259 0 391 180 116 158 116 443zm-216 1251q-3-129-166-256-97-76-173.5-100T801 1545t-87 15-78 41q-83 60-138 179-4 7-4 12t14 17.5 35.5 26.5 46.5 28.5 46 27.5q51 29 52 33 66-159 184-223 43-24 79.5-24t55.5 14 31 32q22 32 27 55.5t32.5 42.5 61.5 38.5 64.5 36.5 38.5 28z"/><glyph glyph-name="obreve" unicode="ŏ" d="M1001.5 731.5Q1030 657 1030 582t-22-146.5T946.5 298t-93-123.5T736 74Q600-17 461-17q-163 0-277 127Q73 232 73 396q0 140 85 281 127 214 346 289 70 25 148 25t148.5-34.5T922 864t79.5-132.5zM449 857q-100 0-146-97-36-76-36-172t25.5-178.5T368 262q111-146 286-146 102 0 148 102 33 76 33 175 0 193-107.5 328.5T449 857zm486 569q-3-129-166-256-97-76-173.5-100T474 1046t-87 15-78 41q-83 60-138 179-4 7-4 12t14 17.5 35.5 26.5 46.5 28.5 46 27.5q51 29 52 33 66-159 184-223 43-24 79.5-24t55.5 14 31 32q22 32 27 55.5t32.5 42.5 61.5 38.5 64.5 36.5 38.5 28z"/><glyph glyph-name="Ohungarumlaut" unicode="Ő" horiz-adv-x="1756" d="M1673 834q0-103-35-215.5t-96.5-215T1395 212 1210 58Q996-81 773-81q-315 0-499 183Q89 285 89 599q0 237 131 445 124 199 332 318 211 121 449 121 274 0 471-181 201-185 201-468zm-195-160q0 139-48.5 265.5T1292 1156q-186 187-495 187-403 0-487-339-26-107-26-254t45.5-278.5T463 246Q647 51 971 51q259 0 391 180 116 158 116 443zm-532 865v12q79 52 137 119 70 81 155 196 1 2 57 43t62 45.5 19 11.5 25 14 26 15q-27-35-56.5-75.5T1293 1826q-105-116-201.5-188T946 1539zm-270 0v12q79 52 137 119 70 81 155 196 1 2 57 43t62 45.5 19 11.5 25 14 26 15q-27-35-56.5-75.5T1023 1826q-105-116-201.5-188T676 1539z"/><glyph glyph-name="ohungarumlaut" unicode="ő" d="M1001.5 731.5Q1030 657 1030 582t-22-146.5T946.5 298t-93-123.5T736 74Q600-17 461-17q-163 0-277 127Q73 232 73 396q0 140 85 281 127 214 346 289 70 25 148 25t148.5-34.5T922 864t79.5-132.5zM449 857q-100 0-146-97-36-76-36-172t25.5-178.5T368 262q111-146 286-146 102 0 148 102 33 76 33 175 0 193-107.5 328.5T449 857zm132 176v12q79 52 137 119 70 81 155 196 1 2 57 43t62 45.5 19 11.5 25 14 26 15q-27-35-56.5-75.5T928 1320q-105-116-201.5-188T581 1033zm-270 0v12q79 52 137 119 70 81 155 196 1 2 57 43t62 45.5 19 11.5 25 14 26 15q-27-35-56.5-75.5T658 1320q-105-116-201.5-188T311 1033z"/><glyph glyph-name="OE" unicode="Œ" horiz-adv-x="2367" d="M1379 1373q84 66 107 66h826q-13-1-66.5-47.5t-82-67.5-46.5-21h-444V818h485q-11-1-35.5-22.5T2068 749q-79-67-104-67h-291V356q0-111-33-182-14-28-35-38h556q54 0 118 26l63 26q-50-60-219-150-72-38-97-38h-637q90 122 90 239v71Q1268 35 973-52q-99-29-228-29T489.5-34 274 102Q89 285 89 599q0 237 131 445 124 199 332 318 211 121 434 121t393-110zm-41-691q94 74 132 102-38 259-217 408-182 151-456 151-403 0-487-339-26-107-26-254t45.5-278.5T463 246Q647 51 971 51q260 0 391 180 116 158 116 428v23h-140z"/><glyph glyph-name="oe" unicode="œ" horiz-adv-x="1634" d="M1052 373q67-252 321-252 106 0 223 64Q1456 32 1255-6q-46-8-97-8-201 0-285 211Q742 46 574-1q-56-16-126-16T307 17.5 184 110Q73 232 73 396q0 140 85 281 127 214 346 289 70 25 136 25t118.5-18 97.5-49q86-62 135-168 131 154 283 206 50 18 89.5 18t65-12 43.5-32q39-43 39-98t-24-101.5-62.5-90.5-88-84.5T1236 486q-72-50-184-113zm241 213.5q27 42.5 27 83.5t-9 69.5-27 50.5q-38 50-85.5 50t-72-16-41.5-42-27.5-59-15.5-67q-10-60-10-120.5t9-114.5q104 28 164.5 75.5t87.5 90zM449 857q-100 0-146-97-36-76-36-172t25.5-178.5T368 262q111-146 286-146 102 0 148 102 33 76 33 175 0 193-107.5 328.5T449 857z"/><glyph glyph-name="Racute" unicode="Ŕ" horiz-adv-x="1433" d="M712 1439q462 0 462-301 0-146-124-272-98-99-254-174 78-31 154-115 21-24 44-49l260-288q68-77 98.5-92t50.5-15q46 0 96 32Q1379-5 1201-5q-45 0-89 51-11 13-23 26L822 367q-57 63-97 105.5T646 541q-74 49-202 49V388q0-98-8-131-13-49-63-121h320q-13-2-41.5-27T603 66.5 564 34Q519 0 499 0H170q80 88 80 239v1064H34l38 31q128 105 156 105h484zm268-446q0 86-37 145t-96 96q-110 69-279 69H444V730h156q179 0 264 45 116 61 116 218zm-386 496v12q79 52 137 119 70 81 155 196 1 2 57 43t62 45.5 19 11.5 25 14 26 15q-27-35-56.5-75.5T941 1776q-105-116-201.5-188T594 1489z"/><glyph glyph-name="racute" unicode="ŕ" horiz-adv-x="884" d="M970 972Q849 794 677 794q-28 0-72 22-84 42-113.5 42T444 839t-30-53q-27-74-27-192V211q0-64 39-87 14-9 35-9t44 10q-20-18-39-42.5T423 35q-57-55-135-55-40 0-68 25.5T192 68v576q0 35 1 70t-7 64q-19 63-109 63-43 0-86-16 26 9 67 47 80 72 111 84 64 23 103.5 23t61-11.5T367 936q20-33 20-102 29 22 63.5 49.5T522 936q89 59 155 59 39 0 82-22t64-32 39-10q40 0 108 41zm-595 78v12q79 52 137 119 70 81 155 196 1 2 57 43t62 45.5 19 11.5 25 14 26 15q-27-35-56.5-75.5T722 1337q-105-116-201.5-188T375 1050z"/><glyph glyph-name="Rcommaaccent" unicode="Ŗ" horiz-adv-x="1433" d="M712 1439q462 0 462-301 0-146-124-272-98-99-254-174 78-31 154-115 21-24 44-49l260-288q68-77 98.5-92t50.5-15q46 0 96 32Q1379-5 1201-5q-45 0-89 51-11 13-23 26L822 367q-57 63-97 105.5T646 541q-74 49-202 49V388q0-98-8-131-13-49-63-121h320q-13-2-41.5-27T603 66.5 564 34Q519 0 499 0H170q80 88 80 239v1064H34l38 31q128 105 156 105h484zm268-446q0 86-37 145t-96 96q-110 69-279 69H444V730h156q179 0 264 45 116 61 116 218zM672-547q82 82 82 169 0 33-16 47-16 13-60-15-4-2-4-1l-84 133q-2 2 9 11t28 21.5 38 26 39 25.5q41 26 42 25 21-34 44.5-68t37.5-86.5-8-119.5-72-117q-9-9-30-22-37-21-46-29z"/><glyph glyph-name="rcommaaccent" unicode="ŗ" horiz-adv-x="884" d="M970 972Q849 794 677 794q-28 0-72 22-84 42-113.5 42T444 839t-30-53q-27-74-27-192V211q0-64 39-87 14-9 35-9t44 10q-20-18-39-42.5T423 35q-57-55-135-55-40 0-68 25.5T192 68v576q0 35 1 70t-7 64q-19 63-109 63-43 0-86-16 26 9 67 47 80 72 111 84 64 23 103.5 23t61-11.5T367 936q20-33 20-102 29 22 63.5 49.5T522 936q89 59 155 59 39 0 82-22t64-32 39-10q40 0 108 41zM398-547q82 82 82 169 0 33-16 47-16 13-60-15-4-2-4-1l-84 133q-2 2 9 11t28 21.5 38 26 39 25.5q41 26 42 25 21-34 44.5-68t37.5-86.5-8-119.5-72-117q-9-9-30-22-37-21-46-29z"/><glyph glyph-name="Rcaron" unicode="Ř" horiz-adv-x="1433" d="M712 1439q462 0 462-301 0-146-124-272-98-99-254-174 78-31 154-115 21-24 44-49l260-288q68-77 98.5-92t50.5-15q46 0 96 32Q1379-5 1201-5q-45 0-89 51-11 13-23 26L822 367q-57 63-97 105.5T646 541q-74 49-202 49V388q0-98-8-131-13-49-63-121h320q-13-2-41.5-27T603 66.5 564 34Q519 0 499 0H170q80 88 80 239v1064H34l38 31q128 105 156 105h484zm268-446q0 86-37 145t-96 96q-110 69-279 69H444V730h156q179 0 264 45 116 61 116 218zm-595 761q171 137 190 137 7 0 101.5-103.5T775 1679l83 79q11 10 27 18.5t39 22.5q93 59 123 88l-250-238q-104-87-143.5-110t-42.5-23-19 16-39 41-50.5 54.5-52 56-42.5 46-23 24.5z"/><glyph glyph-name="rcaron" unicode="ř" horiz-adv-x="884" d="M970 972Q849 794 677 794q-28 0-72 22-84 42-113.5 42T444 839t-30-53q-27-74-27-192V211q0-64 39-87 14-9 35-9t44 10q-20-18-39-42.5T423 35q-57-55-135-55-40 0-68 25.5T192 68v576q0 35 1 70t-7 64q-19 63-109 63-43 0-86-16 26 9 67 47 80 72 111 84 64 23 103.5 23t61-11.5T367 936q20-33 20-102 29 22 63.5 49.5T522 936q89 59 155 59 39 0 82-22t64-32 39-10q40 0 108 41zm-767 301q171 137 190 137 7 0 101.5-103.5T593 1198l83 79q11 10 27 18.5t39 22.5q93 59 123 88l-250-238q-104-87-143.5-110t-42.5-23-19 16-39 41-50.5 54.5-52 56-42.5 46-23 24.5z"/><glyph glyph-name="Sacute" unicode="Ś" horiz-adv-x="1157" d="M789 1207q34 34 34 49.5t-14.5 26.5-37 19-50 13.5-53.5 8.5q-52 6-88.5 6t-84-7-87.5-27q-91-46-91-137t33.5-145.5T438 923t123.5-60T704 818t142.5-45T970 712q121-83 121-231 0-145-123-269Q863 106 689 38 532-24 388-24q-89 0-161.5 21T124 34q-70 35-70 83 0 77 229 202-30-33-30-63.5t19.5-52 50.5-37 69.5-25.5 76.5-16q70-11 127-11t112 10.5 98 36.5q97 58 97 183 0 194-246 288-70 26-143.5 49.5T370 730t-124 60q-122 80-122 211 0 109 123 225 106 100 267 172 153 69 261 69 97 0 156-18t74.5-27.5 15.5-22-14-30-36-37.5-48.5-40-52.5-37q-60-39-81-48zm-312 241v12q79 52 137 119 70 81 155 196 1 2 57 43t62 45.5 19 11.5 25 14 26 15q-27-35-56.5-75.5T824 1735q-105-116-201.5-188T477 1448z"/><glyph glyph-name="sacute" unicode="ś" horiz-adv-x="833" d="M512 776q19 14 19 30t-19 25-44 14q-39 8-72.5 8t-52-3.5T312 837q-28-19-28-67t21-78.5 55.5-51.5 78.5-35 89.5-27.5T618 548t78-42q77-56 77-154 0-97-93-190-79-79-208-134-120-52-214-52-114 0-183 48-25 18-25 46.5t26 52 61 44 70 39 53 39.5q-18-20-18-45t28-42.5 66-27.5q66-16 127-16t88.5 22.5T579 212t-21 86.5-55 57.5-78 40.5-89.5 32T246 460t-78 39q-76 51-76 133 0 78 92 167 80 76 167 119 149 72 225 72 79 0 114-17t35-29.5-8-22.5-19.5-18.5T674 887t-34-21-59-37.5-69-52.5zM315 979v12q79 52 137 119 70 81 155 196 1 2 57 43t62 45.5 19 11.5 25 14 26 15q-27-35-56.5-75.5T662 1266q-105-116-201.5-188T315 979z"/><glyph glyph-name="Scircumflex" unicode="Ŝ" horiz-adv-x="1157" d="M789 1207q34 34 34 49.5t-14.5 26.5-37 19-50 13.5-53.5 8.5q-52 6-88.5 6t-84-7-87.5-27q-91-46-91-137t33.5-145.5T438 923t123.5-60T704 818t142.5-45T970 712q121-83 121-231 0-145-123-269Q863 106 689 38 532-24 388-24q-89 0-161.5 21T124 34q-70 35-70 83 0 77 229 202-30-33-30-63.5t19.5-52 50.5-37 69.5-25.5 76.5-16q70-11 127-11t112 10.5 98 36.5q97 58 97 183 0 194-246 288-70 26-143.5 49.5T370 730t-124 60q-122 80-122 211 0 109 123 225 106 100 267 172 153 69 261 69 97 0 156-18t74.5-27.5 15.5-22-14-30-36-37.5-48.5-40-52.5-37q-60-39-81-48zm158 459q-171-137-190-137-7 0-101.5 103.5T557 1741l-83-79q-11-10-27-18.5t-39-23.5q-93-58-123-86l250 237q34 34 94 75 85 58 90 58t21-16 39-41 50.5-54.5 52-55.5 42.5-46 23-25z"/><glyph glyph-name="scircumflex" unicode="ŝ" horiz-adv-x="833" d="M512 776q19 14 19 30t-19 25-44 14q-39 8-72.5 8t-52-3.5T312 837q-28-19-28-67t21-78.5 55.5-51.5 78.5-35 89.5-27.5T618 548t78-42q77-56 77-154 0-97-93-190-79-79-208-134-120-52-214-52-114 0-183 48-25 18-25 46.5t26 52 61 44 70 39 53 39.5q-18-20-18-45t28-42.5 66-27.5q66-16 127-16t88.5 22.5T579 212t-21 86.5-55 57.5-78 40.5-89.5 32T246 460t-78 39q-76 51-76 133 0 78 92 167 80 76 167 119 149 72 225 72 79 0 114-17t35-29.5-8-22.5-19.5-18.5T674 887t-34-21-59-37.5-69-52.5zm256 412q-171-137-190-137-7 0-101.5 103.5T378 1263l-83-79q-11-10-27-18.5t-39-23.5q-93-58-123-86l250 237q34 34 94 75 85 58 90 58t21-16 39-41 50.5-54.5 52-55.5 42.5-46 23-25z"/><glyph glyph-name="Scedilla" unicode="Ş" horiz-adv-x="1157" d="M789 1207q34 34 34 49.5t-14.5 26.5-37 19-50 13.5-53.5 8.5q-52 6-88.5 6t-84-7-87.5-27q-91-46-91-137t33.5-145.5T438 923t123.5-60T704 818t142.5-45T970 712q121-83 121-231 0-172-167-311Q779 52 571 0L467-107q7 5 24.5 8t41.5 6.5 58-3 55-24.5q50-40 7-117-61-108-338-264 26 26 57 46.5t55 36.5 36.5 42.5T478-320q7 104-127 93-37-3-72-14-8-3-2 3L467-40q4 3 9 7t25 19q-60-10-96.5-10T336-21t-69 10-75 18-68 27q-70 35-70 83 0 77 229 202-30-33-30-63.5t19.5-52 50.5-37 69.5-25.5 76.5-16q70-11 127-11t112 10.5 98 36.5q97 58 97 183 0 194-246 288-70 26-143.5 49.5T370 730t-124 60q-122 80-122 211 0 109 123 225 106 100 267 172 153 69 261 69 97 0 156-18t74.5-27.5 15.5-22-14-30-36-37.5-48.5-40-52.5-37q-60-39-81-48z"/><glyph glyph-name="scedilla" unicode="ş" horiz-adv-x="833" d="M520 783q11 11 11 25t-19 23-44 14q-39 8-72.5 8t-52-3.5T312 837q-28-19-28-67t21-78.5 55.5-51.5 78.5-35 89.5-27.5T618 548t78-42q77-56 77-154 0-106-110-206-97-87-234-136L315-107q7 5 24.5 8t41.5 6.5 58-3 55-24.5q50-40 7-117-61-108-338-264 26 26 57 46.5t55 36.5 36.5 42.5T326-320q7 104-127 93-37-3-72-14-8-3-2 3L315-40q5 4 12.5 10.5T351-12q-51-12-82-12t-66 4.5T134-4Q50 23 50 69q0 47 87 97 35 21 70 39.5t53 39.5q-18-20-18-45t28-42.5 66-27.5q66-16 127-16t88.5 22.5T579 212t-21 86.5-55 57.5-78 40.5-89.5 32T246 460t-78 39q-76 51-76 133 0 78 92 167 80 76 167 119 149 72 225 72 79 0 114-17t35-29.5-8-22.5-19.5-18.5T674 887t-33-20q-85-53-121-84zm0 0-8-7z"/><glyph glyph-name="Scaron" unicode="Š" horiz-adv-x="1157" d="M789 1207q34 34 34 49.5t-14.5 26.5-37 19-50 13.5-53.5 8.5q-52 6-88.5 6t-84-7-87.5-27q-91-46-91-137t33.5-145.5T438 923t123.5-60T704 818t142.5-45T970 712q121-83 121-231 0-145-123-269Q863 106 689 38 532-24 388-24q-89 0-161.5 21T124 34q-70 35-70 83 0 77 229 202-30-33-30-63.5t19.5-52 50.5-37 69.5-25.5 76.5-16q70-11 127-11t112 10.5 98 36.5q97 58 97 183 0 194-246 288-70 26-143.5 49.5T370 730t-124 60q-122 80-122 211 0 109 123 225 106 100 267 172 153 69 261 69 97 0 156-18t74.5-27.5 15.5-22-14-30-36-37.5-48.5-40-52.5-37q-60-39-81-48zm-478 555q171 137 190 137 7 0 101.5-103.5T701 1687l83 79q11 10 27 18.5t39 22.5q93 59 123 88l-250-238q-104-87-143.5-110t-42.5-23-19 16-39 41-50.5 54.5-52 56-42.5 46-23 24.5z"/><glyph glyph-name="scaron" unicode="š" horiz-adv-x="832" d="M512 776q19 14 19 30t-19 25-44 14q-39 8-72.5 8t-52-3.5T312 837q-28-19-28-67t21-78.5 55.5-51.5 78.5-35 89.5-27.5T618 548t78-42q77-56 77-154 0-97-93-190-79-79-208-134-120-52-214-52-114 0-183 48-25 18-25 46.5t26 52 61 44 70 39 53 39.5q-18-20-18-45t28-42.5 66-27.5q66-16 127-16t88.5 22.5T579 212t-21 86.5-55 57.5-78 40.5-89.5 32T246 460t-78 39q-76 51-76 133 0 78 92 167 80 76 167 119 149 72 225 72 79 0 114-17t35-29.5-8-22.5-19.5-18.5T674 887t-34-21-59-37.5-69-52.5zm-382 489q171 137 190 137 7 0 101.5-103.5T520 1190l83 79q11 10 27 18.5t39 22.5q93 59 123 88l-250-238q-104-87-143.5-110t-42.5-23-19 16-39 41-50.5 54.5-52 56-42.5 46-23 24.5z"/><glyph glyph-name="Tcommaaccent" unicode="Ţ" horiz-adv-x="1248" d="M-18 1303q166 136 194 136h1128q-13-2-61-44t-67-57q-46-35-66-35H700V388q0-121-41-200-18-34-40-52h330q-14-2-62-44t-67-57Q774 0 754 0H406q60 54 75 91 24 59 24 148v1064H-18zM580-547q82 82 82 169 0 33-16 47-16 13-60-15-4-2-4-1l-84 133q-2 2 9 11t28 21.5 38 26 39 25.5q41 26 42 25 21-34 44.5-68t37.5-86.5-8-119.5-72-117q-9-9-30-22-37-21-46-29z"/><glyph glyph-name="tcommaaccent" unicode="ţ" horiz-adv-x="682" d="m47 867 130 102v142q54 38 77 58t39 29 33 19q43 25 46 30v-244h320q-13-1-66-48-101-88-128-88H372V331q0-184 106-213 32-8 60-8 46 0 78 13.5t53 24.5Q608 55 498 6q-57-25-122.5-25T274 4t-58 60q-39 68-39 180v623H47zM297-547q82 82 82 169 0 33-16 47-16 13-60-15-4-2-4-1l-84 133q-2 2 9 11t28 21.5 38 26 39 25.5q41 26 42 25 21-34 44.5-68t37.5-86.5-8-119.5-72-117q-9-9-30-22-37-21-46-29z"/><glyph glyph-name="Tcaron" unicode="Ť" horiz-adv-x="1248" d="M-18 1303q166 136 194 136h1128q-13-2-61-44t-67-57q-46-35-66-35H700V388q0-121-41-200-18-34-40-52h330q-14-2-62-44t-67-57Q774 0 754 0H406q60 54 75 91 24 59 24 148v1064H-18zm311 427q171 137 190 137 7 0 101.5-103.5T683 1655l83 79q11 10 27 18.5t39 22.5q93 59 123 88l-250-238q-104-87-143.5-110t-42.5-23-19 16-39 41-50.5 54.5-52 56-42.5 46-23 24.5z"/><glyph glyph-name="tcaron" unicode="ť" horiz-adv-x="927" d="m47 867 130 102v142q54 38 77 58t39 29 33 19q43 25 46 30v-244h320q-13-1-66-48-101-88-128-88H372V331q0-184 106-213 32-8 60-8 46 0 78 13.5t53 24.5Q608 55 498 6q-57-25-122.5-25T274 4t-58 60q-39 68-39 180v623H47zm718 127q82 82 82 170 0 32-17 46-15 13-59-15-4-2-4-1l-84 134q-3 7 64 51 90 59 92 57 21-34 45-68t38-86.5-8.5-119T841 1045q-9-9-30-22-37-21-46-29z"/><glyph glyph-name="Tbar" unicode="Ŧ" horiz-adv-x="1248" d="M-18 1303q166 136 194 136h1128q-13-2-61-44t-67-57q-46-35-66-35H700V813h247q-15-2-50.5-26T836 746t-50-33q-58-38-86-43V388q0-121-41-200-18-34-40-52h330q-14-2-62-44t-67-57Q774 0 754 0H406q60 54 75 91 24 59 24 148v430H282q12 0 69 39 122 82 154 96v499H-18z"/><glyph glyph-name="tbar" unicode="ŧ" horiz-adv-x="682" d="m47 867 130 102v142q54 38 77 58t39 29 33 19q43 25 46 30v-244h320q-13-1-66-48-101-88-128-88H372V615h164q-14-2-53-37-82-72-111-89V331q0-184 106-213 32-8 60-8 46 0 78 13.5t53 24.5Q608 55 498 6q-57-25-122.5-25T274 4t-58 60q-39 68-39 180v235H36q10 0 44 29 66 58 97 81v278H47z"/><glyph glyph-name="Utilde" unicode="Ũ" horiz-adv-x="1724" d="M1728 1440q-21-6-46-28t-52-46q-68-62-97-62h-74V389q0-110-45-199-15-31-36-53h330q-24-7-73.5-52.5t-75-64.5T1513 1h-328q60 84 69.5 131t10.5 83q-159-115-258-159-186-83-328-83T452 8 316 108q-97 122-97 366v830H50q12 9 39 31.5t58 46.5q77 58 97 58h417q-24-7-73.5-52.5t-75-64.5-46.5-19h-53V531q0-204 124-315 119-105 326-105 141 0 315 87 50 25 87 53v1053h-188q12 9 39.5 31.5t58.5 46.5q77 58 97 58h456zm-404 321q-208-239-406-239-61 0-96.5 23t-53.5 38.5-39 29.5q-46 32-105 32-60 0-225-129 140 203 328 254 43 11 87 11t75.5-19.5T953 1719q86-62 166-62 57 0 156 73 25 18 49 31z"/><glyph glyph-name="utilde" unicode="ũ" horiz-adv-x="1170" d="M670 828q161 145 236 145t75-96V242q0-60 27-90t90-30q44 0 86 16-33-12-59.5-37.5T1068 49q-75-65-171-65-92 0-105 102-3 29-4 59Q570-20 401-20 287-20 229 80q-52 90-52 246v337q0 87-15 118-28 62-101 62-35 0-71-15 122 109 198 138 37 15 77 15 109 0 109-139v-67l-1-373q0-143 53-210 58-76 193-76 66 0 137 57 18 14 32 24v528q0 74-36 102-15 11-37 11t-45-10zm377 476q-208-239-406-239-61 0-96.5 23t-53.5 38.5-39 29.5q-46 32-105 32-60 0-225-129 140 203 328 254 43 11 87 11t75.5-19.5T676 1262q86-62 166-62 57 0 156 73 25 18 49 31z"/><glyph glyph-name="Umacron" unicode="Ū" horiz-adv-x="1724" d="M1728 1440q-21-6-46-28t-52-46q-68-62-97-62h-74V389q0-110-45-199-15-31-36-53h330q-24-7-73.5-52.5t-75-64.5T1513 1h-328q60 84 69.5 131t10.5 83q-159-115-258-159-186-83-328-83T452 8 316 108q-97 122-97 366v830H50q12 9 39 31.5t58 46.5q77 58 97 58h417q-24-7-73.5-52.5t-75-64.5-46.5-19h-53V531q0-204 124-315 119-105 326-105 141 0 315 87 50 25 87 53v1053h-188q12 9 39.5 31.5t58.5 46.5q77 58 97 58h456zm-408 240q-13-2-41.5-27t-48.5-42.5-39-32.5q-44-35-65-35H404q10 1 64.5 48t83 68 46.5 21h722z"/><glyph glyph-name="umacron" unicode="ū" horiz-adv-x="1170" d="M670 828q161 145 236 145t75-96V242q0-60 27-90t90-30q44 0 86 16-33-12-59.5-37.5T1068 49q-75-65-171-65-92 0-105 102-3 29-4 59Q570-20 401-20 287-20 229 80q-52 90-52 246v337q0 87-15 118-28 62-101 62-35 0-71-15 122 109 198 138 37 15 77 15 109 0 109-139v-67l-1-373q0-143 53-210 58-76 193-76 66 0 137 57 18 14 32 24v528q0 74-36 102-15 11-37 11t-45-10zm373 413q-13-2-41.5-27t-48.5-42.5-39-32.5q-44-35-65-35H127q10 1 64.5 48t83 68 46.5 21h722z"/><glyph glyph-name="Ubreve" unicode="Ŭ" horiz-adv-x="1724" d="M1728 1440q-21-6-46-28t-52-46q-68-62-97-62h-74V389q0-110-45-199-15-31-36-53h330q-24-7-73.5-52.5t-75-64.5T1513 1h-328q60 84 69.5 131t10.5 83q-159-115-258-159-186-83-328-83T452 8 316 108q-97 122-97 366v830H50q12 9 39 31.5t58 46.5q77 58 97 58h417q-24-7-73.5-52.5t-75-64.5-46.5-19h-53V531q0-204 124-315 119-105 326-105 141 0 315 87 50 25 87 53v1053h-188q12 9 39.5 31.5t58.5 46.5q77 58 97 58h456zm-482 451q-3-129-166-256-97-76-173.5-100T785 1511t-87 15-78 41q-83 60-138 179-4 7-4 12t14 17.5 35.5 26.5 46.5 28.5 46 27.5q51 29 52 33 66-159 184-223 43-24 79.5-24t55.5 14 31 32q22 32 27 55.5t32.5 42.5 61.5 38.5 64.5 36.5 38.5 28z"/><glyph glyph-name="ubreve" unicode="ŭ" horiz-adv-x="1170" d="M670 828q161 145 236 145t75-96V242q0-60 27-90t90-30q44 0 86 16-33-12-59.5-37.5T1068 49q-75-65-171-65-92 0-105 102-3 29-4 59Q570-20 401-20 287-20 229 80q-52 90-52 246v337q0 87-15 118-28 62-101 62-35 0-71-15 122 109 198 138 37 15 77 15 109 0 109-139v-67l-1-373q0-143 53-210 58-76 193-76 66 0 137 57 18 14 32 24v528q0 74-36 102-15 11-37 11t-45-10zm299 589q-3-129-166-256-97-76-173.5-100T508 1037t-87 15-78 41q-83 60-138 179-4 7-4 12t14 17.5 35.5 26.5 46.5 28.5 46 27.5q51 29 52 33 66-159 184-223 43-24 79.5-24t55.5 14 31 32q22 32 27 55.5t32.5 42.5 61.5 38.5 64.5 36.5 38.5 28z"/><glyph glyph-name="Uring" unicode="Ů" horiz-adv-x="1724" d="M1728 1440q-21-6-46-28t-52-46q-68-62-97-62h-74V389q0-110-45-199-15-31-36-53h330q-24-7-73.5-52.5t-75-64.5T1513 1h-328q60 84 69.5 131t10.5 83q-159-115-258-159-186-83-328-83T452 8 316 108q-97 122-97 366v830H50q12 9 39 31.5t58 46.5q77 58 97 58h417q-24-7-73.5-52.5t-75-64.5-46.5-19h-53V531q0-204 124-315 119-105 326-105 141 0 315 87 50 25 87 53v1053h-188q12 9 39.5 31.5t58.5 46.5q77 58 97 58h456zm-578 488.5q17-37.5 17-77t-19-79-51-77-73.5-71T938 1566q-96-56-153.5-56t-95.5 13.5-68 38.5q-64 53-64 139 0 114 142 235 83 70 151 94t108.5 24 78.5-16 67-44 46-65.5zM959 1641q13 35 13 71t-12.5 69.5T925 1843q-58 76-148 76-22 0-24-25-2-14-2-48t15.5-73 42.5-68q59-62 150-64z"/><glyph glyph-name="uring" unicode="ů" horiz-adv-x="1170" d="M670 828q161 145 236 145t75-96V242q0-60 27-90t90-30q44 0 86 16-33-12-59.5-37.5T1068 49q-75-65-171-65-92 0-105 102-3 29-4 59Q570-20 401-20 287-20 229 80q-52 90-52 246v337q0 87-15 118-28 62-101 62-35 0-71-15 122 109 198 138 37 15 77 15 109 0 109-139v-67l-1-373q0-143 53-210 58-76 193-76 66 0 137 57 18 14 32 24v528q0 74-36 102-15 11-37 11t-45-10zm203 627.5q17-37.5 17-77t-19-79-51-77-73.5-71T661 1093q-96-56-153.5-56t-95.5 13.5-68 38.5q-64 53-64 139 0 114 142 235 83 70 151 94t108.5 24 78.5-16 67-44 46-65.5zM682 1168q13 35 13 71t-12.5 69.5T648 1370q-58 76-148 76-22 0-24-25-2-14-2-48t15.5-73 42.5-68q59-62 150-64z"/><glyph glyph-name="Uhungarumlaut" unicode="Ű" horiz-adv-x="1724" d="M1728 1440q-21-6-46-28t-52-46q-68-62-97-62h-74V389q0-110-45-199-15-31-36-53h330q-24-7-73.5-52.5t-75-64.5T1513 1h-328q60 84 69.5 131t10.5 83q-159-115-258-159-186-83-328-83T452 8 316 108q-97 122-97 366v830H50q12 9 39 31.5t58 46.5q77 58 97 58h417q-24-7-73.5-52.5t-75-64.5-46.5-19h-53V531q0-204 124-315 119-105 326-105 141 0 315 87 50 25 87 53v1053h-188q12 9 39.5 31.5t58.5 46.5q77 58 97 58h456zm-744 62v12q79 52 137 119 70 81 155 196 1 2 57 43t62 45.5 19 11.5 25 14 26 15q-27-35-56.5-75.5T1331 1789q-105-116-201.5-188T984 1502zm-270 0v12q79 52 137 119 70 81 155 196 1 2 57 43t62 45.5 19 11.5 25 14 26 15q-27-35-56.5-75.5T1061 1789q-105-116-201.5-188T714 1502z"/><glyph glyph-name="uhungarumlaut" unicode="ű" horiz-adv-x="1170" d="M670 828q161 145 236 145t75-96V242q0-60 27-90t90-30q44 0 86 16-33-12-59.5-37.5T1068 49q-75-65-171-65-92 0-105 102-3 29-4 59Q570-20 401-20 287-20 229 80q-52 90-52 246v337q0 87-15 118-28 62-101 62-35 0-71-15 122 109 198 138 37 15 77 15 109 0 109-139v-67l-1-373q0-143 53-210 58-76 193-76 66 0 137 57 18 14 32 24v528q0 74-36 102-15 11-37 11t-45-10zm-26 222v12q79 52 137 119 70 81 155 196 1 2 57 43t62 45.5 19 11.5 25 14 26 15q-27-35-56.5-75.5T991 1337q-105-116-201.5-188T644 1050zm-270 0v12q79 52 137 119 70 81 155 196 1 2 57 43t62 45.5 19 11.5 25 14 26 15q-27-35-56.5-75.5T721 1337q-105-116-201.5-188T374 1050z"/><glyph glyph-name="Uogonek" unicode="Ų" horiz-adv-x="1724" d="M1429 1q-62-81-62-156 0-70 53-125 53-54 125-54 50 0 140 57 22 14 43 24v-1q0-20-194-144-114-73-187-73-67 0-119 56-50 54-50 111.5t15.5 99.5 42.5 79q53 73 136 126h-187q60 84 69.5 131t10.5 83q-159-115-258-159-186-83-328-83T452 8 316 108q-97 122-97 366v830H50q12 9 39 31.5t58 46.5q77 58 97 58h417q-24-7-73.5-52.5t-75-64.5-46.5-19h-53V531q0-204 124-315 119-105 326-105 141 0 315 87 50 25 87 53v1053h-188q12 9 39.5 31.5t58.5 46.5q77 58 97 58h456q-21-6-46-28t-52-46q-68-62-97-62h-74V389q0-110-45-199-15-31-36-53h330q-24-7-73.5-52.5t-75-64.5T1513 1h-84z"/><glyph glyph-name="uogonek" unicode="ų" horiz-adv-x="1170" d="M874-14q-51-71-51-141t53-125q53-54 125-54 50 0 140 57 22 14 43 24v-1q0-20-194-144-114-73-187-73-67 0-119 56-50 54-50 111.5t16 100 43 79.5Q745-51 832 3q-36 26-42 100l-2 42Q570-20 401-20 287-20 229 80q-52 90-52 246v337q0 87-15 118-28 62-101 62-35 0-71-15 122 109 198 138 37 15 77 15 109 0 109-139v-67l-1-373q0-143 53-210 58-76 193-76 66 0 137 57 18 14 32 24v528q0 74-36 102-15 11-37 11t-45-10q161 145 236 145t75-96V242q0-60 27-90t90-30q44 0 86 16-33-12-59.5-37.5T1068 49q-75-65-171-65-13 0-23 2z"/><glyph glyph-name="Wcircumflex" unicode="Ŵ" horiz-adv-x="2166" d="M927 1302q37 25 190 137 147-105 404-1061 18-67 28-107 19 46 52 116.5t71.5 153.5 78 172 71.5 171q72 183 72 257 0 116-74 167-25 17-52 17-44 0-80-17 33 17 62.5 42.5t59.5 49.5q74 59 137 59 64 0 105-51 39-46 39-113 0-120-299-781-102-226-115-259t-26-63q-31-70-46-91t-41.5-40-58.5-40.5-62-41-42-28.5q-30 118-59.5 236T1280 422q-67 249-145 462-70-190-174-418T833.5 183 781 87q-12-16-97-71.5T587-49Q576-3 558 79.5T516 267t-54 223-66 235-77 224-87 189q-100 179-201 179-51 0-108-33 97 101 233 154 45 18 78 18 87 0 162-120 66-108 111-237.5t72-218 51-177T674 534q30-116 64-265 23 53 52.5 118t60 135.5T910 667t52 146q50 162 50 263 0 146-85 226zm487 334q-171-137-190-137-7 0-101.5 103.5T1024 1711l-83-79q-11-10-27-18.5t-39-23.5q-93-58-123-86l250 237q34 34 94 75 85 58 90 58t21-16 39-41 50.5-54.5 52-55.5 42.5-46 23-25z"/><glyph glyph-name="wcircumflex" unicode="ŵ" horiz-adv-x="1532" d="M638 850q7 5 22.5 17.5t35 27.5 40.5 31.5 40 29.5q43 31 52.5 31t23.5-22 27.5-50.5 24-55T945 755q80-200 161-526 116 213 142.5 302t26.5 124.5-4.5 65T1256 776q-26 63-76 63-24 0-47-13 26 13 55 38t59 49q75 60 111 60t55.5-14 32.5-35q24-41 24-108t-26.5-152.5T1376 494q-50-105-121-218.5T1170 138t-24.5-37.5-23.5-24-32-23.5-41-28-42.5-28.5-37-24.5T945-44q-81 342-146 531-41-103-93-206.5t-65-133-23-44.5-23-25-32-23.5-41.5-29T478-4q-43-27-61-40-7 30-18 83.5T372 161t-35.5 145T293 458.5t-51 145T184 726Q118 842 52 842q-31 0-61-20 92 96 197 141 38 16 62 16 35 0 59.5-20.5T361 890t52.5-112T463 641.5 507 500q28-97 60-221 19 45 41 97t41 106q44 127 44 218t-55 150zm493 326q-171-137-190-137-7 0-101.5 103.5T741 1251l-83-79q-11-10-27-18.5t-39-23.5q-93-58-123-86l250 237q34 34 94 75 85 58 90 58t21-16 39-41 50.5-54.5 52-55.5 42.5-46 23-25z"/><glyph glyph-name="Ycircumflex" unicode="Ŷ" horiz-adv-x="1257" d="M748 354q0-116-70-219h321q-13-2-66-48Q832 0 805 0H456q100 104 100 257v253q0 97-114 333-119 245-248 385-96 105-168 105-47 0-122-49 157 175 309 175 85 0 151-77 147-173 280-452 62-132 91-234 190 248 241 411 13 42 13 73.5t-8 58.5-25 47q-35 42-97 42-30 0-54-7 22 6 46.5 29.5T904 1399q75 65 139.5 65t101.5-35.5 37-90-24.5-115.5-63-127.5-87-135T911 829t-91.5-116.5T748 623V354zm249 1266q-171-137-190-137-7 0-101.5 103.5T607 1695l-83-79q-11-10-27-18.5t-39-23.5q-93-58-123-86l250 237q34 34 94 75 85 58 90 58t21-16 39-41 50.5-54.5 52-55.5 42.5-46 23-25z"/><glyph glyph-name="ycircumflex" unicode="ŷ" horiz-adv-x="1138" d="M792 712q0 128-72 128-24 0-46-10 113 97 161 120.5t81 23.5 52-23 19-59V302q0-335-165-604-115-187-304-266-95-40-211-40-99 0-156 44-21 17-21 36.5t13 36 33 33 45 32.5 49 30q60 37 77 51-25-20-25-43.5t23-40 53-26.5q58-19 120.5-19t111 32.5 79.5 86 47.5 121T780-98q8 74 12 250Q569-18 405-18q-114 0-172 74-52 67-52 184v402q0 202-116 202-37 0-71-14 120 107 198 138 37 14 75.5 14t60.5-14.5 33-37.5q17-37 17-112l-1-414q0-142 51-209 60-77 195-77 49 0 95.5 27t73.5 67v500zm133 473q-171-137-190-137-7 0-101.5 103.5T535 1260l-83-79q-11-10-27-18.5t-39-23.5q-93-58-123-86l250 237q34 34 94 75 85 58 90 58t21-16 39-41 50.5-54.5 52-55.5 42.5-46 23-25z"/><glyph glyph-name="Ydieresis" unicode="Ÿ" horiz-adv-x="1257" d="M748 354q0-116-70-219h321q-13-2-66-48Q832 0 805 0H456q100 104 100 257v253q0 97-114 333-119 245-248 385-96 105-168 105-47 0-122-49 157 175 309 175 85 0 151-77 147-173 280-452 62-132 91-234 190 248 241 411 13 42 13 73.5t-8 58.5-25 47q-35 42-97 42-30 0-54-7 22 6 46.5 29.5T904 1399q75 65 139.5 65t101.5-35.5 37-90-24.5-115.5-63-127.5-87-135T911 829t-91.5-116.5T748 623V354zm300 1287-194-137-152 142 195 136zm-456 0-194-137-152 142 194 136z"/><glyph glyph-name="Zacute" unicode="Ź" horiz-adv-x="1247" d="m543 149 484-14q75 0 192 52Q1118 62 971 16 922 0 875 0H0q192 164 481 626 41 66 70 112t57.5 94T669 932.5t66.5 106.5 68.5 103q75 110 129 160-70-8-175-8l-483 16q-106 0-178-8 14 11 40.5 32.5T193 1378q72 55 107 61.5t80 6.5h89l483-16q105 0 177 8-71-64-194-263-65-101-127.5-201.5T686 779.5 572.5 599 458 429Q323 242 185 125q178 24 358 24zm34 1340v12q79 52 137 119 70 81 155 196 1 2 57 43t62 45.5 19 11.5 25 14 26 15q-27-35-56.5-75.5T924 1776q-105-116-201.5-188T577 1489z"/><glyph glyph-name="zacute" unicode="ź" horiz-adv-x="910" d="m555 136 153-5q84 0 178 42-37-28-68-52-67-52-112-78Q631-2 506-2T257-1 8 0q64 43 86 65.5t37.5 43.5 31 44.5T192 200t43.5 71T312 401t98 162q117 187 231 292-48-3-97-3l-349 10q-68 0-137-6 13 10 40 32t57 44q75 57 103 61 35 5 132 5l348-10q60 0 118 4-81-50-142-132-87-114-185-283T411 376t-40.5-64.5T328 248q-48-66-103-112h330zm-125 940v12q79 52 137 119 70 81 155 196 1 2 57 43t62 45.5 19 11.5 25 14 26 15q-27-35-56.5-75.5T777 1363q-105-116-201.5-188T430 1076z"/><glyph glyph-name="Zdotaccent" unicode="Ż" horiz-adv-x="1247" d="m543 149 484-14q75 0 192 52Q1118 62 971 16 922 0 875 0H0q192 164 481 626 41 66 70 112t57.5 94T669 932.5t66.5 106.5 68.5 103q75 110 129 160-70-8-175-8l-483 16q-106 0-178-8 14 11 40.5 32.5T193 1378q72 55 107 61.5t80 6.5h89l483-16q105 0 177 8-71-64-194-263-65-101-127.5-201.5T686 779.5 572.5 599 458 429Q323 242 185 125q178 24 358 24zm253 1512-194-137-152 142 194 136z"/><glyph glyph-name="zdotaccent" unicode="ż" horiz-adv-x="910" d="m555 136 153-5q84 0 178 42-37-28-68-52-67-52-112-78Q631-2 506-2T257-1 8 0q64 43 86 65.5t37.5 43.5 31 44.5T192 200t43.5 71T312 401t98 162q117 187 231 292-48-3-97-3l-349 10q-68 0-137-6 13 10 40 32t57 44q75 57 103 61 35 5 132 5l348-10q60 0 118 4-81-50-142-132-87-114-185-283T411 376t-40.5-64.5T328 248q-48-66-103-112h330zm73 1057-194-137-152 142 194 136z"/><glyph glyph-name="Zcaron" unicode="Ž" horiz-adv-x="1247" d="m543 149 484-14q75 0 192 52Q1118 62 971 16 922 0 875 0H0q192 164 481 626 41 66 70 112t57.5 94T669 932.5t66.5 106.5 68.5 103q75 110 129 160-70-8-175-8l-483 16q-106 0-178-8 14 11 40.5 32.5T193 1378q72 55 107 61.5t80 6.5h89l483-16q105 0 177 8-71-64-194-263-65-101-127.5-201.5T686 779.5 572.5 599 458 429Q323 242 185 125q178 24 358 24zM328 1784q171 137 190 137 7 0 101.5-103.5T718 1709l83 79q11 10 27 18.5t39 22.5q93 59 123 88l-250-238q-104-87-143.5-110t-42.5-23-19 16-39 41-50.5 54.5-52 56-42.5 46-23 24.5z"/><glyph glyph-name="zcaron" unicode="ž" horiz-adv-x="910" d="m555 136 153-5q84 0 178 42-37-28-68-52-67-52-112-78Q631-2 506-2T257-1 8 0q64 43 86 65.5t37.5 43.5 31 44.5T192 200t43.5 71T312 401t98 162q117 187 231 292-48-3-97-3l-349 10q-68 0-137-6 13 10 40 32t57 44q75 57 103 61 35 5 132 5l348-10q60 0 118 4-81-50-142-132-87-114-185-283T411 376t-40.5-64.5T328 248q-48-66-103-112h330zM166 1339q171 137 190 137 7 0 101.5-103.5T556 1264l83 79q11 10 27 18.5t39 22.5q93 59 123 88l-250-238q-104-87-143.5-110t-42.5-23-19 16-39 41-50.5 54.5-52 56-42.5 46-23 24.5z"/><glyph glyph-name="AEacute" unicode="Ǽ" horiz-adv-x="1862" d="M164 135q7 1 80 1 125 0 184.5 19t85.5 35q-37-28-68-52-67-52-107.5-75T258 27.5 176 9Q114 0 7 0h-39q1 1 1.5 2t14 16T23 61.5 92 147t93.5 147 94 183.5T363 667t82.5 192.5 86.5 195 66.5 154.5 26 70 11.5 24h-76q-186 0-289-42 138 120 231 151 85 27 276 27h878q-13-1-66.5-47.5T1508 1324t-46-21H871l72-242 73-243h476q-11-1-28-22.5t-36-46.5q-53-67-80-67h-290q119-392 141-434t40-63q42-49 101-49h365q57 0 162 44l19 8q-51-61-218-150-72-38-98-38h-364q-154 0-197 114-42 118-78.5 235.5T856 586q-85-60-365-56h-63Q315 304 208 185q-9-10-18-21-26-30-26-29zm342 534 198-4q62 0 126 4-46 146-137 447-99-227-201-450 12 3 14 3zm185 875v12q79 52 137 119 70 81 155 196 1 2 57 43t62 45.5 19 11.5 25 14 26 15q-27-35-56.5-75.5T1038 1831q-105-116-201.5-188T691 1544z"/><glyph glyph-name="aeacute" unicode="ǽ" horiz-adv-x="1361" d="M532 1001q192 0 218-208 118 125 250 171 49 16 89 16t65.5-12 43.5-32q39-43 39-98t-24-101.5-62.5-90.5-88-84.5T962 486q-74-50-185-113 32-121 113.5-186.5T1099 121q117 0 222 64Q1203 45 1004 0q-62-14-121-14-175 0-262 163-47-29-92-58t-93-53Q328-15 230-15 102-15 54 63q-18 28-18 76t30 98 76 91q140 128 306 156 55 9 113 11v44q0 159-29 215t-75 82.5T349 863q-105 0-185-41 102 87 158 118 110 61 210 61zm487-414.5q27 42.5 27 83t-9 69-27 51.5q-39 50-100 50-152 0-152-310 0-55 9-109 104 28 164.5 75.5t87.5 90zM561 231v128H402q-98 0-155-12-13-43-13-82t13.5-67 37.5-46q46-33 125-33 51 0 86 22 65 41 65 90zm148 832v12q79 52 137 119 70 81 155 196 1 2 57 43t62 45.5 19 11.5 25 14 26 15q-27-35-56.5-75.5T1056 1350q-105-116-201.5-188T709 1063z"/><glyph glyph-name="Oslashacute" unicode="Ǿ" horiz-adv-x="1756" d="M1339 1624q-45-136-68-195 181-75 289-226 113-159 113-359 0-221-131-440-128-214-332-346Q996-81 773-81q-125 0-230 30-26-22-68-45-81-43-101-64 45 72 82 139Q191 92 114 389q-25 97-25 214t34.5 230 96 211T366 1223t186 139q211 121 449 121 63 0 137-13 14 36 41 54.5t57 34.5q84 46 103 65zM650 114q140-63 299.5-63T1205 99.5 1362 231q116 158 116 428 0 193-74 339.5T1196 1233Q965 658 750 286q-24-41-50-86t-50-86zm421 1182q-124 47-271 47t-245-40.5T397 1187q-113-141-113-423 0-202 70.5-355.5T560 164q252 457 465 1012 24 63 46 120zm-353 211v12q79 52 137 119 70 81 155 196 1 2 57 43t62 45.5 19 11.5 25 14 26 15q-27-35-56.5-75.5T1065 1794q-105-116-201.5-188T718 1507z"/><glyph glyph-name="oslashacute" unicode="ǿ" d="M930 1126q-36-97-79-199 81-56 131-153 48-92 48-180t-22-159-61.5-137-93-123.5T736 74Q600-17 461-17q-76 0-143 30-24-18-67-38-80-37-105-61 81 122 95 144-120 89-157 241-11 48-11 108t22.5 132 62 138 94 123.5T370 900q137 91 277 91 36 0 76-8 8 37 90 79 33 17 66 32.5t51 31.5zM443 187q93-71 211-71 102 0 148 102 33 76 33 172 0 183-91 310-118-230-301-513zm-76 77q152 261 277 534-90 59-195 59-98 0-145-97-37-75-37-171 0-191 100-325zm20 710v12q79 52 137 119 70 81 155 196 1 2 57 43t62 45.5 19 11.5 25 14 26 15q-27-35-56.5-75.5T734 1261q-105-116-201.5-188T387 974z"/><glyph glyph-name="dotlessj" unicode="ȷ" horiz-adv-x="542" d="M60-375q-23-18-23-43.5T56-456t40-11h2q80 134 88 364 3 64 3 125v582q0 112-36 148-17 17-44 17-35 0-94-14 122 96 368 251V196q0-218-19.5-301.5T315-257t-70-130.5T152-498Q40-603-92-603q-64 0-64 48 0 31 32.5 57t57 42 48.5 30q62 36 78 51z"/><glyph glyph-name="circumflex" unicode="ˆ" horiz-adv-x="662" d="M662 1390q-171-137-190-137-7 0-101.5 103.5T272 1465l-83-79q-11-10-27-18.5t-39-23.5q-93-58-123-86l250 237q34 34 94 75 85 58 90 58t21-16 39-41 50.5-54.5 52-55.5 42.5-46 23-25z"/><glyph glyph-name="caron" unicode="ˇ" horiz-adv-x="662" d="M0 1491q171 137 190 137 7 0 101.5-103.5T390 1416l83 79q11 10 27 18.5t39 22.5q93 59 123 88l-250-238q-104-87-143.5-110t-42.5-23-19 16-39 41-50.5 54.5-52 56-42.5 46T0 1491z"/><glyph glyph-name="breve" unicode="˘" horiz-adv-x="768" d="M768 1627q-3-129-166-256-97-76-173.5-100T307 1247t-87 15-78 41q-83 60-138 179-4 7-4 12t14 17.5 35.5 26.5 46.5 28.5 46 27.5q51 29 52 33 66-159 184-223 43-24 79.5-24t55.5 14 31 32q22 32 27 55.5t32.5 42.5 61.5 38.5 64.5 36.5 38.5 28z"/><glyph glyph-name="dotaccent" unicode="˙" horiz-adv-x="346" d="m346 1381-194-137L0 1386l194 136z"/><glyph glyph-name="ring" unicode="˚" horiz-adv-x="610" d="M593 1588.5q17-37.5 17-77t-19-79-51-77-73.5-71T381 1226q-96-56-153.5-56t-95.5 13.5-68 38.5q-64 53-64 139 0 114 142 235 83 70 151 94t108.5 24 78.5-16 67-44 46-65.5zM402 1301q13 35 13 71t-12.5 69.5T368 1503q-58 76-148 76-22 0-24-25-2-14-2-48t15.5-73 42.5-68q59-62 150-64z"/><glyph glyph-name="ogonek" unicode="˛" horiz-adv-x="550" d="M298 54Q189-55 189-155q0-70 53-125 53-54 125-54 50 0 140 57 22 14 43 24v-1q0-20-194-144-114-73-187-73-67 0-119 56Q0-361 0-296.5T27-178t70 99Q181 9 298 54z"/><glyph glyph-name="tilde" unicode="˜" horiz-adv-x="925" d="M925 1503q-208-239-406-239-61 0-96.5 23t-53.5 38.5-39 29.5q-46 32-105 32-60 0-225-129 140 203 328 254 43 11 87 11t75.5-19.5T554 1461q86-62 166-62 57 0 156 73 25 18 49 31z"/><glyph glyph-name="hungarumlaut" unicode="˝" horiz-adv-x="752" d="M272 1247v12q79 52 137 119 70 81 155 196 1 2 57 43t62 45.5 19 11.5 25 14 26 15q-27-35-56.5-75.5T619 1534q-105-116-201.5-188T272 1247zm-270 0v12q79 52 137 119 70 81 155 196 1 2 57 43t62 45.5 19 11.5 25 14 26 15q-27-35-56.5-75.5T349 1534q-105-116-201.5-188T2 1247z"/><glyph glyph-name="uni0312" unicode="̒" horiz-adv-x="359" d="M231 1681q-81-81-81-170 0-32 16-47 18-15 60 14 3 3 4 3l84-133q4-7-46-40t-68-44q-42-28-42-25-21 34-45 67.5t-38 87 9 119.5q33 98 112 145 28 16 35 23z"/><glyph glyph-name="uni0315" unicode="̕" horiz-adv-x="245" d="M83 1229q82 82 82 170 0 32-17 46-15 13-59-15-4-2-4-1L1 1563q-3 7 64 51 90 59 92 57 21-34 45-68t38-86.5-8.5-119T159 1280q-9-9-30-22-37-21-46-29z"/><glyph glyph-name="uni0326" unicode="̦" horiz-adv-x="386" d="M150-547q82 82 82 169 0 33-16 47-16 13-60-15-4-2-4-1L68-214q-2 2 9 11t28 21.5 38 26 39 25.5q41 26 42 25 21-34 44.5-68t37.5-86.5-8-119.5-72-117q-9-9-30-22-37-21-46-29z"/><glyph glyph-name="pi" unicode="π" horiz-adv-x="1101" d="M1094 953q-12 0-61-43t-69-58q-45-35-65-35H796V280q0-95 12-119 22-48 104-48 44 0 85 15-33-12-59-37t-56-51q-75-65-168-65-96 0-108 121-4 33-4 68v653H459V96q0-18-59.5-53T318-5q-51-30-53-35v857H-3l39 31q127 105 155 105h903z"/><glyph glyph-name="Wgrave" unicode="Ẁ" horiz-adv-x="2166" d="M927 1302q37 25 190 137 147-105 404-1061 18-67 28-107 19 46 52 116.5t71.5 153.5 78 172 71.5 171q72 183 72 257 0 116-74 167-25 17-52 17-44 0-80-17 33 17 62.5 42.5t59.5 49.5q74 59 137 59 64 0 105-51 39-46 39-113 0-120-299-781-102-226-115-259t-26-63q-31-70-46-91t-41.5-40-58.5-40.5-62-41-42-28.5q-30 118-59.5 236T1280 422q-67 249-145 462-70-190-174-418T833.5 183 781 87q-12-16-97-71.5T587-49Q576-3 558 79.5T516 267t-54 223-66 235-77 224-87 189q-100 179-201 179-51 0-108-33 97 101 233 154 45 18 78 18 87 0 162-120 66-108 111-237.5t72-218 51-177T674 534q30-116 64-265 23 53 52.5 118t60 135.5T910 667t52 146q50 162 50 263 0 146-85 226zm264 305q-11-8-38.5-30t-58.5-46q-80-60-97-60-3 0-16 9-94 62-155 131t-111 147l-18 29q0 11 79 65 106 71 113 71t8-5 9-19q60-102 138-177.5t147-114.5z"/><glyph glyph-name="wgrave" unicode="ẁ" horiz-adv-x="1532" d="M638 850q7 5 22.5 17.5t35 27.5 40.5 31.5 40 29.5q43 31 52.5 31t23.5-22 27.5-50.5 24-55T945 755q80-200 161-526 116 213 142.5 302t26.5 124.5-4.5 65T1256 776q-26 63-76 63-24 0-47-13 26 13 55 38t59 49q75 60 111 60t55.5-14 32.5-35q24-41 24-108t-26.5-152.5T1376 494q-50-105-121-218.5T1170 138t-24.5-37.5-23.5-24-32-23.5-41-28-42.5-28.5-37-24.5T945-44q-81 342-146 531-41-103-93-206.5t-65-133-23-44.5-23-25-32-23.5-41.5-29T478-4q-43-27-61-40-7 30-18 83.5T372 161t-35.5 145T293 458.5t-51 145T184 726Q118 842 52 842q-31 0-61-20 92 96 197 141 38 16 62 16 35 0 59.5-20.5T361 890t52.5-112T463 641.5 507 500q28-97 60-221 19 45 41 97t41 106q44 127 44 218t-55 150zm265 305q-11-8-38.5-30t-58.5-46q-80-60-97-60-3 0-16 9-94 62-155 131t-111 147l-18 29q0 11 79 65 106 71 113 71t8-5 9-19q60-102 138-177.5T903 1155z"/><glyph glyph-name="Wacute" unicode="Ẃ" horiz-adv-x="2166" d="M927 1302q37 25 190 137 147-105 404-1061 18-67 28-107 19 46 52 116.5t71.5 153.5 78 172 71.5 171q72 183 72 257 0 116-74 167-25 17-52 17-44 0-80-17 33 17 62.5 42.5t59.5 49.5q74 59 137 59 64 0 105-51 39-46 39-113 0-120-299-781-102-226-115-259t-26-63q-31-70-46-91t-41.5-40-58.5-40.5-62-41-42-28.5q-30 118-59.5 236T1280 422q-67 249-145 462-70-190-174-418T833.5 183 781 87q-12-16-97-71.5T587-49Q576-3 558 79.5T516 267t-54 223-66 235-77 224-87 189q-100 179-201 179-51 0-108-33 97 101 233 154 45 18 78 18 87 0 162-120 66-108 111-237.5t72-218 51-177T674 534q30-116 64-265 23 53 52.5 118t60 135.5T910 667t52 146q50 162 50 263 0 146-85 226zm43 167v12q79 52 137 119 70 81 155 196 1 2 57 43t62 45.5 19 11.5 25 14 26 15q-27-35-56.5-75.5T1317 1756q-105-116-201.5-188T970 1469z"/><glyph glyph-name="wacute" unicode="ẃ" horiz-adv-x="1532" d="M638 850q7 5 22.5 17.5t35 27.5 40.5 31.5 40 29.5q43 31 52.5 31t23.5-22 27.5-50.5 24-55T945 755q80-200 161-526 116 213 142.5 302t26.5 124.5-4.5 65T1256 776q-26 63-76 63-24 0-47-13 26 13 55 38t59 49q75 60 111 60t55.5-14 32.5-35q24-41 24-108t-26.5-152.5T1376 494q-50-105-121-218.5T1170 138t-24.5-37.5-23.5-24-32-23.5-41-28-42.5-28.5-37-24.5T945-44q-81 342-146 531-41-103-93-206.5t-65-133-23-44.5-23-25-32-23.5-41.5-29T478-4q-43-27-61-40-7 30-18 83.5T372 161t-35.5 145T293 458.5t-51 145T184 726Q118 842 52 842q-31 0-61-20 92 96 197 141 38 16 62 16 35 0 59.5-20.5T361 890t52.5-112T463 641.5 507 500q28-97 60-221 19 45 41 97t41 106q44 127 44 218t-55 150zm14 137v12q79 52 137 119 70 81 155 196 1 2 57 43t62 45.5 19 11.5 25 14 26 15q-27-35-56.5-75.5T999 1274q-105-116-201.5-188T652 987z"/><glyph glyph-name="Wdieresis" unicode="Ẅ" horiz-adv-x="2166" d="M927 1302q37 25 190 137 147-105 404-1061 18-67 28-107 19 46 52 116.5t71.5 153.5 78 172 71.5 171q72 183 72 257 0 116-74 167-25 17-52 17-44 0-80-17 33 17 62.5 42.5t59.5 49.5q74 59 137 59 64 0 105-51 39-46 39-113 0-120-299-781-102-226-115-259t-26-63q-31-70-46-91t-41.5-40-58.5-40.5-62-41-42-28.5q-30 118-59.5 236T1280 422q-67 249-145 462-70-190-174-418T833.5 183 781 87q-12-16-97-71.5T587-49Q576-3 558 79.5T516 267t-54 223-66 235-77 224-87 189q-100 179-201 179-51 0-108-33 97 101 233 154 45 18 78 18 87 0 162-120 66-108 111-237.5t72-218 51-177T674 534q30-116 64-265 23 53 52.5 118t60 135.5T910 667t52 146q50 162 50 263 0 146-85 226zm557 309-194-137-152 142 195 136zm-456 0-194-137-152 142 194 136z"/><glyph glyph-name="wdieresis" unicode="ẅ" horiz-adv-x="1532" d="M638 850q7 5 22.5 17.5t35 27.5 40.5 31.5 40 29.5q43 31 52.5 31t23.5-22 27.5-50.5 24-55T945 755q80-200 161-526 116 213 142.5 302t26.5 124.5-4.5 65T1256 776q-26 63-76 63-24 0-47-13 26 13 55 38t59 49q75 60 111 60t55.5-14 32.5-35q24-41 24-108t-26.5-152.5T1376 494q-50-105-121-218.5T1170 138t-24.5-37.5-23.5-24-32-23.5-41-28-42.5-28.5-37-24.5T945-44q-81 342-146 531-41-103-93-206.5t-65-133-23-44.5-23-25-32-23.5-41.5-29T478-4q-43-27-61-40-7 30-18 83.5T372 161t-35.5 145T293 458.5t-51 145T184 726Q118 842 52 842q-31 0-61-20 92 96 197 141 38 16 62 16 35 0 59.5-20.5T361 890t52.5-112T463 641.5 507 500q28-97 60-221 19 45 41 97t41 106q44 127 44 218t-55 150zm567 304-194-137-152 142 195 136zm-456 0-194-137-152 142 194 136z"/><glyph glyph-name="Ygrave" unicode="Ỳ" horiz-adv-x="1257" d="M748 354q0-116-70-219h321q-13-2-66-48Q832 0 805 0H456q100 104 100 257v253q0 97-114 333-119 245-248 385-96 105-168 105-47 0-122-49 157 175 309 175 85 0 151-77 147-173 280-452 62-132 91-234 190 248 241 411 13 42 13 73.5t-8 58.5-25 47q-35 42-97 42-30 0-54-7 22 6 46.5 29.5T904 1399q75 65 139.5 65t101.5-35.5 37-90-24.5-115.5-63-127.5-87-135T911 829t-91.5-116.5T748 623V354zm81 1270q-11-8-38.5-30t-58.5-46q-80-60-97-60-3 0-16 9-94 62-155 131t-111 147l-18 29q0 11 79 65 106 71 113 71t8-5 9-19q60-102 138-177.5T829 1624z"/><glyph glyph-name="ygrave" unicode="ỳ" horiz-adv-x="1138" d="M792 712q0 128-72 128-24 0-46-10 113 97 161 120.5t81 23.5 52-23 19-59V302q0-335-165-604-115-187-304-266-95-40-211-40-99 0-156 44-21 17-21 36.5t13 36 33 33 45 32.5 49 30q60 37 77 51-25-20-25-43.5t23-40 53-26.5q58-19 120.5-19t111 32.5 79.5 86 47.5 121T780-98q8 74 12 250Q569-18 405-18q-114 0-172 74-52 67-52 184v402q0 202-116 202-37 0-71-14 120 107 198 138 37 14 75.5 14t60.5-14.5 33-37.5q17-37 17-112l-1-414q0-142 51-209 60-77 195-77 49 0 95.5 27t73.5 67v500zm-43 430q-11-8-38.5-30t-58.5-46q-80-60-97-60-3 0-16 9-94 62-155 131t-111 147l-18 29q0 11 79 65 106 71 113 71t8-5 9-19q60-102 138-177.5T749 1142z"/><glyph glyph-name="endash" unicode="–" horiz-adv-x="765" d="M638 615q-12-1-65.5-47.5t-82-67.5-46.5-21H138q12 1 65.5 47.5t82 67.5 46.5 21h306z"/><glyph glyph-name="emdash" unicode="—" horiz-adv-x="1065" d="M938 615q-12-1-65.5-47.5t-82-67.5-46.5-21H138q12 1 65.5 47.5t82 67.5 46.5 21h606z"/><glyph glyph-name="quoteleft" unicode="‘" horiz-adv-x="449" d="M289 1473q-102-104-102-213 0-41 15.5-53.5T230 1194t23 8q30 20 34 20l105-166q3-10-80-65-112-74-115-71-13 21-27.5 42t-27.5 42q-33 52-44 92t-9 83 15 83q28 83 91 146 14 14 38 28 47 28 56 37z"/><glyph glyph-name="quoteright" unicode="’" horiz-adv-x="449" d="M165 920q103 103 103 212 0 41-15.5 53.5t-28 12.5-23-7.5T184 1179q-16-10-16-9L63 1337q-4 4 32 30t61.5 43 47.5 32q52 33 54 31 13-21 27.5-42.5T314 1388q32-52 43-92t9-82.5-16-83.5q-28-84-90-146-18-18-53-37.5T165 920z"/><glyph glyph-name="quotesinglbase" unicode="‚" horiz-adv-x="483" d="M187-280Q290-177 290-68q0 41-15.5 53.5T246.5-2t-23-7.5T206-21q-16-10-16-9L85 137q-4 4 32 30t61.5 43 47.5 32q52 33 54 31 13-21 27.5-42.5T336 188q32-52 43-92t9-82.5T372-70q-28-84-90-146-18-18-53-37.5T187-280z"/><glyph glyph-name="quotedblleft" unicode="“" horiz-adv-x="809" d="M649 1473q-102-104-102-213 0-41 15.5-53.5T590 1194t23 8q30 20 34 20l105-166q3-10-80-65-112-74-115-71-13 21-27.5 42t-27.5 42q-33 52-44 92t-9 83 15 83q28 83 91 146 14 14 38 28 47 28 56 37zm-360 0q-102-104-102-213 0-41 15.5-53.5T230 1194t23 8q30 20 34 20l105-166q3-10-80-65-112-74-115-71-13 21-27.5 42t-27.5 42q-33 52-44 92t-9 83 15 83q28 83 91 146 14 14 38 28 47 28 56 37z"/><glyph glyph-name="quotedblright" unicode="”" horiz-adv-x="809" d="M525 920q103 103 103 212 0 41-15.5 53.5t-28 12.5-23-7.5T544 1179q-16-10-16-9l-105 167q-4 4 32 30t61.5 43 47.5 32q52 33 54 31 13-21 27.5-42.5T674 1388q32-52 43-92t9-82.5-16-83.5q-28-84-90-146-18-18-53-37.5T525 920zm-360 0q103 103 103 212 0 41-15.5 53.5t-28 12.5-23-7.5T184 1179q-16-10-16-9L63 1337q-4 4 32 30t61.5 43 47.5 32q52 33 54 31 13-21 27.5-42.5T314 1388q32-52 43-92t9-82.5-16-83.5q-28-84-90-146-18-18-53-37.5T165 920z"/><glyph glyph-name="quotedblbase" unicode="„" horiz-adv-x="843" d="M547-280Q650-177 650-68q0 41-15.5 53.5T606.5-2t-23-7.5T566-21q-16-10-16-9L445 137q-4 4 32 30t61.5 43 47.5 32q52 33 54 31 13-21 27.5-42.5T696 188q32-52 43-92t9-82.5T732-70q-28-84-90-146-18-18-53-37.5T547-280zm-360 0Q290-177 290-68q0 41-15.5 53.5T246.5-2t-23-7.5T206-21q-16-10-16-9L85 137q-4 4 32 30t61.5 43 47.5 32q52 33 54 31 13-21 27.5-42.5T336 188q32-52 43-92t9-82.5T372-70q-28-84-90-146-18-18-53-37.5T187-280z"/><glyph glyph-name="dagger" unicode="†" horiz-adv-x="956" d="M57 1011q166 136 194 136h141v417q77 64 104 79.5t44 25.5q42 24 47 31v-553h307q-13-1-66-48-101-88-128-88H587V-176q0-18-95-73.5T392-312v1323H57z"/><glyph glyph-name="daggerdbl" unicode="‡" horiz-adv-x="969" d="M70 1011q166 136 194 136h141v417q77 64 104 79.5t45 25.5q41 24 46 31v-553h307q-13-1-66-48-101-88-128-88H600V455h307q-13-1-66-48-101-88-128-88H600v-495q0-18-95-73.5T405-312v631H70q166 136 194 136h141v556H70z"/><glyph glyph-name="bullet" unicode="•" horiz-adv-x="792" d="M645 701 322 476 149 751l322 226z"/><glyph glyph-name="ellipsis" unicode="…" horiz-adv-x="1413" d="M383 106 189-30 84 137l194 136zm471 0L660-30 555 137l194 136zm471 0L1131-30l-105 167 194 136z"/><glyph glyph-name="perthousand" unicode="‰" horiz-adv-x="2841" d="M2772 523q0-240-226-408-29-21-61.5-45T2417 26q-153-85-283-13-116 63-158 203-19 67-19 151 0 179 141 324 28 28 63 50.5t65 42.5 58 38.5 58 32.5q67 32 132.5 32t122-32.5T2692 770q80-105 80-247zm-900 0q0-240-226-408-29-21-61.5-45T1517 26q-153-85-283-13-116 63-158 203-19 67-19 151 0 179 141 324 28 28 63 50.5t65 42.5 58 38.5 58 32.5q67 32 132.5 32t122-32.5T1792 770q80-105 80-247zm-474 1114q-66-333-246-695Q859 355 556-12q-49-59-84.5-81.5T412-130q-69-39-95-64Q683 246 964 819q171 351 232 643 2 8 2.5 20t9.5 26 33.5 31 52.5 33l56 32 48 33zm-507-541q0-240-226-408-124-94-181-114t-114.5-20T253 586t-99 84Q76 775 76 926q0 194 141 337 28 29 63 51.5t65 42.5 58 38 58 33q67 32 109.5 32t88.5-12 92.5-46.5T829 1320q62-96 62-224zm1687-680q0 52-23 116.5T2490 646q-93 107-238 107-13 0-27-2-75-107-75-262 0-142 80-252 90-122 229-122 19 0 39 3 80 108 80 298zm-900 0q0 52-23 116.5T1590 646q-93 107-238 107-13 0-27-2-75-107-75-262 0-142 80-252 90-122 229-122 19 0 39 3 80 108 80 298zM697 989q0 52-23 116.5T608 1219q-92 107-237 107-14 0-27-3-75-107-75-261 0-144 81-253 90-122 228-122 19 0 39 4 80 108 80 298z"/><glyph glyph-name="guilsinglleft" unicode="‹" horiz-adv-x="738" d="M623 256q-11 0-195-136-68 57-116 95.5t-78.5 63T172 326q-72 55-112 83 22 16 52 39 53 39 103.5 72.5t76 54.5 49.5 44q26 25 66 69t63.5 62 49.5 34.5 52.5 31.5 47.5 27Q479 681 267 536q232-160 356-280z"/><glyph glyph-name="guilsinglright" unicode="›" horiz-adv-x="736" d="M112 707q7 0 194 136 243-201 369-290-76-56-110.5-80.5T499 428t-56.5-41-49.5-44-46-47.5-40.5-44.5-42-38-50-35-52.5-31.5-47-26.5q137 159 352 307-234 164-355 280z"/><glyph glyph-name="fraction" unicode="⁄" horiz-adv-x="995" d="M1015 1637q-82-412-360-913Q337 158 123-65q-31-31-75-55-86-46-114-74Q300 246 580 819q169 343 233 643 2 11 2.5 19.5t7 22.5 32 32 56 35.5 59.5 34 45 31.5z"/><glyph glyph-name="Euro" unicode="€" horiz-adv-x="1675" d="M313 641q5 56 13 96H64l38 31q128 105 156 105h114q117 248 382 407 261 158 539 158 106 0 179-18.5t92.5-27.5 19.5-19-18-32-50-48q-80-67-169-98 40 33 40 42.5t-19 18-49 15.5-66 12.5-69 9.5q-67 8-144.5 8t-170-22-161.5-72q-133-97-188-334h206q79 0 162 59-134-176-383-191 0-60 8-100l213-1q77 0 162 60-65-94-187-150-64-30-154-36 138-377 547-377 160 0 317 56 69 25 124 57Q1340 57 1034 8 966-3 872-3T681.5 34.5 510 140Q353 281 319 505H64q166 136 194 136h55z"/><glyph glyph-name="trademark" unicode="™" horiz-adv-x="2474" d="M2217 1440q32-599 32-670t-31-112h177q-16-4-68.5-50t-79.5-66-46-20h-178q29 41 29 144.5t-6.5 216T2033 1109q-42-71-84.5-141T1876 844.5t-47-89-37-68.5q-12-17-97.5-72.5T1597 551q-64 192-261 515-10-332-81-408h192q-12-9-39.5-31.5T1350 580q-76-58-97-58h-198q78 105 87 344 3 61 9 129 13 149 25 309h-151q108 90 148.5 113t45.5 23h151l200-333q132-218 171-297 201 334 229.5 394.5t45 87.5 41.5 45.5 55 37.5 59 36 46 29zM428 668l-1 636H113q12 9 39.5 31.5T210 1382q76 58 97 58h677q-14-2-67-49-100-87-127-87H621V848q0-87-48-153-16-22-38-37h236q-15-2-68-49-100-87-127-87H359q69 45 69 146z"/><glyph glyph-name="partialdiff" unicode="∂" horiz-adv-x="1129" d="M1028 559q0-226-150-362Q767 97 700 57 566-23 471-23T305 11.5 182 104Q71 226 71 390q0 134 88 271 85 132 215 216 136 88 270 88 53 0 101-15-134 363-459 566 13-2 60 41.5t65 58.5q42 37 51.5 37t12 .5T501 1642q39-21 144.5-116.5t178-212T942 1069q86-243 86-510zM447 831q-97 0-145-94-37-75-37-173.5T291.5 386 368 246q110-136 284-136 101 0 147 99 34 73 34 175 0 192-108 319.5T447 831z"/><glyph glyph-name="product" unicode="∏" horiz-adv-x="1452" d="M79 1304q166 136 194 136h1128q-13-2-61-44t-68-57q-45-35-65-35h-193V77q0-18-59.5-53T873-24q-51-30-53-35v1363H608V77q0-18-59.5-53T467-24q-51-30-53-35v1363H79z"/><glyph glyph-name="minus" unicode="−" horiz-adv-x="1253" d="M1092 615q-13-1-66-48-101-88-128-88H176q12 1 65.5 47.5t82 67.5 46.5 21h722z"/><glyph glyph-name="infinity" unicode="∞" horiz-adv-x="1630" d="M1098 393q-164 0-321 206-131-134-289-189-55-19-111-19t-106.5 22-86.5 60q-78 81-78 199 0 93 72 196 104 152 266 209 50 18 96 18 81 0 189-80 80-59 152-147 148 148 312 212 59 23 114 23t98.5-28.5 72.5-72.5q60-89 60-200 0-91-76-190-69-92-174-156-104-63-190-63zM919 811q182-283 359-283h16q7 0 15 2 34 63 34 132t-16.5 121-48.5 93q-70 90-181 90-92 0-157-117-15-26-21-38zM337 963q-37-74-37-146.5T323.5 692t64.5-90q84-78 211-78 33 0 61 34 47 59 64 117-8 12-15.5 24.5t-25 37.5-58.5 66.5-89 76.5q-109 79-199 83z"/><glyph glyph-name="approxequal" unicode="≈" horiz-adv-x="1173" d="m369 779-13-1q-10-14-27-44t-46-49.5-61-36.5q-84-46-92-59 52 100 184 208 145 119 244 119 42 0 76.5-26t55-44 42.5-34q52-36 105-36 9 0 13 1 30 40 82.5 67.5t77.5 41 39 31.5q-73-91-183-177-131-101-224-101-41 0-73 22t-62.5 48-63 48-74.5 22zm680-289Q934 346 790 262q-85-50-148-50-58 0-135.5 69.5T369 351q-8 0-13-1-10-14-27-43.5t-46-49-61-37.5q-84-46-92-59 48 96 184 209 143 119 244 119 42 0 76.5-26t55-44 42.5-33q52-37 105-37 9 0 13 1 32 41 83.5 68t76.5 40.5 39 31.5z"/><glyph glyph-name="notequal" unicode="≠" horiz-adv-x="1072" d="M982 477q-11-1-35.5-22.5T892 408q-79-67-104-67H458q-72-106-105-126t-61-35-53-28.5-37-29.5q85 110 152 219H86q13 1 66 48 101 88 128 88h153q28 52 71 140H86q13 2 41.5 27t48.5 42.5 39 31.5q45 35 65 35h283q8 22 15.5 43.5T593 835t22.5 29.5 36 25.5 43.5 25.5 43 24.5q47 26 51 36-42-118-91-223h284q-11-1-65-47.5T834.5 638 788 617H630l-40-70-42-70h434z"/></font>
</defs>
</svg>
